<?xml version="1.0" encoding="utf-8" standalone="no"?>
<!DOCTYPE svg PUBLIC "-//W3C//DTD SVG 1.1//EN"
  "http://www.w3.org/Graphics/SVG/1.1/DTD/svg11.dtd">
<svg xmlns:xlink="http://www.w3.org/1999/xlink" width="576pt" height="576pt" viewBox="0 0 576 576" xmlns="http://www.w3.org/2000/svg" version="1.1">
 <metadata>
  <rdf:RDF xmlns:dc="http://purl.org/dc/elements/1.1/" xmlns:cc="http://creativecommons.org/ns#" xmlns:rdf="http://www.w3.org/1999/02/22-rdf-syntax-ns#">
   <cc:Work>
    <dc:type rdf:resource="http://purl.org/dc/dcmitype/StillImage"/>
    <dc:date>2024-07-15T20:43:01.640273</dc:date>
    <dc:format>image/svg+xml</dc:format>
    <dc:creator>
     <cc:Agent>
      <dc:title>Matplotlib v3.7.2, https://matplotlib.org/</dc:title>
     </cc:Agent>
    </dc:creator>
   </cc:Work>
  </rdf:RDF>
 </metadata>
 <defs>
  <style type="text/css">*{stroke-linejoin: round; stroke-linecap: butt}</style>
 </defs>
 <g id="figure_1">
  <g id="patch_1">
   <path d="M 0 576 
L 576 576 
L 576 0 
L 0 0 
z
" style="fill: #ffffff"/>
  </g>
  <g id="axes_1">
   <g id="patch_2">
    <path d="M 72 512.64 
L 518.4 512.64 
L 518.4 69.12 
L 72 69.12 
z
" style="fill: #ffffff"/>
   </g>
   <g id="matplotlib.axis_1">
    <g id="xtick_1">
     <g id="line2d_1">
      <path d="M 94.96465 512.64 
L 94.96465 69.12 
" clip-path="url(#pc9458104cf)" style="fill: none; stroke: #b0b0b0; stroke-width: 0.8; stroke-linecap: square"/>
     </g>
     <g id="line2d_2">
      <defs>
       <path id="m78e6cef3bc" d="M 0 0 
L 0 3.5 
" style="stroke: #000000; stroke-width: 0.8"/>
      </defs>
      <g>
       <use xlink:href="#m78e6cef3bc" x="94.96465" y="512.64" style="stroke: #000000; stroke-width: 0.8"/>
      </g>
     </g>
     <g id="text_1">
      <!-- −3.0 -->
      <g transform="translate(82.823243 527.238438) scale(0.1 -0.1)">
       <defs>
        <path id="DejaVuSans-2212" d="M 678 2272 
L 4684 2272 
L 4684 1741 
L 678 1741 
L 678 2272 
z
" transform="scale(0.015625)"/>
        <path id="DejaVuSans-33" d="M 2597 2516 
Q 3050 2419 3304 2112 
Q 3559 1806 3559 1356 
Q 3559 666 3084 287 
Q 2609 -91 1734 -91 
Q 1441 -91 1130 -33 
Q 819 25 488 141 
L 488 750 
Q 750 597 1062 519 
Q 1375 441 1716 441 
Q 2309 441 2620 675 
Q 2931 909 2931 1356 
Q 2931 1769 2642 2001 
Q 2353 2234 1838 2234 
L 1294 2234 
L 1294 2753 
L 1863 2753 
Q 2328 2753 2575 2939 
Q 2822 3125 2822 3475 
Q 2822 3834 2567 4026 
Q 2313 4219 1838 4219 
Q 1578 4219 1281 4162 
Q 984 4106 628 3988 
L 628 4550 
Q 988 4650 1302 4700 
Q 1616 4750 1894 4750 
Q 2613 4750 3031 4423 
Q 3450 4097 3450 3541 
Q 3450 3153 3228 2886 
Q 3006 2619 2597 2516 
z
" transform="scale(0.015625)"/>
        <path id="DejaVuSans-2e" d="M 684 794 
L 1344 794 
L 1344 0 
L 684 0 
L 684 794 
z
" transform="scale(0.015625)"/>
        <path id="DejaVuSans-30" d="M 2034 4250 
Q 1547 4250 1301 3770 
Q 1056 3291 1056 2328 
Q 1056 1369 1301 889 
Q 1547 409 2034 409 
Q 2525 409 2770 889 
Q 3016 1369 3016 2328 
Q 3016 3291 2770 3770 
Q 2525 4250 2034 4250 
z
M 2034 4750 
Q 2819 4750 3233 4129 
Q 3647 3509 3647 2328 
Q 3647 1150 3233 529 
Q 2819 -91 2034 -91 
Q 1250 -91 836 529 
Q 422 1150 422 2328 
Q 422 3509 836 4129 
Q 1250 4750 2034 4750 
z
" transform="scale(0.015625)"/>
       </defs>
       <use xlink:href="#DejaVuSans-2212"/>
       <use xlink:href="#DejaVuSans-33" x="83.789062"/>
       <use xlink:href="#DejaVuSans-2e" x="147.412109"/>
       <use xlink:href="#DejaVuSans-30" x="179.199219"/>
      </g>
     </g>
    </g>
    <g id="xtick_2">
     <g id="line2d_3">
      <path d="M 152.692726 512.64 
L 152.692726 69.12 
" clip-path="url(#pc9458104cf)" style="fill: none; stroke: #b0b0b0; stroke-width: 0.8; stroke-linecap: square"/>
     </g>
     <g id="line2d_4">
      <g>
       <use xlink:href="#m78e6cef3bc" x="152.692726" y="512.64" style="stroke: #000000; stroke-width: 0.8"/>
      </g>
     </g>
     <g id="text_2">
      <!-- −2.5 -->
      <g transform="translate(140.55132 527.238438) scale(0.1 -0.1)">
       <defs>
        <path id="DejaVuSans-32" d="M 1228 531 
L 3431 531 
L 3431 0 
L 469 0 
L 469 531 
Q 828 903 1448 1529 
Q 2069 2156 2228 2338 
Q 2531 2678 2651 2914 
Q 2772 3150 2772 3378 
Q 2772 3750 2511 3984 
Q 2250 4219 1831 4219 
Q 1534 4219 1204 4116 
Q 875 4013 500 3803 
L 500 4441 
Q 881 4594 1212 4672 
Q 1544 4750 1819 4750 
Q 2544 4750 2975 4387 
Q 3406 4025 3406 3419 
Q 3406 3131 3298 2873 
Q 3191 2616 2906 2266 
Q 2828 2175 2409 1742 
Q 1991 1309 1228 531 
z
" transform="scale(0.015625)"/>
        <path id="DejaVuSans-35" d="M 691 4666 
L 3169 4666 
L 3169 4134 
L 1269 4134 
L 1269 2991 
Q 1406 3038 1543 3061 
Q 1681 3084 1819 3084 
Q 2600 3084 3056 2656 
Q 3513 2228 3513 1497 
Q 3513 744 3044 326 
Q 2575 -91 1722 -91 
Q 1428 -91 1123 -41 
Q 819 9 494 109 
L 494 744 
Q 775 591 1075 516 
Q 1375 441 1709 441 
Q 2250 441 2565 725 
Q 2881 1009 2881 1497 
Q 2881 1984 2565 2268 
Q 2250 2553 1709 2553 
Q 1456 2553 1204 2497 
Q 953 2441 691 2322 
L 691 4666 
z
" transform="scale(0.015625)"/>
       </defs>
       <use xlink:href="#DejaVuSans-2212"/>
       <use xlink:href="#DejaVuSans-32" x="83.789062"/>
       <use xlink:href="#DejaVuSans-2e" x="147.412109"/>
       <use xlink:href="#DejaVuSans-35" x="179.199219"/>
      </g>
     </g>
    </g>
    <g id="xtick_3">
     <g id="line2d_5">
      <path d="M 210.420802 512.64 
L 210.420802 69.12 
" clip-path="url(#pc9458104cf)" style="fill: none; stroke: #b0b0b0; stroke-width: 0.8; stroke-linecap: square"/>
     </g>
     <g id="line2d_6">
      <g>
       <use xlink:href="#m78e6cef3bc" x="210.420802" y="512.64" style="stroke: #000000; stroke-width: 0.8"/>
      </g>
     </g>
     <g id="text_3">
      <!-- −2.0 -->
      <g transform="translate(198.279396 527.238438) scale(0.1 -0.1)">
       <use xlink:href="#DejaVuSans-2212"/>
       <use xlink:href="#DejaVuSans-32" x="83.789062"/>
       <use xlink:href="#DejaVuSans-2e" x="147.412109"/>
       <use xlink:href="#DejaVuSans-30" x="179.199219"/>
      </g>
     </g>
    </g>
    <g id="xtick_4">
     <g id="line2d_7">
      <path d="M 268.148878 512.64 
L 268.148878 69.12 
" clip-path="url(#pc9458104cf)" style="fill: none; stroke: #b0b0b0; stroke-width: 0.8; stroke-linecap: square"/>
     </g>
     <g id="line2d_8">
      <g>
       <use xlink:href="#m78e6cef3bc" x="268.148878" y="512.64" style="stroke: #000000; stroke-width: 0.8"/>
      </g>
     </g>
     <g id="text_4">
      <!-- −1.5 -->
      <g transform="translate(256.007472 527.238438) scale(0.1 -0.1)">
       <defs>
        <path id="DejaVuSans-31" d="M 794 531 
L 1825 531 
L 1825 4091 
L 703 3866 
L 703 4441 
L 1819 4666 
L 2450 4666 
L 2450 531 
L 3481 531 
L 3481 0 
L 794 0 
L 794 531 
z
" transform="scale(0.015625)"/>
       </defs>
       <use xlink:href="#DejaVuSans-2212"/>
       <use xlink:href="#DejaVuSans-31" x="83.789062"/>
       <use xlink:href="#DejaVuSans-2e" x="147.412109"/>
       <use xlink:href="#DejaVuSans-35" x="179.199219"/>
      </g>
     </g>
    </g>
    <g id="xtick_5">
     <g id="line2d_9">
      <path d="M 325.876954 512.64 
L 325.876954 69.12 
" clip-path="url(#pc9458104cf)" style="fill: none; stroke: #b0b0b0; stroke-width: 0.8; stroke-linecap: square"/>
     </g>
     <g id="line2d_10">
      <g>
       <use xlink:href="#m78e6cef3bc" x="325.876954" y="512.64" style="stroke: #000000; stroke-width: 0.8"/>
      </g>
     </g>
     <g id="text_5">
      <!-- −1.0 -->
      <g transform="translate(313.735548 527.238438) scale(0.1 -0.1)">
       <use xlink:href="#DejaVuSans-2212"/>
       <use xlink:href="#DejaVuSans-31" x="83.789062"/>
       <use xlink:href="#DejaVuSans-2e" x="147.412109"/>
       <use xlink:href="#DejaVuSans-30" x="179.199219"/>
      </g>
     </g>
    </g>
    <g id="xtick_6">
     <g id="line2d_11">
      <path d="M 383.60503 512.64 
L 383.60503 69.12 
" clip-path="url(#pc9458104cf)" style="fill: none; stroke: #b0b0b0; stroke-width: 0.8; stroke-linecap: square"/>
     </g>
     <g id="line2d_12">
      <g>
       <use xlink:href="#m78e6cef3bc" x="383.60503" y="512.64" style="stroke: #000000; stroke-width: 0.8"/>
      </g>
     </g>
     <g id="text_6">
      <!-- −0.5 -->
      <g transform="translate(371.463624 527.238438) scale(0.1 -0.1)">
       <use xlink:href="#DejaVuSans-2212"/>
       <use xlink:href="#DejaVuSans-30" x="83.789062"/>
       <use xlink:href="#DejaVuSans-2e" x="147.412109"/>
       <use xlink:href="#DejaVuSans-35" x="179.199219"/>
      </g>
     </g>
    </g>
    <g id="xtick_7">
     <g id="line2d_13">
      <path d="M 441.333107 512.64 
L 441.333107 69.12 
" clip-path="url(#pc9458104cf)" style="fill: none; stroke: #b0b0b0; stroke-width: 0.8; stroke-linecap: square"/>
     </g>
     <g id="line2d_14">
      <g>
       <use xlink:href="#m78e6cef3bc" x="441.333107" y="512.64" style="stroke: #000000; stroke-width: 0.8"/>
      </g>
     </g>
     <g id="text_7">
      <!-- 0.0 -->
      <g transform="translate(433.381544 527.238438) scale(0.1 -0.1)">
       <use xlink:href="#DejaVuSans-30"/>
       <use xlink:href="#DejaVuSans-2e" x="63.623047"/>
       <use xlink:href="#DejaVuSans-30" x="95.410156"/>
      </g>
     </g>
    </g>
    <g id="xtick_8">
     <g id="line2d_15">
      <path d="M 499.061183 512.64 
L 499.061183 69.12 
" clip-path="url(#pc9458104cf)" style="fill: none; stroke: #b0b0b0; stroke-width: 0.8; stroke-linecap: square"/>
     </g>
     <g id="line2d_16">
      <g>
       <use xlink:href="#m78e6cef3bc" x="499.061183" y="512.64" style="stroke: #000000; stroke-width: 0.8"/>
      </g>
     </g>
     <g id="text_8">
      <!-- 0.5 -->
      <g transform="translate(491.10962 527.238438) scale(0.1 -0.1)">
       <use xlink:href="#DejaVuSans-30"/>
       <use xlink:href="#DejaVuSans-2e" x="63.623047"/>
       <use xlink:href="#DejaVuSans-35" x="95.410156"/>
      </g>
     </g>
    </g>
    <g id="text_9">
     <!-- X axis -->
     <g transform="translate(280.16875 540.916563) scale(0.1 -0.1)">
      <defs>
       <path id="DejaVuSans-58" d="M 403 4666 
L 1081 4666 
L 2241 2931 
L 3406 4666 
L 4084 4666 
L 2584 2425 
L 4184 0 
L 3506 0 
L 2194 1984 
L 872 0 
L 191 0 
L 1856 2491 
L 403 4666 
z
" transform="scale(0.015625)"/>
       <path id="DejaVuSans-20" transform="scale(0.015625)"/>
       <path id="DejaVuSans-61" d="M 2194 1759 
Q 1497 1759 1228 1600 
Q 959 1441 959 1056 
Q 959 750 1161 570 
Q 1363 391 1709 391 
Q 2188 391 2477 730 
Q 2766 1069 2766 1631 
L 2766 1759 
L 2194 1759 
z
M 3341 1997 
L 3341 0 
L 2766 0 
L 2766 531 
Q 2569 213 2275 61 
Q 1981 -91 1556 -91 
Q 1019 -91 701 211 
Q 384 513 384 1019 
Q 384 1609 779 1909 
Q 1175 2209 1959 2209 
L 2766 2209 
L 2766 2266 
Q 2766 2663 2505 2880 
Q 2244 3097 1772 3097 
Q 1472 3097 1187 3025 
Q 903 2953 641 2809 
L 641 3341 
Q 956 3463 1253 3523 
Q 1550 3584 1831 3584 
Q 2591 3584 2966 3190 
Q 3341 2797 3341 1997 
z
" transform="scale(0.015625)"/>
       <path id="DejaVuSans-78" d="M 3513 3500 
L 2247 1797 
L 3578 0 
L 2900 0 
L 1881 1375 
L 863 0 
L 184 0 
L 1544 1831 
L 300 3500 
L 978 3500 
L 1906 2253 
L 2834 3500 
L 3513 3500 
z
" transform="scale(0.015625)"/>
       <path id="DejaVuSans-69" d="M 603 3500 
L 1178 3500 
L 1178 0 
L 603 0 
L 603 3500 
z
M 603 4863 
L 1178 4863 
L 1178 4134 
L 603 4134 
L 603 4863 
z
" transform="scale(0.015625)"/>
       <path id="DejaVuSans-73" d="M 2834 3397 
L 2834 2853 
Q 2591 2978 2328 3040 
Q 2066 3103 1784 3103 
Q 1356 3103 1142 2972 
Q 928 2841 928 2578 
Q 928 2378 1081 2264 
Q 1234 2150 1697 2047 
L 1894 2003 
Q 2506 1872 2764 1633 
Q 3022 1394 3022 966 
Q 3022 478 2636 193 
Q 2250 -91 1575 -91 
Q 1294 -91 989 -36 
Q 684 19 347 128 
L 347 722 
Q 666 556 975 473 
Q 1284 391 1588 391 
Q 1994 391 2212 530 
Q 2431 669 2431 922 
Q 2431 1156 2273 1281 
Q 2116 1406 1581 1522 
L 1381 1569 
Q 847 1681 609 1914 
Q 372 2147 372 2553 
Q 372 3047 722 3315 
Q 1072 3584 1716 3584 
Q 2034 3584 2315 3537 
Q 2597 3491 2834 3397 
z
" transform="scale(0.015625)"/>
      </defs>
      <use xlink:href="#DejaVuSans-58"/>
      <use xlink:href="#DejaVuSans-20" x="68.505859"/>
      <use xlink:href="#DejaVuSans-61" x="100.292969"/>
      <use xlink:href="#DejaVuSans-78" x="161.572266"/>
      <use xlink:href="#DejaVuSans-69" x="220.751953"/>
      <use xlink:href="#DejaVuSans-73" x="248.535156"/>
     </g>
    </g>
   </g>
   <g id="matplotlib.axis_2">
    <g id="ytick_1">
     <g id="line2d_17">
      <path d="M 72 467.714552 
L 518.4 467.714552 
" clip-path="url(#pc9458104cf)" style="fill: none; stroke: #b0b0b0; stroke-width: 0.8; stroke-linecap: square"/>
     </g>
     <g id="line2d_18">
      <defs>
       <path id="m8d0b18ebea" d="M 0 0 
L -3.5 0 
" style="stroke: #000000; stroke-width: 0.8"/>
      </defs>
      <g>
       <use xlink:href="#m8d0b18ebea" x="72" y="467.714552" style="stroke: #000000; stroke-width: 0.8"/>
      </g>
     </g>
     <g id="text_10">
      <!-- −3.0 -->
      <g transform="translate(40.717187 471.513771) scale(0.1 -0.1)">
       <use xlink:href="#DejaVuSans-2212"/>
       <use xlink:href="#DejaVuSans-33" x="83.789062"/>
       <use xlink:href="#DejaVuSans-2e" x="147.412109"/>
       <use xlink:href="#DejaVuSans-30" x="179.199219"/>
      </g>
     </g>
    </g>
    <g id="ytick_2">
     <g id="line2d_19">
      <path d="M 72 408.584153 
L 518.4 408.584153 
" clip-path="url(#pc9458104cf)" style="fill: none; stroke: #b0b0b0; stroke-width: 0.8; stroke-linecap: square"/>
     </g>
     <g id="line2d_20">
      <g>
       <use xlink:href="#m8d0b18ebea" x="72" y="408.584153" style="stroke: #000000; stroke-width: 0.8"/>
      </g>
     </g>
     <g id="text_11">
      <!-- −2.5 -->
      <g transform="translate(40.717187 412.383372) scale(0.1 -0.1)">
       <use xlink:href="#DejaVuSans-2212"/>
       <use xlink:href="#DejaVuSans-32" x="83.789062"/>
       <use xlink:href="#DejaVuSans-2e" x="147.412109"/>
       <use xlink:href="#DejaVuSans-35" x="179.199219"/>
      </g>
     </g>
    </g>
    <g id="ytick_3">
     <g id="line2d_21">
      <path d="M 72 349.453755 
L 518.4 349.453755 
" clip-path="url(#pc9458104cf)" style="fill: none; stroke: #b0b0b0; stroke-width: 0.8; stroke-linecap: square"/>
     </g>
     <g id="line2d_22">
      <g>
       <use xlink:href="#m8d0b18ebea" x="72" y="349.453755" style="stroke: #000000; stroke-width: 0.8"/>
      </g>
     </g>
     <g id="text_12">
      <!-- −2.0 -->
      <g transform="translate(40.717187 353.252973) scale(0.1 -0.1)">
       <use xlink:href="#DejaVuSans-2212"/>
       <use xlink:href="#DejaVuSans-32" x="83.789062"/>
       <use xlink:href="#DejaVuSans-2e" x="147.412109"/>
       <use xlink:href="#DejaVuSans-30" x="179.199219"/>
      </g>
     </g>
    </g>
    <g id="ytick_4">
     <g id="line2d_23">
      <path d="M 72 290.323356 
L 518.4 290.323356 
" clip-path="url(#pc9458104cf)" style="fill: none; stroke: #b0b0b0; stroke-width: 0.8; stroke-linecap: square"/>
     </g>
     <g id="line2d_24">
      <g>
       <use xlink:href="#m8d0b18ebea" x="72" y="290.323356" style="stroke: #000000; stroke-width: 0.8"/>
      </g>
     </g>
     <g id="text_13">
      <!-- −1.5 -->
      <g transform="translate(40.717187 294.122575) scale(0.1 -0.1)">
       <use xlink:href="#DejaVuSans-2212"/>
       <use xlink:href="#DejaVuSans-31" x="83.789062"/>
       <use xlink:href="#DejaVuSans-2e" x="147.412109"/>
       <use xlink:href="#DejaVuSans-35" x="179.199219"/>
      </g>
     </g>
    </g>
    <g id="ytick_5">
     <g id="line2d_25">
      <path d="M 72 231.192957 
L 518.4 231.192957 
" clip-path="url(#pc9458104cf)" style="fill: none; stroke: #b0b0b0; stroke-width: 0.8; stroke-linecap: square"/>
     </g>
     <g id="line2d_26">
      <g>
       <use xlink:href="#m8d0b18ebea" x="72" y="231.192957" style="stroke: #000000; stroke-width: 0.8"/>
      </g>
     </g>
     <g id="text_14">
      <!-- −1.0 -->
      <g transform="translate(40.717187 234.992176) scale(0.1 -0.1)">
       <use xlink:href="#DejaVuSans-2212"/>
       <use xlink:href="#DejaVuSans-31" x="83.789062"/>
       <use xlink:href="#DejaVuSans-2e" x="147.412109"/>
       <use xlink:href="#DejaVuSans-30" x="179.199219"/>
      </g>
     </g>
    </g>
    <g id="ytick_6">
     <g id="line2d_27">
      <path d="M 72 172.062558 
L 518.4 172.062558 
" clip-path="url(#pc9458104cf)" style="fill: none; stroke: #b0b0b0; stroke-width: 0.8; stroke-linecap: square"/>
     </g>
     <g id="line2d_28">
      <g>
       <use xlink:href="#m8d0b18ebea" x="72" y="172.062558" style="stroke: #000000; stroke-width: 0.8"/>
      </g>
     </g>
     <g id="text_15">
      <!-- −0.5 -->
      <g transform="translate(40.717187 175.861777) scale(0.1 -0.1)">
       <use xlink:href="#DejaVuSans-2212"/>
       <use xlink:href="#DejaVuSans-30" x="83.789062"/>
       <use xlink:href="#DejaVuSans-2e" x="147.412109"/>
       <use xlink:href="#DejaVuSans-35" x="179.199219"/>
      </g>
     </g>
    </g>
    <g id="ytick_7">
     <g id="line2d_29">
      <path d="M 72 112.93216 
L 518.4 112.93216 
" clip-path="url(#pc9458104cf)" style="fill: none; stroke: #b0b0b0; stroke-width: 0.8; stroke-linecap: square"/>
     </g>
     <g id="line2d_30">
      <g>
       <use xlink:href="#m8d0b18ebea" x="72" y="112.93216" style="stroke: #000000; stroke-width: 0.8"/>
      </g>
     </g>
     <g id="text_16">
      <!-- 0.0 -->
      <g transform="translate(49.096875 116.731378) scale(0.1 -0.1)">
       <use xlink:href="#DejaVuSans-30"/>
       <use xlink:href="#DejaVuSans-2e" x="63.623047"/>
       <use xlink:href="#DejaVuSans-30" x="95.410156"/>
      </g>
     </g>
    </g>
    <g id="text_17">
     <!-- Y axis -->
     <g transform="translate(34.6375 305.540156) rotate(-90) scale(0.1 -0.1)">
      <defs>
       <path id="DejaVuSans-59" d="M -13 4666 
L 666 4666 
L 1959 2747 
L 3244 4666 
L 3922 4666 
L 2272 2222 
L 2272 0 
L 1638 0 
L 1638 2222 
L -13 4666 
z
" transform="scale(0.015625)"/>
      </defs>
      <use xlink:href="#DejaVuSans-59"/>
      <use xlink:href="#DejaVuSans-20" x="61.083984"/>
      <use xlink:href="#DejaVuSans-61" x="92.871094"/>
      <use xlink:href="#DejaVuSans-78" x="154.150391"/>
      <use xlink:href="#DejaVuSans-69" x="213.330078"/>
      <use xlink:href="#DejaVuSans-73" x="241.113281"/>
     </g>
    </g>
   </g>
   <g id="line2d_31">
    <path d="M 94.96465 467.714552 
L 92.290909 467.676346 
L 129.106706 468.689882 
L 154.502508 469.179515 
L 179.901682 469.429644 
L 243.402025 469.698589 
L 395.80254 470.414172 
L 443.203587 470.623029 
L 441.331034 470.623324 
" clip-path="url(#pc9458104cf)" style="fill: none; stroke: #1f77b4; stroke-linecap: square"/>
   </g>
   <g id="line2d_32">
    <defs>
     <path id="md5d525c065" d="M 0 3 
C 0.795609 3 1.55874 2.683901 2.12132 2.12132 
C 2.683901 1.55874 3 0.795609 3 0 
C 3 -0.795609 2.683901 -1.55874 2.12132 -2.12132 
C 1.55874 -2.683901 0.795609 -3 0 -3 
C -0.795609 -3 -1.55874 -2.683901 -2.12132 -2.12132 
C -2.683901 -1.55874 -3 -0.795609 -3 0 
C -3 0.795609 -2.683901 1.55874 -2.12132 2.12132 
C -1.55874 2.683901 -0.795609 3 0 3 
z
" style="stroke: #ff0000"/>
    </defs>
    <g clip-path="url(#pc9458104cf)">
     <use xlink:href="#md5d525c065" x="94.96465" y="467.714552" style="fill: #ff0000; stroke: #ff0000"/>
    </g>
   </g>
   <g id="line2d_33">
    <path d="M 94.987741 491.3667 
L 94.941558 444.062404 
" clip-path="url(#pc9458104cf)" style="fill: none; stroke: #008000; stroke-width: 1.5; stroke-linecap: square"/>
   </g>
   <g id="line2d_34">
    <path d="M 94.96465 467.714552 
L 92.290909 467.676346 
L 129.10593 468.715926 
L 154.5003 469.279158 
L 192.597036 469.823354 
L 230.696338 470.133427 
L 294.196717 470.384211 
L 412.120597 470.533422 
L 441.362043 470.541643 
L 441.319035 470.541643 
" clip-path="url(#pc9458104cf)" style="fill: none; stroke: #ff7f0e; stroke-linecap: square"/>
   </g>
   <g id="line2d_35">
    <g clip-path="url(#pc9458104cf)">
     <use xlink:href="#md5d525c065" x="94.96465" y="467.714552" style="fill: #ff0000; stroke: #ff0000"/>
    </g>
   </g>
   <g id="line2d_36">
    <path d="M 94.987741 491.3667 
L 94.941558 444.062404 
" clip-path="url(#pc9458104cf)" style="fill: none; stroke: #008000; stroke-width: 1.5; stroke-linecap: square"/>
   </g>
   <g id="line2d_37">
    <path d="M 94.96465 467.714552 
L 92.290909 467.676346 
L 141.800928 469.082163 
L 179.892995 469.901355 
L 217.989011 470.49973 
L 268.786776 471.055805 
L 330.758588 471.484567 
L 408.641928 471.765152 
L 441.308508 471.791837 
L 441.291283 471.791836 
" clip-path="url(#pc9458104cf)" style="fill: none; stroke: #2ca02c; stroke-linecap: square"/>
   </g>
   <g id="line2d_38">
    <g clip-path="url(#pc9458104cf)">
     <use xlink:href="#md5d525c065" x="94.96465" y="467.714552" style="fill: #ff0000; stroke: #ff0000"/>
    </g>
   </g>
   <g id="line2d_39">
    <path d="M 94.987741 491.3667 
L 94.941558 444.062404 
" clip-path="url(#pc9458104cf)" style="fill: none; stroke: #008000; stroke-width: 1.5; stroke-linecap: square"/>
   </g>
   <g id="line2d_40">
    <path d="M 94.96465 467.714552 
L 92.290909 467.676346 
L 141.800018 469.113824 
L 179.89026 470.018871 
L 230.682707 470.95387 
L 280.192264 471.636557 
L 335.913186 472.179608 
L 392.99987 472.499937 
L 441.379635 472.599639 
L 441.308616 472.59962 
" clip-path="url(#pc9458104cf)" style="fill: none; stroke: #d62728; stroke-linecap: square"/>
   </g>
   <g id="line2d_41">
    <g clip-path="url(#pc9458104cf)">
     <use xlink:href="#md5d525c065" x="94.96465" y="467.714552" style="fill: #ff0000; stroke: #ff0000"/>
    </g>
   </g>
   <g id="line2d_42">
    <path d="M 94.987741 491.3667 
L 94.941558 444.062404 
" clip-path="url(#pc9458104cf)" style="fill: none; stroke: #008000; stroke-width: 1.5; stroke-linecap: square"/>
   </g>
   <g id="line2d_43">
    <path d="M 94.96465 467.714552 
L 92.290909 467.676346 
L 103.8762 467.298903 
L 116.383078 465.101653 
L 128.460487 461.113507 
L 139.865306 455.414747 
L 150.367955 448.12009 
L 159.757013 439.376379 
L 168.280233 429.636731 
L 176.354205 419.596522 
L 184.239494 409.371407 
L 192.229169 399.259527 
L 200.38023 389.282725 
L 208.754139 379.502753 
L 217.315864 369.894001 
L 226.016262 360.417526 
L 243.650097 341.690511 
L 270.148809 313.648761 
L 296.424061 285.387685 
L 331.249662 247.504281 
L 357.251056 218.978609 
L 374.440765 199.824381 
L 382.983148 190.198108 
L 391.620757 180.651219 
L 400.520179 171.371144 
L 409.825407 162.504876 
L 419.691244 154.317133 
L 430.319624 147.14315 
L 441.797698 141.600843 
L 453.926007 137.778195 
L 460.177034 136.720883 
L 465.875912 136.636152 
L 471.529137 137.37839 
L 463.830096 136.003116 
L 455.004259 135.482752 
L 443.139283 136.100101 
L 438.781434 135.511565 
L 435.429458 135.463676 
L 432.094929 135.816782 
L 435.554454 135.353642 
L 439.606367 135.267711 
L 443.643891 135.627596 
L 442.053055 135.458546 
L 439.944501 135.45528 
L 437.847367 135.679781 
L 440.470131 135.349825 
L 443.503543 135.316728 
L 446.521962 135.627033 
L 443.85706 135.29204 
L 440.689328 135.245316 
L 437.534905 135.546095 
L 439.780362 135.287275 
L 442.509439 135.269091 
L 445.225006 135.547482 
L 442.768593 135.247794 
L 439.853493 135.215483 
L 436.951895 135.504347 
L 439.432545 135.206353 
L 442.390753 135.177479 
L 445.334995 135.472977 
L 442.938142 135.18355 
L 440.064971 135.150535 
L 437.204611 135.430091 
L 439.632399 135.144455 
L 442.530445 135.119905 
L 445.414683 135.410369 
L 442.999853 135.11881 
L 440.112178 135.083992 
L 437.23706 135.361723 
L 439.628351 135.083891 
L 442.488684 135.062374 
L 445.335207 135.350728 
L 442.923915 135.058543 
L 440.043288 135.022118 
L 437.174974 135.297054 
L 439.564078 135.020156 
L 442.422291 134.995463 
L 445.267407 135.276503 
L 442.873908 134.994591 
L 440.012409 134.966319 
L 437.163851 135.246188 
L 439.583545 134.961165 
L 442.473153 134.932968 
L 445.349652 135.215975 
L 442.994665 134.937816 
L 440.171576 134.906945 
L 437.360762 135.178071 
L 439.73831 134.90312 
L 442.578907 134.879864 
L 445.40628 135.161246 
L 443.01 134.875851 
L 440.146529 134.841603 
L 437.295179 135.113353 
L 439.64425 134.843792 
L 442.458598 134.819947 
L 445.260206 135.09495 
L 442.903364 134.818808 
L 440.084484 134.788515 
L 437.277746 135.057914 
L 439.646531 134.784851 
L 442.4785 134.758409 
L 445.297994 135.031673 
L 442.952082 134.760065 
L 440.143155 134.732433 
L 437.346487 135.00236 
L 439.714543 134.729122 
L 442.544768 134.703429 
L 445.362345 134.978382 
L 442.994668 134.701607 
L 440.162198 134.669966 
L 437.341629 134.937523 
L 439.669971 134.672782 
L 442.459857 134.649777 
L 445.237225 134.921157 
L 442.880252 134.646558 
L 440.063 134.616345 
L 437.25774 134.884024 
L 439.602014 134.615207 
L 442.408203 134.587633 
L 445.20242 134.854288 
L 442.893765 134.590852 
L 440.12655 134.564123 
L 437.371125 134.826856 
L 439.701606 134.561368 
L 442.48867 134.535175 
L 444.961702 134.757411 
L 444.961702 134.757411 
" clip-path="url(#pc9458104cf)" style="fill: none; stroke: #9467bd; stroke-linecap: square"/>
   </g>
   <g id="line2d_44">
    <g clip-path="url(#pc9458104cf)">
     <use xlink:href="#md5d525c065" x="94.96465" y="467.714552" style="fill: #ff0000; stroke: #ff0000"/>
    </g>
   </g>
   <g id="line2d_45">
    <path d="M 94.987741 491.3667 
L 94.941558 444.062404 
" clip-path="url(#pc9458104cf)" style="fill: none; stroke: #008000; stroke-width: 1.5; stroke-linecap: square"/>
   </g>
   <g id="line2d_46">
    <path d="M 94.96465 467.714552 
L 92.290909 467.676346 
L 103.835806 467.411347 
L 116.407736 465.622636 
L 128.682154 462.312786 
L 140.539297 457.652249 
L 151.91365 451.8761 
L 162.70928 445.033215 
L 172.967753 437.346466 
L 182.801752 429.117092 
L 192.268354 420.441112 
L 201.453057 411.457566 
L 210.394975 402.218545 
L 219.152787 392.797857 
L 227.752737 383.225058 
L 236.233671 373.542054 
L 252.913208 353.920398 
L 269.325694 334.063814 
L 285.53858 314.035938 
L 301.57029 293.855627 
L 341.403589 243.200555 
L 349.59001 233.255178 
L 357.922546 223.437804 
L 366.427118 213.776698 
L 375.150732 204.321488 
L 384.156119 195.149384 
L 393.804058 186.601625 
L 404.37289 179.403745 
L 414.726562 174.090179 
L 425.517817 170.112364 
L 433.343051 168.260345 
L 440.991894 167.476629 
L 448.676503 167.673635 
L 451.475252 168.064839 
L 453.733704 168.681441 
L 455.908336 169.558967 
L 451.429501 167.641776 
L 446.230493 166.178464 
L 440.581879 165.364091 
L 440.951075 165.4613 
L 437.950591 164.485601 
L 434.620212 163.85676 
L 431.239739 163.650028 
L 435.104136 163.984553 
L 437.212639 164.488763 
L 435.350062 164.022945 
L 433.105491 163.743143 
L 430.844364 163.738331 
L 433.188039 163.672132 
L 435.904665 163.891627 
L 438.584197 164.399744 
L 440.534211 164.982585 
L 442.351889 165.738544 
L 444.086763 166.676685 
L 440.513053 164.706043 
L 436.287347 163.062778 
L 431.890149 161.990937 
L 428.766836 161.639597 
L 425.763265 161.692311 
L 422.789025 162.124441 
L 426.544418 161.451176 
L 430.892976 161.170952 
L 435.245814 161.369591 
L 438.648474 161.892875 
L 441.889786 162.75556 
L 445.02639 163.957596 
L 442.086506 162.7903 
L 438.507133 161.860024 
L 434.844168 161.380195 
L 432.090916 161.351643 
L 429.447106 161.644526 
L 426.854076 162.248498 
L 430.543297 161.287616 
L 434.825425 160.690767 
L 439.145779 160.58489 
L 442.463463 160.870702 
L 445.633913 161.502726 
L 448.720616 162.477013 
L 445.618156 161.44135 
L 441.891756 160.674039 
L 438.103656 160.354169 
L 439.947312 160.566127 
L 441.0553 160.840829 
L 438.618487 160.213297 
L 435.836486 159.836661 
L 433.030701 159.787441 
L 437.163076 159.96828 
L 439.399068 160.393777 
L 441.150274 160.905692 
L 442.804399 161.567097 
L 444.391405 162.383 
L 440.989567 160.610744 
L 436.984954 159.131019 
L 432.83291 158.167738 
L 429.862849 157.849886 
L 427.004387 157.89758 
L 424.171228 158.289212 
L 427.692332 157.690867 
L 431.780431 157.436617 
L 435.872622 157.608474 
L 439.120465 158.07709 
L 442.227459 158.853574 
L 445.245227 159.938141 
L 442.45927 158.904946 
L 439.068251 158.082049 
L 435.607208 157.66521 
L 432.974669 157.65014 
L 430.441865 157.926441 
L 427.953922 158.485594 
L 431.426918 157.617443 
L 435.466593 157.066089 
L 439.540479 156.95309 
L 442.680176 157.195467 
L 445.687467 157.750399 
L 448.624377 158.614619 
L 445.693449 157.703842 
L 442.174435 157.030227 
L 438.604489 156.756459 
L 435.849372 156.846411 
L 433.201183 157.225858 
L 430.606747 157.888914 
L 433.846957 156.991001 
L 437.656745 156.372724 
L 441.509073 156.171988 
L 444.474354 156.330512 
L 447.319851 156.787747 
L 449.804317 157.442854 
L 449.804317 157.442854 
" clip-path="url(#pc9458104cf)" style="fill: none; stroke: #8c564b; stroke-linecap: square"/>
   </g>
   <g id="line2d_47">
    <g clip-path="url(#pc9458104cf)">
     <use xlink:href="#md5d525c065" x="94.96465" y="467.714552" style="fill: #ff0000; stroke: #ff0000"/>
    </g>
   </g>
   <g id="line2d_48">
    <path d="M 94.987741 491.3667 
L 94.941558 444.062404 
" clip-path="url(#pc9458104cf)" style="fill: none; stroke: #008000; stroke-width: 1.5; stroke-linecap: square"/>
   </g>
   <g id="line2d_49">
    <path d="M 94.96465 467.714552 
L 92.290909 467.676346 
L 103.775449 468.780822 
L 116.130072 471.74719 
L 127.950492 476.474641 
L 139.824684 482.029908 
L 151.814663 486.306942 
L 164.118791 489.514089 
L 176.651363 491.593707 
L 189.317501 492.48 
L 202.012386 492.220928 
L 214.64319 490.898426 
L 227.137647 488.577139 
L 239.438401 485.351388 
L 252.070734 482.181243 
L 264.705788 480.978385 
L 277.714737 480.550371 
L 290.334177 479.111391 
L 302.805387 476.666104 
L 315.021953 473.125374 
L 326.90668 468.548072 
L 338.396061 463.012853 
L 349.421186 456.562335 
L 359.919348 449.247389 
L 369.765268 441.034485 
L 378.784647 431.883349 
L 387.002811 421.962345 
L 394.510072 411.473092 
L 401.307379 400.486421 
L 407.415749 389.083656 
L 412.84461 377.324852 
L 417.622896 365.273833 
L 421.79966 352.988542 
L 425.456015 340.531677 
L 428.665275 327.943703 
L 431.537465 315.272463 
L 436.775153 289.810508 
L 440.062389 277.094323 
L 445.033552 265.135472 
L 451.606998 254.017613 
L 457.042042 246.082075 
L 461.740087 238.298179 
L 466.028403 230.269974 
L 468.680125 224.560248 
L 470.852747 218.946471 
L 475.073879 205.753563 
L 478.369541 198.654709 
L 482.476417 192.014425 
L 485.868602 187.73614 
L 489.575814 184.072997 
L 493.680527 180.885418 
L 495.267123 179.906115 
L 496.65755 179.272476 
L 498.109091 178.80421 
L 497.092415 178.996362 
L 495.80812 179.117336 
L 494.518502 179.101282 
L 491.747853 178.782841 
L 488.866856 178.194668 
L 486.047011 177.351041 
L 482.669771 176.04083 
L 479.317825 174.491496 
L 470.813116 169.846762 
L 465.21126 167.335381 
L 459.434145 165.282404 
L 454.859288 164.053534 
L 450.34005 163.227109 
L 445.410517 162.746277 
L 445.835354 162.853935 
L 446.470118 163.098572 
L 443.974978 162.039671 
L 441.15046 161.103986 
L 438.261219 160.405763 
L 435.976282 160.045782 
L 433.736223 159.878999 
L 431.4903 159.893633 
L 434.81699 159.935213 
L 438.244627 160.423374 
L 441.328412 161.300342 
L 437.517896 160.238611 
L 435.408625 159.908205 
L 436.999557 160.181095 
L 437.912778 160.417793 
L 436.464901 160.040905 
L 434.772397 159.735919 
L 433.061976 159.565486 
L 435.543416 159.852079 
L 438.060797 160.454156 
L 440.284143 161.293271 
L 436.141813 159.787574 
L 433.852523 159.256813 
L 432.031279 158.987571 
L 430.245615 158.871175 
L 428.456544 158.898922 
L 432.421335 158.905893 
L 434.561677 159.119174 
L 436.399428 159.426356 
L 438.185662 159.848425 
L 439.941645 160.387468 
L 438.394833 159.907632 
L 436.503405 159.475192 
L 434.584874 159.194722 
L 436.432668 159.491342 
L 437.46927 159.749805 
L 436.113716 159.410105 
L 434.512081 159.134615 
L 432.894604 158.98499 
L 435.476803 159.26439 
L 438.076902 159.864943 
L 440.365973 160.707065 
L 436.293074 159.263713 
L 434.042364 158.758014 
L 432.245276 158.50348 
L 430.48322 158.398044 
L 428.718501 158.433552 
L 432.675608 158.42301 
L 434.578935 158.596458 
L 434.578935 158.596458 
" clip-path="url(#pc9458104cf)" style="fill: none; stroke: #e377c2; stroke-linecap: square"/>
   </g>
   <g id="line2d_50">
    <g clip-path="url(#pc9458104cf)">
     <use xlink:href="#md5d525c065" x="94.96465" y="467.714552" style="fill: #ff0000; stroke: #ff0000"/>
    </g>
   </g>
   <g id="line2d_51">
    <path d="M 94.987741 491.3667 
L 94.941558 444.062404 
" clip-path="url(#pc9458104cf)" style="fill: none; stroke: #008000; stroke-width: 1.5; stroke-linecap: square"/>
   </g>
   <g id="line2d_52">
    <path d="M 94.96465 467.714552 
L 92.290909 467.676346 
L 103.76343 468.727364 
L 116.160342 471.509621 
L 128.093318 475.934949 
L 140.079839 481.105606 
L 152.159434 485.111197 
L 164.511688 488.120456 
L 175.787488 489.909423 
L 187.039644 490.739561 
L 199.607166 490.62677 
L 212.255945 489.495598 
L 224.78287 487.371657 
L 237.120935 484.300096 
L 249.208278 480.316415 
L 273.026433 470.569318 
L 285.31648 467.322047 
L 298.007991 464.598804 
L 310.187568 460.92327 
L 322.04655 456.276716 
L 333.482141 450.626678 
L 345.097831 444.749948 
L 357.043139 440.351027 
L 369.371065 437.238716 
L 381.93021 435.338643 
L 390.471256 434.271097 
L 398.31902 432.523233 
L 405.326942 430.83996 
L 412.238685 429.925023 
L 418.464495 429.723849 
L 424.605573 430.14347 
L 426.637928 430.467414 
L 428.228063 430.903326 
L 426.202263 430.104551 
L 423.910322 428.952434 
L 419.035845 425.847678 
L 414.21589 422.086428 
L 407.914744 416.07622 
L 402.033539 409.280929 
L 396.823477 401.933422 
L 391.028719 391.876325 
L 386.014516 381.099915 
L 381.960003 369.907858 
L 378.693676 357.779929 
L 376.380376 345.359158 
L 375.054325 332.787555 
L 374.633148 320.82111 
L 374.896739 308.921024 
L 376.785357 284.56671 
L 376.490183 272.169261 
L 374.993663 259.863228 
L 372.867477 250.176325 
L 369.901597 240.984453 
L 366.081951 232.129376 
L 364.076311 227.876114 
L 362.5817 224.01132 
L 361.347813 220.051142 
L 360.589975 216.905175 
L 360.059806 213.803935 
L 359.735369 210.673095 
L 359.584394 207.049431 
L 359.629629 203.375131 
L 360.218268 194.014322 
L 360.001763 188.194287 
L 359.225689 182.424531 
L 358.224948 178.113898 
L 356.859477 174.057037 
L 355.11683 170.154708 
L 354.133025 168.392536 
L 353.11201 166.923448 
L 351.960996 165.558906 
L 352.433423 165.958695 
L 352.771474 166.187158 
L 354.379442 167.067533 
L 356.183145 167.867044 
L 358.047137 168.505189 
L 360.819114 169.196006 
L 363.722325 169.681642 
L 366.65366 169.934004 
L 370.000377 169.968928 
L 373.382321 169.775681 
L 376.744322 169.35324 
L 380.185399 168.704038 
L 383.60027 167.874395 
L 391.83379 165.367939 
L 396.888054 164.102773 
L 402.00025 163.111441 
L 406.309597 162.512325 
L 410.558679 162.15695 
L 414.820165 162.032262 
L 417.996822 162.108639 
L 421.056329 162.351487 
L 426.154636 163.145738 
L 430.004087 164.189952 
L 432.122064 164.99504 
L 433.112893 165.457237 
L 430.411645 164.316869 
L 427.645289 163.5427 
L 425.142763 163.197741 
L 430.949591 164.162115 
L 433.598587 165.029187 
L 435.480605 165.900096 
L 430.525082 163.752129 
L 427.603288 163.021613 
L 426.130858 162.807353 
L 428.608336 163.192446 
L 431.17037 163.845364 
L 433.52569 164.703747 
L 431.073232 163.838356 
L 429.69981 163.494168 
L 431.990911 164.146979 
L 434.124721 165.072647 
L 434.124721 165.072647 
" clip-path="url(#pc9458104cf)" style="fill: none; stroke: #7f7f7f; stroke-linecap: square"/>
   </g>
   <g id="line2d_53">
    <g clip-path="url(#pc9458104cf)">
     <use xlink:href="#md5d525c065" x="94.96465" y="467.714552" style="fill: #ff0000; stroke: #ff0000"/>
    </g>
   </g>
   <g id="line2d_54">
    <path d="M 94.987741 491.3667 
L 94.941558 444.062404 
" clip-path="url(#pc9458104cf)" style="fill: none; stroke: #008000; stroke-width: 1.5; stroke-linecap: square"/>
   </g>
   <g id="line2d_55">
    <path d="M 94.96465 467.714552 
L 92.290909 467.676346 
L 103.8762 467.298903 
L 116.383078 465.101653 
L 128.460487 461.113507 
L 139.865306 455.414747 
L 150.367954 448.12009 
L 159.757013 439.376379 
L 168.262532 429.627957 
L 176.283662 419.543646 
L 191.948001 399.035095 
L 199.95584 388.936815 
L 208.177344 379.022067 
L 216.582158 369.269229 
L 225.12739 359.645762 
L 242.458626 340.624757 
L 268.517821 312.154115 
L 285.757359 293.046909 
L 311.430338 264.210845 
L 371.2543 196.852287 
L 388.463397 177.713683 
L 397.275652 168.346364 
L 406.444035 159.322551 
L 416.172916 150.964547 
L 426.678214 143.601263 
L 438.060194 137.854796 
L 450.121585 133.816111 
L 457.006438 132.534716 
L 463.430848 132.324385 
L 469.819657 133.04746 
L 467.253281 132.383198 
L 463.882779 131.241761 
L 453.085508 126.392056 
L 444.958112 123.886342 
L 436.59692 122.391663 
L 432.93975 122.135437 
L 429.760447 122.258414 
L 426.608689 122.703486 
L 430.109883 122.0751 
L 434.250383 121.571607 
L 438.411649 121.302092 
L 441.486401 121.269543 
L 444.448862 121.398644 
L 447.40079 121.68504 
L 444.039266 121.424139 
L 440.500933 121.475948 
L 437.296532 121.805194 
L 440.888251 121.483758 
L 443.965145 121.529002 
L 446.018058 121.755076 
L 441.771429 121.347302 
L 438.322792 121.380346 
L 436.214128 121.610943 
L 440.529807 121.1807 
L 444.082397 121.186373 
L 446.328974 121.405763 
L 442.319616 121.045188 
L 438.9892 121.062282 
L 436.848532 121.260745 
L 440.586382 120.948505 
L 443.670724 120.96719 
L 445.620236 121.141763 
L 441.999163 120.855365 
L 439.04887 120.881451 
L 437.234522 121.041893 
L 440.763422 120.76867 
L 444.439175 120.843932 
L 445.279239 120.926768 
L 441.907684 120.686412 
L 438.382912 120.768911 
L 437.572459 120.848234 
L 440.873648 120.614522 
L 444.232659 120.683097 
L 444.978546 120.751948 
L 441.823492 120.543892 
L 438.717031 120.597802 
L 443.568053 120.583766 
L 443.568053 120.583766 
" clip-path="url(#pc9458104cf)" style="fill: none; stroke: #bcbd22; stroke-linecap: square"/>
   </g>
   <g id="line2d_56">
    <g clip-path="url(#pc9458104cf)">
     <use xlink:href="#md5d525c065" x="94.96465" y="467.714552" style="fill: #ff0000; stroke: #ff0000"/>
    </g>
   </g>
   <g id="line2d_57">
    <path d="M 94.987741 491.3667 
L 94.941558 444.062404 
" clip-path="url(#pc9458104cf)" style="fill: none; stroke: #008000; stroke-width: 1.5; stroke-linecap: square"/>
   </g>
   <g id="line2d_58">
    <path d="M 94.96465 467.714552 
L 92.290909 467.676346 
L 103.837918 467.405018 
L 116.406568 465.593452 
L 128.670957 462.245466 
L 140.508826 457.533864 
L 151.853345 451.69672 
L 162.60669 444.784533 
L 172.81096 437.022233 
L 182.580845 428.713192 
L 191.976036 419.955848 
L 201.085931 410.892741 
L 209.950413 401.575743 
L 218.629079 392.07852 
L 227.148218 382.430217 
L 235.546732 372.672135 
L 252.060703 352.904067 
L 268.334789 332.928163 
L 292.511203 302.765499 
L 308.477928 282.531154 
L 340.212627 241.897207 
L 348.334655 231.896613 
L 356.615966 222.033872 
L 365.084302 212.33947 
L 373.775579 202.853657 
L 382.738463 193.637919 
L 392.143797 184.876175 
L 402.170945 176.89787 
L 412.058367 170.451672 
L 422.521849 165.296256 
L 430.578423 162.468048 
L 438.614738 160.76484 
L 446.794946 160.091992 
L 450.343299 160.209526 
L 453.390004 160.695828 
L 456.362424 161.53583 
L 456.015519 161.379972 
L 454.743743 160.669045 
L 449.931233 157.682955 
L 444.486734 155.19169 
L 438.786063 153.399787 
L 434.742299 152.645446 
L 430.824814 152.403514 
L 426.055523 152.761944 
L 425.002025 153.102384 
L 428.222209 151.472855 
L 434.203296 147.941794 
L 438.996895 145.823987 
L 443.990624 144.265124 
L 447.399404 143.594409 
L 450.683975 143.317025 
L 454.823706 143.484671 
L 455.996679 143.776768 
L 452.350701 142.663829 
L 448.261093 141.817046 
L 444.113661 141.350871 
L 441.010898 141.278521 
L 438.020578 141.473732 
L 435.057201 141.928048 
L 436.969358 141.607274 
L 439.352867 141.403394 
L 441.74467 141.400052 
L 443.75828 141.56101 
L 445.716702 141.875885 
L 447.645631 142.344322 
L 445.288047 141.752721 
L 442.499077 141.309618 
L 439.682814 141.120327 
L 441.226403 141.244935 
L 442.154092 141.400586 
L 440.375239 141.102287 
L 438.331189 140.934215 
L 436.280582 140.943142 
L 439.519423 140.988108 
L 442.752244 141.467825 
L 445.548411 142.287334 
L 440.29668 140.856673 
L 437.420606 140.49293 
L 435.292058 140.420501 
L 433.242553 140.536942 
L 431.210683 140.835396 
L 433.666707 140.427883 
L 436.551638 140.182527 
L 439.446474 140.170578 
L 441.783372 140.343477 
L 444.046188 140.687701 
L 446.277744 141.203351 
L 444.20273 140.710524 
L 441.696025 140.33687 
L 439.167228 140.185523 
L 440.961705 140.313931 
L 442.00633 140.479514 
L 440.317797 140.212143 
L 438.361756 140.064022 
L 436.400444 140.080598 
L 439.611044 140.111261 
L 442.814742 140.562753 
L 445.591862 141.346682 
L 440.462585 140.001189 
L 437.656469 139.664181 
L 435.572572 139.601857 
L 433.565357 139.719199 
L 431.575021 140.009991 
L 433.96429 139.617763 
L 436.773537 139.37874 
L 439.592415 139.362543 
L 441.867812 139.5236 
L 444.072013 139.848102 
L 446.247292 140.336151 
L 444.222727 139.869303 
L 441.777579 139.516049 
L 439.312091 139.374635 
L 441.959198 139.629408 
L 441.959198 139.629408 
" clip-path="url(#pc9458104cf)" style="fill: none; stroke: #17becf; stroke-linecap: square"/>
   </g>
   <g id="line2d_59">
    <g clip-path="url(#pc9458104cf)">
     <use xlink:href="#md5d525c065" x="94.96465" y="467.714552" style="fill: #ff0000; stroke: #ff0000"/>
    </g>
   </g>
   <g id="line2d_60">
    <path d="M 94.987741 491.3667 
L 94.941558 444.062404 
" clip-path="url(#pc9458104cf)" style="fill: none; stroke: #008000; stroke-width: 1.5; stroke-linecap: square"/>
   </g>
   <g id="line2d_61">
    <path d="M 94.96465 467.714552 
L 92.290909 467.676346 
L 103.790727 467.562971 
L 116.428286 466.317339 
L 128.906514 463.919396 
L 141.143276 460.446191 
L 153.07725 456.005822 
L 164.636534 450.625079 
L 175.805329 444.429708 
L 186.604234 437.586596 
L 197.036638 430.167927 
L 207.125832 422.268619 
L 216.881241 413.939554 
L 226.328223 405.246306 
L 235.478998 396.225917 
L 244.35852 386.925921 
L 252.980705 377.374704 
L 261.370282 367.608882 
L 269.548919 357.656475 
L 277.550821 347.554876 
L 293.214739 327.072826 
L 339.645862 265.183608 
L 347.533114 254.986974 
L 355.562423 244.908134 
L 363.857823 235.050078 
L 372.574617 225.590778 
L 381.678949 216.862001 
L 391.456873 208.993619 
L 400.198909 203.159762 
L 409.262117 198.293502 
L 414.363912 195.78718 
L 418.848468 193.238393 
L 421.92973 191.239994 
L 424.758236 189.131324 
L 427.450557 186.843245 
L 430.118578 184.322376 
L 432.703583 181.695602 
L 438.887155 175.084765 
L 443.020096 171.521143 
L 447.477076 168.393995 
L 450.918764 166.449378 
L 454.395675 164.922222 
L 458.000819 163.747746 
L 459.809733 163.336234 
L 461.456467 163.125995 
L 463.25219 163.068712 
L 463.221626 163.063423 
L 461.154043 162.383312 
L 458.46719 161.113919 
L 455.168748 159.221147 
L 451.783394 157.234861 
L 448.103868 155.460247 
L 444.296868 153.994642 
L 441.32273 153.11531 
L 438.385026 152.501628 
L 435.409354 152.126055 
L 437.933659 152.546947 
L 439.891405 153.1383 
L 440.846879 153.51357 
L 439.095451 152.831613 
L 437.042176 152.207536 
L 434.947944 151.747925 
L 436.925474 152.245086 
L 438.452721 152.8232 
L 439.196483 153.168701 
L 437.434592 152.365029 
L 435.378785 151.615801 
L 433.271268 151.036599 
L 435.052661 151.571132 
L 437.237945 152.548158 
L 433.588046 150.945785 
L 431.564408 150.332909 
L 433.475634 150.9512 
L 435.795037 152.034265 
L 432.338489 150.464938 
L 430.413994 149.857431 
L 432.517 150.557154 
L 434.180579 151.302498 
L 434.991955 151.729538 
L 433.4716 150.95306 
L 431.670607 150.207964 
L 429.816128 149.616329 
L 432.015005 150.352917 
L 433.741065 151.130501 
L 434.582671 151.575806 
L 433.093779 150.811409 
L 431.324885 150.075167 
L 429.503057 149.48982 
L 431.785005 150.258205 
L 433.548609 151.055454 
L 434.408161 151.51127 
L 432.934048 150.753111 
L 431.179859 150.021266 
L 429.373064 149.438981 
L 431.685833 150.219748 
L 433.451395 151.019487 
L 434.311457 151.476375 
L 432.845976 150.721501 
L 431.10131 149.992657 
L 429.502919 149.468902 
L 429.502919 149.468902 
" clip-path="url(#pc9458104cf)" style="fill: none; stroke: #1f77b4; stroke-linecap: square"/>
   </g>
   <g id="line2d_62">
    <g clip-path="url(#pc9458104cf)">
     <use xlink:href="#md5d525c065" x="94.96465" y="467.714552" style="fill: #ff0000; stroke: #ff0000"/>
    </g>
   </g>
   <g id="line2d_63">
    <path d="M 94.987741 491.3667 
L 94.941558 444.062404 
" clip-path="url(#pc9458104cf)" style="fill: none; stroke: #008000; stroke-width: 1.5; stroke-linecap: square"/>
   </g>
   <g id="line2d_64">
    <path d="M 94.96465 467.714552 
L 92.290909 467.676346 
L 103.788327 467.572161 
L 116.429084 466.359195 
L 128.917465 464.01641 
L 141.190637 460.6683 
L 153.21569 456.490898 
L 164.942162 451.501792 
L 176.346819 445.779148 
L 187.427516 439.425871 
L 198.171637 432.491167 
L 208.579046 425.037764 
L 218.653818 417.11781 
L 228.415906 408.797982 
L 237.881465 400.12477 
L 247.082562 391.158754 
L 256.032637 381.929408 
L 264.755783 372.475194 
L 273.266431 362.8195 
L 281.58847 352.993082 
L 289.73971 343.017201 
L 297.747701 332.920587 
L 313.446551 312.467414 
L 329.017794 291.911144 
L 336.960155 281.753427 
L 345.198627 271.853791 
L 353.844745 262.379999 
L 363.088115 253.53956 
L 371.739129 246.357237 
L 380.765003 239.945186 
L 387.061003 235.726179 
L 392.826057 231.456748 
L 397.415118 227.710822 
L 401.717128 223.81383 
L 405.630725 219.930117 
L 414.115615 210.928829 
L 419.280163 206.275507 
L 424.779898 202.044301 
L 427.901891 199.797597 
L 430.667785 197.63484 
L 435.307802 193.579763 
L 438.879783 189.896843 
L 441.759779 186.858817 
L 444.956309 183.97802 
L 448.363773 181.363161 
L 451.208166 179.51298 
L 454.107138 177.940366 
L 457.116544 176.603002 
L 458.980857 175.93726 
L 460.763036 175.454598 
L 463.290556 175.022917 
L 464.504844 175.013636 
L 463.924583 174.933364 
L 462.697488 174.594838 
L 460.832956 173.881576 
L 458.278184 172.601082 
L 455.54453 170.927179 
L 452.617056 168.879908 
L 449.927816 166.984412 
L 447.009444 165.208465 
L 443.981214 163.637292 
L 441.46297 162.537894 
L 438.940801 161.635641 
L 436.365957 160.906006 
L 437.269597 161.232249 
L 437.997708 161.579865 
L 437.856381 161.49237 
L 436.166622 160.418028 
L 434.253863 159.37413 
L 432.172544 158.422109 
L 433.035735 158.919547 
L 431.653278 158.050056 
L 430.060108 157.189887 
L 428.413735 156.442181 
L 430.23506 157.38896 
L 430.679692 157.672641 
L 429.461187 156.913253 
L 428.032789 156.148879 
L 426.557103 155.485413 
L 428.447905 156.405529 
L 429.548028 157.075893 
L 427.063076 155.657893 
L 425.672055 155.038143 
L 427.857647 156.090984 
L 429.071694 156.828014 
L 426.662644 155.458263 
L 425.31069 154.858333 
L 427.602937 155.957304 
L 428.848874 156.711439 
L 426.460278 155.35742 
L 425.11911 154.76385 
L 427.481729 155.893965 
L 428.685202 156.618618 
L 428.685202 156.618618 
" clip-path="url(#pc9458104cf)" style="fill: none; stroke: #ff7f0e; stroke-linecap: square"/>
   </g>
   <g id="line2d_65">
    <g clip-path="url(#pc9458104cf)">
     <use xlink:href="#md5d525c065" x="94.96465" y="467.714552" style="fill: #ff0000; stroke: #ff0000"/>
    </g>
   </g>
   <g id="line2d_66">
    <path d="M 94.987741 491.3667 
L 94.941558 444.062404 
" clip-path="url(#pc9458104cf)" style="fill: none; stroke: #008000; stroke-width: 1.5; stroke-linecap: square"/>
   </g>
   <g id="line2d_67">
    <g clip-path="url(#pc9458104cf)">
     <use xlink:href="#md5d525c065" x="441.333107" y="112.93216" style="fill: #ff0000; stroke: #ff0000"/>
    </g>
   </g>
   <g id="line2d_68">
    <path d="M 441.333107 136.584319 
L 441.333107 89.28 
" clip-path="url(#pc9458104cf)" style="fill: none; stroke: #008000; stroke-width: 1.5; stroke-linecap: square"/>
   </g>
   <g id="patch_3">
    <path d="M 72 512.64 
L 72 69.12 
" style="fill: none; stroke: #000000; stroke-width: 0.8; stroke-linejoin: miter; stroke-linecap: square"/>
   </g>
   <g id="patch_4">
    <path d="M 518.4 512.64 
L 518.4 69.12 
" style="fill: none; stroke: #000000; stroke-width: 0.8; stroke-linejoin: miter; stroke-linecap: square"/>
   </g>
   <g id="patch_5">
    <path d="M 72 512.64 
L 518.4 512.64 
" style="fill: none; stroke: #000000; stroke-width: 0.8; stroke-linejoin: miter; stroke-linecap: square"/>
   </g>
   <g id="patch_6">
    <path d="M 72 69.12 
L 518.4 69.12 
" style="fill: none; stroke: #000000; stroke-width: 0.8; stroke-linejoin: miter; stroke-linecap: square"/>
   </g>
   <g id="patch_7">
    <path d="M 97.272952 467.462188 
Q 112.053604 467.447048 126.834257 467.431908 
L 126.831952 465.181909 
Q 132.834028 466.425762 138.836104 467.669615 
Q 132.836589 468.925761 126.837074 470.181907 
L 126.834769 467.931908 
Q 112.054116 467.947048 97.273464 467.962187 
L 97.272952 467.462188 
z
" style="fill: #0000ff; stroke: #000000; stroke-linecap: round"/>
   </g>
   <g id="patch_8">
    <path d="M 97.272952 467.462188 
Q 112.053604 467.447048 126.834257 467.431908 
L 126.831952 465.181909 
Q 132.834028 466.425762 138.836104 467.669615 
Q 132.836589 468.925761 126.837074 470.181907 
L 126.834769 467.931908 
Q 112.054116 467.947048 97.273464 467.962187 
L 97.272952 467.462188 
z
" style="fill: #0000ff; stroke: #000000; stroke-linecap: round"/>
   </g>
   <g id="patch_9">
    <path d="M 97.272952 467.462188 
Q 112.053604 467.447048 126.834257 467.431908 
L 126.831952 465.181909 
Q 132.834028 466.425762 138.836104 467.669615 
Q 132.836589 468.925761 126.837074 470.181907 
L 126.834769 467.931908 
Q 112.054116 467.947048 97.273464 467.962187 
L 97.272952 467.462188 
z
" style="fill: #0000ff; stroke: #000000; stroke-linecap: round"/>
   </g>
   <g id="patch_10">
    <path d="M 97.272952 467.462188 
Q 112.053604 467.447048 126.834257 467.431908 
L 126.831952 465.181909 
Q 132.834028 466.425762 138.836104 467.669615 
Q 132.836589 468.925761 126.837074 470.181907 
L 126.834769 467.931908 
Q 112.054116 467.947048 97.273464 467.962187 
L 97.272952 467.462188 
z
" style="fill: #0000ff; stroke: #000000; stroke-linecap: round"/>
   </g>
   <g id="patch_11">
    <path d="M 97.272952 467.462188 
Q 112.053604 467.447048 126.834257 467.431908 
L 126.831952 465.181909 
Q 132.834028 466.425762 138.836104 467.669615 
Q 132.836589 468.925761 126.837074 470.181907 
L 126.834769 467.931908 
Q 112.054116 467.947048 97.273464 467.962187 
L 97.272952 467.462188 
z
" style="fill: #0000ff; stroke: #000000; stroke-linecap: round"/>
   </g>
   <g id="patch_12">
    <path d="M 97.272952 467.462188 
Q 112.053604 467.447048 126.834257 467.431908 
L 126.831952 465.181909 
Q 132.834028 466.425762 138.836104 467.669615 
Q 132.836589 468.925761 126.837074 470.181907 
L 126.834769 467.931908 
Q 112.054116 467.947048 97.273464 467.962187 
L 97.272952 467.462188 
z
" style="fill: #0000ff; stroke: #000000; stroke-linecap: round"/>
   </g>
   <g id="patch_13">
    <path d="M 97.272952 467.462188 
Q 112.053604 467.447048 126.834257 467.431908 
L 126.831952 465.181909 
Q 132.834028 466.425762 138.836104 467.669615 
Q 132.836589 468.925761 126.837074 470.181907 
L 126.834769 467.931908 
Q 112.054116 467.947048 97.273464 467.962187 
L 97.272952 467.462188 
z
" style="fill: #0000ff; stroke: #000000; stroke-linecap: round"/>
   </g>
   <g id="patch_14">
    <path d="M 97.272952 467.462188 
Q 112.053604 467.447048 126.834257 467.431908 
L 126.831952 465.181909 
Q 132.834028 466.425762 138.836104 467.669615 
Q 132.836589 468.925761 126.837074 470.181907 
L 126.834769 467.931908 
Q 112.054116 467.947048 97.273464 467.962187 
L 97.272952 467.462188 
z
" style="fill: #0000ff; stroke: #000000; stroke-linecap: round"/>
   </g>
   <g id="patch_15">
    <path d="M 97.272952 467.462188 
Q 112.053604 467.447048 126.834257 467.431908 
L 126.831952 465.181909 
Q 132.834028 466.425762 138.836104 467.669615 
Q 132.836589 468.925761 126.837074 470.181907 
L 126.834769 467.931908 
Q 112.054116 467.947048 97.273464 467.962187 
L 97.272952 467.462188 
z
" style="fill: #0000ff; stroke: #000000; stroke-linecap: round"/>
   </g>
   <g id="patch_16">
    <path d="M 97.272952 467.462188 
Q 112.053604 467.447048 126.834257 467.431908 
L 126.831952 465.181909 
Q 132.834028 466.425762 138.836104 467.669615 
Q 132.836589 468.925761 126.837074 470.181907 
L 126.834769 467.931908 
Q 112.054116 467.947048 97.273464 467.962187 
L 97.272952 467.462188 
z
" style="fill: #0000ff; stroke: #000000; stroke-linecap: round"/>
   </g>
   <g id="patch_17">
    <path d="M 97.272952 467.462188 
Q 112.053604 467.447048 126.834257 467.431908 
L 126.831952 465.181909 
Q 132.834028 466.425762 138.836104 467.669615 
Q 132.836589 468.925761 126.837074 470.181907 
L 126.834769 467.931908 
Q 112.054116 467.947048 97.273464 467.962187 
L 97.272952 467.462188 
z
" style="fill: #0000ff; stroke: #000000; stroke-linecap: round"/>
   </g>
   <g id="patch_18">
    <path d="M 97.272952 467.462188 
Q 112.053604 467.447048 126.834257 467.431908 
L 126.831952 465.181909 
Q 132.834028 466.425762 138.836104 467.669615 
Q 132.836589 468.925761 126.837074 470.181907 
L 126.834769 467.931908 
Q 112.054116 467.947048 97.273464 467.962187 
L 97.272952 467.462188 
z
" style="fill: #0000ff; stroke: #000000; stroke-linecap: round"/>
   </g>
   <g id="patch_19">
    <path d="M 443.641666 112.68216 
Q 458.422326 112.68216 473.202986 112.68216 
L 473.202986 110.43216 
Q 479.203784 111.68216 485.204583 112.93216 
Q 479.203784 114.18216 473.202986 115.43216 
L 473.202986 113.18216 
Q 458.422326 113.18216 443.641666 113.18216 
L 443.641666 112.68216 
z
" style="fill: #008000; stroke: #000000; stroke-linecap: round"/>
   </g>
   <g id="text_18">
    <!-- dt: 0.1 -->
    <g transform="translate(275.56875 63.12) scale(0.12 -0.12)">
     <defs>
      <path id="DejaVuSans-64" d="M 2906 2969 
L 2906 4863 
L 3481 4863 
L 3481 0 
L 2906 0 
L 2906 525 
Q 2725 213 2448 61 
Q 2172 -91 1784 -91 
Q 1150 -91 751 415 
Q 353 922 353 1747 
Q 353 2572 751 3078 
Q 1150 3584 1784 3584 
Q 2172 3584 2448 3432 
Q 2725 3281 2906 2969 
z
M 947 1747 
Q 947 1113 1208 752 
Q 1469 391 1925 391 
Q 2381 391 2643 752 
Q 2906 1113 2906 1747 
Q 2906 2381 2643 2742 
Q 2381 3103 1925 3103 
Q 1469 3103 1208 2742 
Q 947 2381 947 1747 
z
" transform="scale(0.015625)"/>
      <path id="DejaVuSans-74" d="M 1172 4494 
L 1172 3500 
L 2356 3500 
L 2356 3053 
L 1172 3053 
L 1172 1153 
Q 1172 725 1289 603 
Q 1406 481 1766 481 
L 2356 481 
L 2356 0 
L 1766 0 
Q 1100 0 847 248 
Q 594 497 594 1153 
L 594 3053 
L 172 3053 
L 172 3500 
L 594 3500 
L 594 4494 
L 1172 4494 
z
" transform="scale(0.015625)"/>
      <path id="DejaVuSans-3a" d="M 750 794 
L 1409 794 
L 1409 0 
L 750 0 
L 750 794 
z
M 750 3309 
L 1409 3309 
L 1409 2516 
L 750 2516 
L 750 3309 
z
" transform="scale(0.015625)"/>
     </defs>
     <use xlink:href="#DejaVuSans-64"/>
     <use xlink:href="#DejaVuSans-74" x="63.476562"/>
     <use xlink:href="#DejaVuSans-3a" x="102.685547"/>
     <use xlink:href="#DejaVuSans-20" x="136.376953"/>
     <use xlink:href="#DejaVuSans-30" x="168.164062"/>
     <use xlink:href="#DejaVuSans-2e" x="231.787109"/>
     <use xlink:href="#DejaVuSans-31" x="263.574219"/>
    </g>
   </g>
   <g id="legend_1">
    <g id="patch_20">
     <path d="M 79 256.595 
L 249.20625 256.595 
Q 251.20625 256.595 251.20625 254.595 
L 251.20625 76.12 
Q 251.20625 74.12 249.20625 74.12 
L 79 74.12 
Q 77 74.12 77 76.12 
L 77 254.595 
Q 77 256.595 79 256.595 
z
" style="fill: #ffffff; opacity: 0.8; stroke: #cccccc; stroke-linejoin: miter"/>
    </g>
    <g id="line2d_69">
     <path d="M 81 82.218437 
L 91 82.218437 
L 101 82.218437 
" style="fill: none; stroke: #1f77b4; stroke-linecap: square"/>
    </g>
    <g id="text_19">
     <!-- Nactor_2.0_ssmultiplier_2.0 -->
     <g transform="translate(109 85.718437) scale(0.1 -0.1)">
      <defs>
       <path id="DejaVuSans-4e" d="M 628 4666 
L 1478 4666 
L 3547 763 
L 3547 4666 
L 4159 4666 
L 4159 0 
L 3309 0 
L 1241 3903 
L 1241 0 
L 628 0 
L 628 4666 
z
" transform="scale(0.015625)"/>
       <path id="DejaVuSans-63" d="M 3122 3366 
L 3122 2828 
Q 2878 2963 2633 3030 
Q 2388 3097 2138 3097 
Q 1578 3097 1268 2742 
Q 959 2388 959 1747 
Q 959 1106 1268 751 
Q 1578 397 2138 397 
Q 2388 397 2633 464 
Q 2878 531 3122 666 
L 3122 134 
Q 2881 22 2623 -34 
Q 2366 -91 2075 -91 
Q 1284 -91 818 406 
Q 353 903 353 1747 
Q 353 2603 823 3093 
Q 1294 3584 2113 3584 
Q 2378 3584 2631 3529 
Q 2884 3475 3122 3366 
z
" transform="scale(0.015625)"/>
       <path id="DejaVuSans-6f" d="M 1959 3097 
Q 1497 3097 1228 2736 
Q 959 2375 959 1747 
Q 959 1119 1226 758 
Q 1494 397 1959 397 
Q 2419 397 2687 759 
Q 2956 1122 2956 1747 
Q 2956 2369 2687 2733 
Q 2419 3097 1959 3097 
z
M 1959 3584 
Q 2709 3584 3137 3096 
Q 3566 2609 3566 1747 
Q 3566 888 3137 398 
Q 2709 -91 1959 -91 
Q 1206 -91 779 398 
Q 353 888 353 1747 
Q 353 2609 779 3096 
Q 1206 3584 1959 3584 
z
" transform="scale(0.015625)"/>
       <path id="DejaVuSans-72" d="M 2631 2963 
Q 2534 3019 2420 3045 
Q 2306 3072 2169 3072 
Q 1681 3072 1420 2755 
Q 1159 2438 1159 1844 
L 1159 0 
L 581 0 
L 581 3500 
L 1159 3500 
L 1159 2956 
Q 1341 3275 1631 3429 
Q 1922 3584 2338 3584 
Q 2397 3584 2469 3576 
Q 2541 3569 2628 3553 
L 2631 2963 
z
" transform="scale(0.015625)"/>
       <path id="DejaVuSans-5f" d="M 3263 -1063 
L 3263 -1509 
L -63 -1509 
L -63 -1063 
L 3263 -1063 
z
" transform="scale(0.015625)"/>
       <path id="DejaVuSans-6d" d="M 3328 2828 
Q 3544 3216 3844 3400 
Q 4144 3584 4550 3584 
Q 5097 3584 5394 3201 
Q 5691 2819 5691 2113 
L 5691 0 
L 5113 0 
L 5113 2094 
Q 5113 2597 4934 2840 
Q 4756 3084 4391 3084 
Q 3944 3084 3684 2787 
Q 3425 2491 3425 1978 
L 3425 0 
L 2847 0 
L 2847 2094 
Q 2847 2600 2669 2842 
Q 2491 3084 2119 3084 
Q 1678 3084 1418 2786 
Q 1159 2488 1159 1978 
L 1159 0 
L 581 0 
L 581 3500 
L 1159 3500 
L 1159 2956 
Q 1356 3278 1631 3431 
Q 1906 3584 2284 3584 
Q 2666 3584 2933 3390 
Q 3200 3197 3328 2828 
z
" transform="scale(0.015625)"/>
       <path id="DejaVuSans-75" d="M 544 1381 
L 544 3500 
L 1119 3500 
L 1119 1403 
Q 1119 906 1312 657 
Q 1506 409 1894 409 
Q 2359 409 2629 706 
Q 2900 1003 2900 1516 
L 2900 3500 
L 3475 3500 
L 3475 0 
L 2900 0 
L 2900 538 
Q 2691 219 2414 64 
Q 2138 -91 1772 -91 
Q 1169 -91 856 284 
Q 544 659 544 1381 
z
M 1991 3584 
L 1991 3584 
z
" transform="scale(0.015625)"/>
       <path id="DejaVuSans-6c" d="M 603 4863 
L 1178 4863 
L 1178 0 
L 603 0 
L 603 4863 
z
" transform="scale(0.015625)"/>
       <path id="DejaVuSans-70" d="M 1159 525 
L 1159 -1331 
L 581 -1331 
L 581 3500 
L 1159 3500 
L 1159 2969 
Q 1341 3281 1617 3432 
Q 1894 3584 2278 3584 
Q 2916 3584 3314 3078 
Q 3713 2572 3713 1747 
Q 3713 922 3314 415 
Q 2916 -91 2278 -91 
Q 1894 -91 1617 61 
Q 1341 213 1159 525 
z
M 3116 1747 
Q 3116 2381 2855 2742 
Q 2594 3103 2138 3103 
Q 1681 3103 1420 2742 
Q 1159 2381 1159 1747 
Q 1159 1113 1420 752 
Q 1681 391 2138 391 
Q 2594 391 2855 752 
Q 3116 1113 3116 1747 
z
" transform="scale(0.015625)"/>
       <path id="DejaVuSans-65" d="M 3597 1894 
L 3597 1613 
L 953 1613 
Q 991 1019 1311 708 
Q 1631 397 2203 397 
Q 2534 397 2845 478 
Q 3156 559 3463 722 
L 3463 178 
Q 3153 47 2828 -22 
Q 2503 -91 2169 -91 
Q 1331 -91 842 396 
Q 353 884 353 1716 
Q 353 2575 817 3079 
Q 1281 3584 2069 3584 
Q 2775 3584 3186 3129 
Q 3597 2675 3597 1894 
z
M 3022 2063 
Q 3016 2534 2758 2815 
Q 2500 3097 2075 3097 
Q 1594 3097 1305 2825 
Q 1016 2553 972 2059 
L 3022 2063 
z
" transform="scale(0.015625)"/>
      </defs>
      <use xlink:href="#DejaVuSans-4e"/>
      <use xlink:href="#DejaVuSans-61" x="74.804688"/>
      <use xlink:href="#DejaVuSans-63" x="136.083984"/>
      <use xlink:href="#DejaVuSans-74" x="191.064453"/>
      <use xlink:href="#DejaVuSans-6f" x="230.273438"/>
      <use xlink:href="#DejaVuSans-72" x="291.455078"/>
      <use xlink:href="#DejaVuSans-5f" x="332.568359"/>
      <use xlink:href="#DejaVuSans-32" x="382.568359"/>
      <use xlink:href="#DejaVuSans-2e" x="446.191406"/>
      <use xlink:href="#DejaVuSans-30" x="477.978516"/>
      <use xlink:href="#DejaVuSans-5f" x="541.601562"/>
      <use xlink:href="#DejaVuSans-73" x="591.601562"/>
      <use xlink:href="#DejaVuSans-73" x="643.701172"/>
      <use xlink:href="#DejaVuSans-6d" x="695.800781"/>
      <use xlink:href="#DejaVuSans-75" x="793.212891"/>
      <use xlink:href="#DejaVuSans-6c" x="856.591797"/>
      <use xlink:href="#DejaVuSans-74" x="884.375"/>
      <use xlink:href="#DejaVuSans-69" x="923.583984"/>
      <use xlink:href="#DejaVuSans-70" x="951.367188"/>
      <use xlink:href="#DejaVuSans-6c" x="1014.84375"/>
      <use xlink:href="#DejaVuSans-69" x="1042.626953"/>
      <use xlink:href="#DejaVuSans-65" x="1070.410156"/>
      <use xlink:href="#DejaVuSans-72" x="1131.933594"/>
      <use xlink:href="#DejaVuSans-5f" x="1173.046875"/>
      <use xlink:href="#DejaVuSans-32" x="1223.046875"/>
      <use xlink:href="#DejaVuSans-2e" x="1286.669922"/>
      <use xlink:href="#DejaVuSans-30" x="1318.457031"/>
     </g>
    </g>
    <g id="line2d_70">
     <path d="M 81 97.174688 
L 91 97.174688 
L 101 97.174688 
" style="fill: none; stroke: #ff7f0e; stroke-linecap: square"/>
    </g>
    <g id="text_20">
     <!-- Nactor_2.0_ssmultiplier_4.0 -->
     <g transform="translate(109 100.674688) scale(0.1 -0.1)">
      <defs>
       <path id="DejaVuSans-34" d="M 2419 4116 
L 825 1625 
L 2419 1625 
L 2419 4116 
z
M 2253 4666 
L 3047 4666 
L 3047 1625 
L 3713 1625 
L 3713 1100 
L 3047 1100 
L 3047 0 
L 2419 0 
L 2419 1100 
L 313 1100 
L 313 1709 
L 2253 4666 
z
" transform="scale(0.015625)"/>
      </defs>
      <use xlink:href="#DejaVuSans-4e"/>
      <use xlink:href="#DejaVuSans-61" x="74.804688"/>
      <use xlink:href="#DejaVuSans-63" x="136.083984"/>
      <use xlink:href="#DejaVuSans-74" x="191.064453"/>
      <use xlink:href="#DejaVuSans-6f" x="230.273438"/>
      <use xlink:href="#DejaVuSans-72" x="291.455078"/>
      <use xlink:href="#DejaVuSans-5f" x="332.568359"/>
      <use xlink:href="#DejaVuSans-32" x="382.568359"/>
      <use xlink:href="#DejaVuSans-2e" x="446.191406"/>
      <use xlink:href="#DejaVuSans-30" x="477.978516"/>
      <use xlink:href="#DejaVuSans-5f" x="541.601562"/>
      <use xlink:href="#DejaVuSans-73" x="591.601562"/>
      <use xlink:href="#DejaVuSans-73" x="643.701172"/>
      <use xlink:href="#DejaVuSans-6d" x="695.800781"/>
      <use xlink:href="#DejaVuSans-75" x="793.212891"/>
      <use xlink:href="#DejaVuSans-6c" x="856.591797"/>
      <use xlink:href="#DejaVuSans-74" x="884.375"/>
      <use xlink:href="#DejaVuSans-69" x="923.583984"/>
      <use xlink:href="#DejaVuSans-70" x="951.367188"/>
      <use xlink:href="#DejaVuSans-6c" x="1014.84375"/>
      <use xlink:href="#DejaVuSans-69" x="1042.626953"/>
      <use xlink:href="#DejaVuSans-65" x="1070.410156"/>
      <use xlink:href="#DejaVuSans-72" x="1131.933594"/>
      <use xlink:href="#DejaVuSans-5f" x="1173.046875"/>
      <use xlink:href="#DejaVuSans-34" x="1223.046875"/>
      <use xlink:href="#DejaVuSans-2e" x="1286.669922"/>
      <use xlink:href="#DejaVuSans-30" x="1318.457031"/>
     </g>
    </g>
    <g id="line2d_71">
     <path d="M 81 112.130938 
L 91 112.130938 
L 101 112.130938 
" style="fill: none; stroke: #2ca02c; stroke-linecap: square"/>
    </g>
    <g id="text_21">
     <!-- Nactor_2.0_ssmultiplier_6.0 -->
     <g transform="translate(109 115.630938) scale(0.1 -0.1)">
      <defs>
       <path id="DejaVuSans-36" d="M 2113 2584 
Q 1688 2584 1439 2293 
Q 1191 2003 1191 1497 
Q 1191 994 1439 701 
Q 1688 409 2113 409 
Q 2538 409 2786 701 
Q 3034 994 3034 1497 
Q 3034 2003 2786 2293 
Q 2538 2584 2113 2584 
z
M 3366 4563 
L 3366 3988 
Q 3128 4100 2886 4159 
Q 2644 4219 2406 4219 
Q 1781 4219 1451 3797 
Q 1122 3375 1075 2522 
Q 1259 2794 1537 2939 
Q 1816 3084 2150 3084 
Q 2853 3084 3261 2657 
Q 3669 2231 3669 1497 
Q 3669 778 3244 343 
Q 2819 -91 2113 -91 
Q 1303 -91 875 529 
Q 447 1150 447 2328 
Q 447 3434 972 4092 
Q 1497 4750 2381 4750 
Q 2619 4750 2861 4703 
Q 3103 4656 3366 4563 
z
" transform="scale(0.015625)"/>
      </defs>
      <use xlink:href="#DejaVuSans-4e"/>
      <use xlink:href="#DejaVuSans-61" x="74.804688"/>
      <use xlink:href="#DejaVuSans-63" x="136.083984"/>
      <use xlink:href="#DejaVuSans-74" x="191.064453"/>
      <use xlink:href="#DejaVuSans-6f" x="230.273438"/>
      <use xlink:href="#DejaVuSans-72" x="291.455078"/>
      <use xlink:href="#DejaVuSans-5f" x="332.568359"/>
      <use xlink:href="#DejaVuSans-32" x="382.568359"/>
      <use xlink:href="#DejaVuSans-2e" x="446.191406"/>
      <use xlink:href="#DejaVuSans-30" x="477.978516"/>
      <use xlink:href="#DejaVuSans-5f" x="541.601562"/>
      <use xlink:href="#DejaVuSans-73" x="591.601562"/>
      <use xlink:href="#DejaVuSans-73" x="643.701172"/>
      <use xlink:href="#DejaVuSans-6d" x="695.800781"/>
      <use xlink:href="#DejaVuSans-75" x="793.212891"/>
      <use xlink:href="#DejaVuSans-6c" x="856.591797"/>
      <use xlink:href="#DejaVuSans-74" x="884.375"/>
      <use xlink:href="#DejaVuSans-69" x="923.583984"/>
      <use xlink:href="#DejaVuSans-70" x="951.367188"/>
      <use xlink:href="#DejaVuSans-6c" x="1014.84375"/>
      <use xlink:href="#DejaVuSans-69" x="1042.626953"/>
      <use xlink:href="#DejaVuSans-65" x="1070.410156"/>
      <use xlink:href="#DejaVuSans-72" x="1131.933594"/>
      <use xlink:href="#DejaVuSans-5f" x="1173.046875"/>
      <use xlink:href="#DejaVuSans-36" x="1223.046875"/>
      <use xlink:href="#DejaVuSans-2e" x="1286.669922"/>
      <use xlink:href="#DejaVuSans-30" x="1318.457031"/>
     </g>
    </g>
    <g id="line2d_72">
     <path d="M 81 127.087188 
L 91 127.087188 
L 101 127.087188 
" style="fill: none; stroke: #d62728; stroke-linecap: square"/>
    </g>
    <g id="text_22">
     <!-- Nactor_2.0_ssmultiplier_8.0 -->
     <g transform="translate(109 130.587188) scale(0.1 -0.1)">
      <defs>
       <path id="DejaVuSans-38" d="M 2034 2216 
Q 1584 2216 1326 1975 
Q 1069 1734 1069 1313 
Q 1069 891 1326 650 
Q 1584 409 2034 409 
Q 2484 409 2743 651 
Q 3003 894 3003 1313 
Q 3003 1734 2745 1975 
Q 2488 2216 2034 2216 
z
M 1403 2484 
Q 997 2584 770 2862 
Q 544 3141 544 3541 
Q 544 4100 942 4425 
Q 1341 4750 2034 4750 
Q 2731 4750 3128 4425 
Q 3525 4100 3525 3541 
Q 3525 3141 3298 2862 
Q 3072 2584 2669 2484 
Q 3125 2378 3379 2068 
Q 3634 1759 3634 1313 
Q 3634 634 3220 271 
Q 2806 -91 2034 -91 
Q 1263 -91 848 271 
Q 434 634 434 1313 
Q 434 1759 690 2068 
Q 947 2378 1403 2484 
z
M 1172 3481 
Q 1172 3119 1398 2916 
Q 1625 2713 2034 2713 
Q 2441 2713 2670 2916 
Q 2900 3119 2900 3481 
Q 2900 3844 2670 4047 
Q 2441 4250 2034 4250 
Q 1625 4250 1398 4047 
Q 1172 3844 1172 3481 
z
" transform="scale(0.015625)"/>
      </defs>
      <use xlink:href="#DejaVuSans-4e"/>
      <use xlink:href="#DejaVuSans-61" x="74.804688"/>
      <use xlink:href="#DejaVuSans-63" x="136.083984"/>
      <use xlink:href="#DejaVuSans-74" x="191.064453"/>
      <use xlink:href="#DejaVuSans-6f" x="230.273438"/>
      <use xlink:href="#DejaVuSans-72" x="291.455078"/>
      <use xlink:href="#DejaVuSans-5f" x="332.568359"/>
      <use xlink:href="#DejaVuSans-32" x="382.568359"/>
      <use xlink:href="#DejaVuSans-2e" x="446.191406"/>
      <use xlink:href="#DejaVuSans-30" x="477.978516"/>
      <use xlink:href="#DejaVuSans-5f" x="541.601562"/>
      <use xlink:href="#DejaVuSans-73" x="591.601562"/>
      <use xlink:href="#DejaVuSans-73" x="643.701172"/>
      <use xlink:href="#DejaVuSans-6d" x="695.800781"/>
      <use xlink:href="#DejaVuSans-75" x="793.212891"/>
      <use xlink:href="#DejaVuSans-6c" x="856.591797"/>
      <use xlink:href="#DejaVuSans-74" x="884.375"/>
      <use xlink:href="#DejaVuSans-69" x="923.583984"/>
      <use xlink:href="#DejaVuSans-70" x="951.367188"/>
      <use xlink:href="#DejaVuSans-6c" x="1014.84375"/>
      <use xlink:href="#DejaVuSans-69" x="1042.626953"/>
      <use xlink:href="#DejaVuSans-65" x="1070.410156"/>
      <use xlink:href="#DejaVuSans-72" x="1131.933594"/>
      <use xlink:href="#DejaVuSans-5f" x="1173.046875"/>
      <use xlink:href="#DejaVuSans-38" x="1223.046875"/>
      <use xlink:href="#DejaVuSans-2e" x="1286.669922"/>
      <use xlink:href="#DejaVuSans-30" x="1318.457031"/>
     </g>
    </g>
    <g id="line2d_73">
     <path d="M 81 142.043437 
L 91 142.043437 
L 101 142.043437 
" style="fill: none; stroke: #9467bd; stroke-linecap: square"/>
    </g>
    <g id="text_23">
     <!-- Nactor_4.0_ssmultiplier_2.0 -->
     <g transform="translate(109 145.543437) scale(0.1 -0.1)">
      <use xlink:href="#DejaVuSans-4e"/>
      <use xlink:href="#DejaVuSans-61" x="74.804688"/>
      <use xlink:href="#DejaVuSans-63" x="136.083984"/>
      <use xlink:href="#DejaVuSans-74" x="191.064453"/>
      <use xlink:href="#DejaVuSans-6f" x="230.273438"/>
      <use xlink:href="#DejaVuSans-72" x="291.455078"/>
      <use xlink:href="#DejaVuSans-5f" x="332.568359"/>
      <use xlink:href="#DejaVuSans-34" x="382.568359"/>
      <use xlink:href="#DejaVuSans-2e" x="446.191406"/>
      <use xlink:href="#DejaVuSans-30" x="477.978516"/>
      <use xlink:href="#DejaVuSans-5f" x="541.601562"/>
      <use xlink:href="#DejaVuSans-73" x="591.601562"/>
      <use xlink:href="#DejaVuSans-73" x="643.701172"/>
      <use xlink:href="#DejaVuSans-6d" x="695.800781"/>
      <use xlink:href="#DejaVuSans-75" x="793.212891"/>
      <use xlink:href="#DejaVuSans-6c" x="856.591797"/>
      <use xlink:href="#DejaVuSans-74" x="884.375"/>
      <use xlink:href="#DejaVuSans-69" x="923.583984"/>
      <use xlink:href="#DejaVuSans-70" x="951.367188"/>
      <use xlink:href="#DejaVuSans-6c" x="1014.84375"/>
      <use xlink:href="#DejaVuSans-69" x="1042.626953"/>
      <use xlink:href="#DejaVuSans-65" x="1070.410156"/>
      <use xlink:href="#DejaVuSans-72" x="1131.933594"/>
      <use xlink:href="#DejaVuSans-5f" x="1173.046875"/>
      <use xlink:href="#DejaVuSans-32" x="1223.046875"/>
      <use xlink:href="#DejaVuSans-2e" x="1286.669922"/>
      <use xlink:href="#DejaVuSans-30" x="1318.457031"/>
     </g>
    </g>
    <g id="line2d_74">
     <path d="M 81 156.999687 
L 91 156.999687 
L 101 156.999687 
" style="fill: none; stroke: #8c564b; stroke-linecap: square"/>
    </g>
    <g id="text_24">
     <!-- Nactor_4.0_ssmultiplier_4.0 -->
     <g transform="translate(109 160.499687) scale(0.1 -0.1)">
      <use xlink:href="#DejaVuSans-4e"/>
      <use xlink:href="#DejaVuSans-61" x="74.804688"/>
      <use xlink:href="#DejaVuSans-63" x="136.083984"/>
      <use xlink:href="#DejaVuSans-74" x="191.064453"/>
      <use xlink:href="#DejaVuSans-6f" x="230.273438"/>
      <use xlink:href="#DejaVuSans-72" x="291.455078"/>
      <use xlink:href="#DejaVuSans-5f" x="332.568359"/>
      <use xlink:href="#DejaVuSans-34" x="382.568359"/>
      <use xlink:href="#DejaVuSans-2e" x="446.191406"/>
      <use xlink:href="#DejaVuSans-30" x="477.978516"/>
      <use xlink:href="#DejaVuSans-5f" x="541.601562"/>
      <use xlink:href="#DejaVuSans-73" x="591.601562"/>
      <use xlink:href="#DejaVuSans-73" x="643.701172"/>
      <use xlink:href="#DejaVuSans-6d" x="695.800781"/>
      <use xlink:href="#DejaVuSans-75" x="793.212891"/>
      <use xlink:href="#DejaVuSans-6c" x="856.591797"/>
      <use xlink:href="#DejaVuSans-74" x="884.375"/>
      <use xlink:href="#DejaVuSans-69" x="923.583984"/>
      <use xlink:href="#DejaVuSans-70" x="951.367188"/>
      <use xlink:href="#DejaVuSans-6c" x="1014.84375"/>
      <use xlink:href="#DejaVuSans-69" x="1042.626953"/>
      <use xlink:href="#DejaVuSans-65" x="1070.410156"/>
      <use xlink:href="#DejaVuSans-72" x="1131.933594"/>
      <use xlink:href="#DejaVuSans-5f" x="1173.046875"/>
      <use xlink:href="#DejaVuSans-34" x="1223.046875"/>
      <use xlink:href="#DejaVuSans-2e" x="1286.669922"/>
      <use xlink:href="#DejaVuSans-30" x="1318.457031"/>
     </g>
    </g>
    <g id="line2d_75">
     <path d="M 81 171.955938 
L 91 171.955938 
L 101 171.955938 
" style="fill: none; stroke: #e377c2; stroke-linecap: square"/>
    </g>
    <g id="text_25">
     <!-- Nactor_4.0_ssmultiplier_6.0 -->
     <g transform="translate(109 175.455938) scale(0.1 -0.1)">
      <use xlink:href="#DejaVuSans-4e"/>
      <use xlink:href="#DejaVuSans-61" x="74.804688"/>
      <use xlink:href="#DejaVuSans-63" x="136.083984"/>
      <use xlink:href="#DejaVuSans-74" x="191.064453"/>
      <use xlink:href="#DejaVuSans-6f" x="230.273438"/>
      <use xlink:href="#DejaVuSans-72" x="291.455078"/>
      <use xlink:href="#DejaVuSans-5f" x="332.568359"/>
      <use xlink:href="#DejaVuSans-34" x="382.568359"/>
      <use xlink:href="#DejaVuSans-2e" x="446.191406"/>
      <use xlink:href="#DejaVuSans-30" x="477.978516"/>
      <use xlink:href="#DejaVuSans-5f" x="541.601562"/>
      <use xlink:href="#DejaVuSans-73" x="591.601562"/>
      <use xlink:href="#DejaVuSans-73" x="643.701172"/>
      <use xlink:href="#DejaVuSans-6d" x="695.800781"/>
      <use xlink:href="#DejaVuSans-75" x="793.212891"/>
      <use xlink:href="#DejaVuSans-6c" x="856.591797"/>
      <use xlink:href="#DejaVuSans-74" x="884.375"/>
      <use xlink:href="#DejaVuSans-69" x="923.583984"/>
      <use xlink:href="#DejaVuSans-70" x="951.367188"/>
      <use xlink:href="#DejaVuSans-6c" x="1014.84375"/>
      <use xlink:href="#DejaVuSans-69" x="1042.626953"/>
      <use xlink:href="#DejaVuSans-65" x="1070.410156"/>
      <use xlink:href="#DejaVuSans-72" x="1131.933594"/>
      <use xlink:href="#DejaVuSans-5f" x="1173.046875"/>
      <use xlink:href="#DejaVuSans-36" x="1223.046875"/>
      <use xlink:href="#DejaVuSans-2e" x="1286.669922"/>
      <use xlink:href="#DejaVuSans-30" x="1318.457031"/>
     </g>
    </g>
    <g id="line2d_76">
     <path d="M 81 186.912188 
L 91 186.912188 
L 101 186.912188 
" style="fill: none; stroke: #7f7f7f; stroke-linecap: square"/>
    </g>
    <g id="text_26">
     <!-- Nactor_4.0_ssmultiplier_8.0 -->
     <g transform="translate(109 190.412188) scale(0.1 -0.1)">
      <use xlink:href="#DejaVuSans-4e"/>
      <use xlink:href="#DejaVuSans-61" x="74.804688"/>
      <use xlink:href="#DejaVuSans-63" x="136.083984"/>
      <use xlink:href="#DejaVuSans-74" x="191.064453"/>
      <use xlink:href="#DejaVuSans-6f" x="230.273438"/>
      <use xlink:href="#DejaVuSans-72" x="291.455078"/>
      <use xlink:href="#DejaVuSans-5f" x="332.568359"/>
      <use xlink:href="#DejaVuSans-34" x="382.568359"/>
      <use xlink:href="#DejaVuSans-2e" x="446.191406"/>
      <use xlink:href="#DejaVuSans-30" x="477.978516"/>
      <use xlink:href="#DejaVuSans-5f" x="541.601562"/>
      <use xlink:href="#DejaVuSans-73" x="591.601562"/>
      <use xlink:href="#DejaVuSans-73" x="643.701172"/>
      <use xlink:href="#DejaVuSans-6d" x="695.800781"/>
      <use xlink:href="#DejaVuSans-75" x="793.212891"/>
      <use xlink:href="#DejaVuSans-6c" x="856.591797"/>
      <use xlink:href="#DejaVuSans-74" x="884.375"/>
      <use xlink:href="#DejaVuSans-69" x="923.583984"/>
      <use xlink:href="#DejaVuSans-70" x="951.367188"/>
      <use xlink:href="#DejaVuSans-6c" x="1014.84375"/>
      <use xlink:href="#DejaVuSans-69" x="1042.626953"/>
      <use xlink:href="#DejaVuSans-65" x="1070.410156"/>
      <use xlink:href="#DejaVuSans-72" x="1131.933594"/>
      <use xlink:href="#DejaVuSans-5f" x="1173.046875"/>
      <use xlink:href="#DejaVuSans-38" x="1223.046875"/>
      <use xlink:href="#DejaVuSans-2e" x="1286.669922"/>
      <use xlink:href="#DejaVuSans-30" x="1318.457031"/>
     </g>
    </g>
    <g id="line2d_77">
     <path d="M 81 201.868438 
L 91 201.868438 
L 101 201.868438 
" style="fill: none; stroke: #bcbd22; stroke-linecap: square"/>
    </g>
    <g id="text_27">
     <!-- Nactor_6.0_ssmultiplier_2.0 -->
     <g transform="translate(109 205.368438) scale(0.1 -0.1)">
      <use xlink:href="#DejaVuSans-4e"/>
      <use xlink:href="#DejaVuSans-61" x="74.804688"/>
      <use xlink:href="#DejaVuSans-63" x="136.083984"/>
      <use xlink:href="#DejaVuSans-74" x="191.064453"/>
      <use xlink:href="#DejaVuSans-6f" x="230.273438"/>
      <use xlink:href="#DejaVuSans-72" x="291.455078"/>
      <use xlink:href="#DejaVuSans-5f" x="332.568359"/>
      <use xlink:href="#DejaVuSans-36" x="382.568359"/>
      <use xlink:href="#DejaVuSans-2e" x="446.191406"/>
      <use xlink:href="#DejaVuSans-30" x="477.978516"/>
      <use xlink:href="#DejaVuSans-5f" x="541.601562"/>
      <use xlink:href="#DejaVuSans-73" x="591.601562"/>
      <use xlink:href="#DejaVuSans-73" x="643.701172"/>
      <use xlink:href="#DejaVuSans-6d" x="695.800781"/>
      <use xlink:href="#DejaVuSans-75" x="793.212891"/>
      <use xlink:href="#DejaVuSans-6c" x="856.591797"/>
      <use xlink:href="#DejaVuSans-74" x="884.375"/>
      <use xlink:href="#DejaVuSans-69" x="923.583984"/>
      <use xlink:href="#DejaVuSans-70" x="951.367188"/>
      <use xlink:href="#DejaVuSans-6c" x="1014.84375"/>
      <use xlink:href="#DejaVuSans-69" x="1042.626953"/>
      <use xlink:href="#DejaVuSans-65" x="1070.410156"/>
      <use xlink:href="#DejaVuSans-72" x="1131.933594"/>
      <use xlink:href="#DejaVuSans-5f" x="1173.046875"/>
      <use xlink:href="#DejaVuSans-32" x="1223.046875"/>
      <use xlink:href="#DejaVuSans-2e" x="1286.669922"/>
      <use xlink:href="#DejaVuSans-30" x="1318.457031"/>
     </g>
    </g>
    <g id="line2d_78">
     <path d="M 81 216.824687 
L 91 216.824687 
L 101 216.824687 
" style="fill: none; stroke: #17becf; stroke-linecap: square"/>
    </g>
    <g id="text_28">
     <!-- Nactor_6.0_ssmultiplier_4.0 -->
     <g transform="translate(109 220.324687) scale(0.1 -0.1)">
      <use xlink:href="#DejaVuSans-4e"/>
      <use xlink:href="#DejaVuSans-61" x="74.804688"/>
      <use xlink:href="#DejaVuSans-63" x="136.083984"/>
      <use xlink:href="#DejaVuSans-74" x="191.064453"/>
      <use xlink:href="#DejaVuSans-6f" x="230.273438"/>
      <use xlink:href="#DejaVuSans-72" x="291.455078"/>
      <use xlink:href="#DejaVuSans-5f" x="332.568359"/>
      <use xlink:href="#DejaVuSans-36" x="382.568359"/>
      <use xlink:href="#DejaVuSans-2e" x="446.191406"/>
      <use xlink:href="#DejaVuSans-30" x="477.978516"/>
      <use xlink:href="#DejaVuSans-5f" x="541.601562"/>
      <use xlink:href="#DejaVuSans-73" x="591.601562"/>
      <use xlink:href="#DejaVuSans-73" x="643.701172"/>
      <use xlink:href="#DejaVuSans-6d" x="695.800781"/>
      <use xlink:href="#DejaVuSans-75" x="793.212891"/>
      <use xlink:href="#DejaVuSans-6c" x="856.591797"/>
      <use xlink:href="#DejaVuSans-74" x="884.375"/>
      <use xlink:href="#DejaVuSans-69" x="923.583984"/>
      <use xlink:href="#DejaVuSans-70" x="951.367188"/>
      <use xlink:href="#DejaVuSans-6c" x="1014.84375"/>
      <use xlink:href="#DejaVuSans-69" x="1042.626953"/>
      <use xlink:href="#DejaVuSans-65" x="1070.410156"/>
      <use xlink:href="#DejaVuSans-72" x="1131.933594"/>
      <use xlink:href="#DejaVuSans-5f" x="1173.046875"/>
      <use xlink:href="#DejaVuSans-34" x="1223.046875"/>
      <use xlink:href="#DejaVuSans-2e" x="1286.669922"/>
      <use xlink:href="#DejaVuSans-30" x="1318.457031"/>
     </g>
    </g>
    <g id="line2d_79">
     <path d="M 81 231.780937 
L 91 231.780937 
L 101 231.780937 
" style="fill: none; stroke: #1f77b4; stroke-linecap: square"/>
    </g>
    <g id="text_29">
     <!-- Nactor_6.0_ssmultiplier_6.0 -->
     <g transform="translate(109 235.280937) scale(0.1 -0.1)">
      <use xlink:href="#DejaVuSans-4e"/>
      <use xlink:href="#DejaVuSans-61" x="74.804688"/>
      <use xlink:href="#DejaVuSans-63" x="136.083984"/>
      <use xlink:href="#DejaVuSans-74" x="191.064453"/>
      <use xlink:href="#DejaVuSans-6f" x="230.273438"/>
      <use xlink:href="#DejaVuSans-72" x="291.455078"/>
      <use xlink:href="#DejaVuSans-5f" x="332.568359"/>
      <use xlink:href="#DejaVuSans-36" x="382.568359"/>
      <use xlink:href="#DejaVuSans-2e" x="446.191406"/>
      <use xlink:href="#DejaVuSans-30" x="477.978516"/>
      <use xlink:href="#DejaVuSans-5f" x="541.601562"/>
      <use xlink:href="#DejaVuSans-73" x="591.601562"/>
      <use xlink:href="#DejaVuSans-73" x="643.701172"/>
      <use xlink:href="#DejaVuSans-6d" x="695.800781"/>
      <use xlink:href="#DejaVuSans-75" x="793.212891"/>
      <use xlink:href="#DejaVuSans-6c" x="856.591797"/>
      <use xlink:href="#DejaVuSans-74" x="884.375"/>
      <use xlink:href="#DejaVuSans-69" x="923.583984"/>
      <use xlink:href="#DejaVuSans-70" x="951.367188"/>
      <use xlink:href="#DejaVuSans-6c" x="1014.84375"/>
      <use xlink:href="#DejaVuSans-69" x="1042.626953"/>
      <use xlink:href="#DejaVuSans-65" x="1070.410156"/>
      <use xlink:href="#DejaVuSans-72" x="1131.933594"/>
      <use xlink:href="#DejaVuSans-5f" x="1173.046875"/>
      <use xlink:href="#DejaVuSans-36" x="1223.046875"/>
      <use xlink:href="#DejaVuSans-2e" x="1286.669922"/>
      <use xlink:href="#DejaVuSans-30" x="1318.457031"/>
     </g>
    </g>
    <g id="line2d_80">
     <path d="M 81 246.737188 
L 91 246.737188 
L 101 246.737188 
" style="fill: none; stroke: #ff7f0e; stroke-linecap: square"/>
    </g>
    <g id="text_30">
     <!-- Nactor_6.0_ssmultiplier_8.0 -->
     <g transform="translate(109 250.237188) scale(0.1 -0.1)">
      <use xlink:href="#DejaVuSans-4e"/>
      <use xlink:href="#DejaVuSans-61" x="74.804688"/>
      <use xlink:href="#DejaVuSans-63" x="136.083984"/>
      <use xlink:href="#DejaVuSans-74" x="191.064453"/>
      <use xlink:href="#DejaVuSans-6f" x="230.273438"/>
      <use xlink:href="#DejaVuSans-72" x="291.455078"/>
      <use xlink:href="#DejaVuSans-5f" x="332.568359"/>
      <use xlink:href="#DejaVuSans-36" x="382.568359"/>
      <use xlink:href="#DejaVuSans-2e" x="446.191406"/>
      <use xlink:href="#DejaVuSans-30" x="477.978516"/>
      <use xlink:href="#DejaVuSans-5f" x="541.601562"/>
      <use xlink:href="#DejaVuSans-73" x="591.601562"/>
      <use xlink:href="#DejaVuSans-73" x="643.701172"/>
      <use xlink:href="#DejaVuSans-6d" x="695.800781"/>
      <use xlink:href="#DejaVuSans-75" x="793.212891"/>
      <use xlink:href="#DejaVuSans-6c" x="856.591797"/>
      <use xlink:href="#DejaVuSans-74" x="884.375"/>
      <use xlink:href="#DejaVuSans-69" x="923.583984"/>
      <use xlink:href="#DejaVuSans-70" x="951.367188"/>
      <use xlink:href="#DejaVuSans-6c" x="1014.84375"/>
      <use xlink:href="#DejaVuSans-69" x="1042.626953"/>
      <use xlink:href="#DejaVuSans-65" x="1070.410156"/>
      <use xlink:href="#DejaVuSans-72" x="1131.933594"/>
      <use xlink:href="#DejaVuSans-5f" x="1173.046875"/>
      <use xlink:href="#DejaVuSans-38" x="1223.046875"/>
      <use xlink:href="#DejaVuSans-2e" x="1286.669922"/>
      <use xlink:href="#DejaVuSans-30" x="1318.457031"/>
     </g>
    </g>
   </g>
  </g>
 </g>
 <defs>
  <clipPath id="pc9458104cf">
   <rect x="72" y="69.12" width="446.4" height="443.52"/>
  </clipPath>
 </defs>
</svg>
