<?xml version="1.0" encoding="utf-8" standalone="no"?>
<!DOCTYPE svg PUBLIC "-//W3C//DTD SVG 1.1//EN"
  "http://www.w3.org/Graphics/SVG/1.1/DTD/svg11.dtd">
<svg xmlns:xlink="http://www.w3.org/1999/xlink" width="576pt" height="576pt" viewBox="0 0 576 576" xmlns="http://www.w3.org/2000/svg" version="1.1">
 <metadata>
  <rdf:RDF xmlns:dc="http://purl.org/dc/elements/1.1/" xmlns:cc="http://creativecommons.org/ns#" xmlns:rdf="http://www.w3.org/1999/02/22-rdf-syntax-ns#">
   <cc:Work>
    <dc:type rdf:resource="http://purl.org/dc/dcmitype/StillImage"/>
    <dc:date>2024-07-15T20:43:02.058349</dc:date>
    <dc:format>image/svg+xml</dc:format>
    <dc:creator>
     <cc:Agent>
      <dc:title>Matplotlib v3.7.2, https://matplotlib.org/</dc:title>
     </cc:Agent>
    </dc:creator>
   </cc:Work>
  </rdf:RDF>
 </metadata>
 <defs>
  <style type="text/css">*{stroke-linejoin: round; stroke-linecap: butt}</style>
 </defs>
 <g id="figure_1">
  <g id="patch_1">
   <path d="M 0 576 
L 576 576 
L 576 0 
L 0 0 
z
" style="fill: #ffffff"/>
  </g>
  <g id="axes_1">
   <g id="patch_2">
    <path d="M 72 512.64 
L 518.4 512.64 
L 518.4 69.12 
L 72 69.12 
z
" style="fill: #ffffff"/>
   </g>
   <g id="matplotlib.axis_1">
    <g id="xtick_1">
     <g id="line2d_1">
      <path d="M 99.059992 512.64 
L 99.059992 69.12 
" clip-path="url(#pef80454e85)" style="fill: none; stroke: #b0b0b0; stroke-width: 0.8; stroke-linecap: square"/>
     </g>
     <g id="line2d_2">
      <defs>
       <path id="m7b6dbf6ee1" d="M 0 0 
L 0 3.5 
" style="stroke: #000000; stroke-width: 0.8"/>
      </defs>
      <g>
       <use xlink:href="#m7b6dbf6ee1" x="99.059992" y="512.64" style="stroke: #000000; stroke-width: 0.8"/>
      </g>
     </g>
     <g id="text_1">
      <!-- −3.0 -->
      <g transform="translate(86.918586 527.238438) scale(0.1 -0.1)">
       <defs>
        <path id="DejaVuSans-2212" d="M 678 2272 
L 4684 2272 
L 4684 1741 
L 678 1741 
L 678 2272 
z
" transform="scale(0.015625)"/>
        <path id="DejaVuSans-33" d="M 2597 2516 
Q 3050 2419 3304 2112 
Q 3559 1806 3559 1356 
Q 3559 666 3084 287 
Q 2609 -91 1734 -91 
Q 1441 -91 1130 -33 
Q 819 25 488 141 
L 488 750 
Q 750 597 1062 519 
Q 1375 441 1716 441 
Q 2309 441 2620 675 
Q 2931 909 2931 1356 
Q 2931 1769 2642 2001 
Q 2353 2234 1838 2234 
L 1294 2234 
L 1294 2753 
L 1863 2753 
Q 2328 2753 2575 2939 
Q 2822 3125 2822 3475 
Q 2822 3834 2567 4026 
Q 2313 4219 1838 4219 
Q 1578 4219 1281 4162 
Q 984 4106 628 3988 
L 628 4550 
Q 988 4650 1302 4700 
Q 1616 4750 1894 4750 
Q 2613 4750 3031 4423 
Q 3450 4097 3450 3541 
Q 3450 3153 3228 2886 
Q 3006 2619 2597 2516 
z
" transform="scale(0.015625)"/>
        <path id="DejaVuSans-2e" d="M 684 794 
L 1344 794 
L 1344 0 
L 684 0 
L 684 794 
z
" transform="scale(0.015625)"/>
        <path id="DejaVuSans-30" d="M 2034 4250 
Q 1547 4250 1301 3770 
Q 1056 3291 1056 2328 
Q 1056 1369 1301 889 
Q 1547 409 2034 409 
Q 2525 409 2770 889 
Q 3016 1369 3016 2328 
Q 3016 3291 2770 3770 
Q 2525 4250 2034 4250 
z
M 2034 4750 
Q 2819 4750 3233 4129 
Q 3647 3509 3647 2328 
Q 3647 1150 3233 529 
Q 2819 -91 2034 -91 
Q 1250 -91 836 529 
Q 422 1150 422 2328 
Q 422 3509 836 4129 
Q 1250 4750 2034 4750 
z
" transform="scale(0.015625)"/>
       </defs>
       <use xlink:href="#DejaVuSans-2212"/>
       <use xlink:href="#DejaVuSans-33" x="83.789062"/>
       <use xlink:href="#DejaVuSans-2e" x="147.412109"/>
       <use xlink:href="#DejaVuSans-30" x="179.199219"/>
      </g>
     </g>
    </g>
    <g id="xtick_2">
     <g id="line2d_3">
      <path d="M 159.375449 512.64 
L 159.375449 69.12 
" clip-path="url(#pef80454e85)" style="fill: none; stroke: #b0b0b0; stroke-width: 0.8; stroke-linecap: square"/>
     </g>
     <g id="line2d_4">
      <g>
       <use xlink:href="#m7b6dbf6ee1" x="159.375449" y="512.64" style="stroke: #000000; stroke-width: 0.8"/>
      </g>
     </g>
     <g id="text_2">
      <!-- −2.5 -->
      <g transform="translate(147.234043 527.238438) scale(0.1 -0.1)">
       <defs>
        <path id="DejaVuSans-32" d="M 1228 531 
L 3431 531 
L 3431 0 
L 469 0 
L 469 531 
Q 828 903 1448 1529 
Q 2069 2156 2228 2338 
Q 2531 2678 2651 2914 
Q 2772 3150 2772 3378 
Q 2772 3750 2511 3984 
Q 2250 4219 1831 4219 
Q 1534 4219 1204 4116 
Q 875 4013 500 3803 
L 500 4441 
Q 881 4594 1212 4672 
Q 1544 4750 1819 4750 
Q 2544 4750 2975 4387 
Q 3406 4025 3406 3419 
Q 3406 3131 3298 2873 
Q 3191 2616 2906 2266 
Q 2828 2175 2409 1742 
Q 1991 1309 1228 531 
z
" transform="scale(0.015625)"/>
        <path id="DejaVuSans-35" d="M 691 4666 
L 3169 4666 
L 3169 4134 
L 1269 4134 
L 1269 2991 
Q 1406 3038 1543 3061 
Q 1681 3084 1819 3084 
Q 2600 3084 3056 2656 
Q 3513 2228 3513 1497 
Q 3513 744 3044 326 
Q 2575 -91 1722 -91 
Q 1428 -91 1123 -41 
Q 819 9 494 109 
L 494 744 
Q 775 591 1075 516 
Q 1375 441 1709 441 
Q 2250 441 2565 725 
Q 2881 1009 2881 1497 
Q 2881 1984 2565 2268 
Q 2250 2553 1709 2553 
Q 1456 2553 1204 2497 
Q 953 2441 691 2322 
L 691 4666 
z
" transform="scale(0.015625)"/>
       </defs>
       <use xlink:href="#DejaVuSans-2212"/>
       <use xlink:href="#DejaVuSans-32" x="83.789062"/>
       <use xlink:href="#DejaVuSans-2e" x="147.412109"/>
       <use xlink:href="#DejaVuSans-35" x="179.199219"/>
      </g>
     </g>
    </g>
    <g id="xtick_3">
     <g id="line2d_5">
      <path d="M 219.690907 512.64 
L 219.690907 69.12 
" clip-path="url(#pef80454e85)" style="fill: none; stroke: #b0b0b0; stroke-width: 0.8; stroke-linecap: square"/>
     </g>
     <g id="line2d_6">
      <g>
       <use xlink:href="#m7b6dbf6ee1" x="219.690907" y="512.64" style="stroke: #000000; stroke-width: 0.8"/>
      </g>
     </g>
     <g id="text_3">
      <!-- −2.0 -->
      <g transform="translate(207.5495 527.238438) scale(0.1 -0.1)">
       <use xlink:href="#DejaVuSans-2212"/>
       <use xlink:href="#DejaVuSans-32" x="83.789062"/>
       <use xlink:href="#DejaVuSans-2e" x="147.412109"/>
       <use xlink:href="#DejaVuSans-30" x="179.199219"/>
      </g>
     </g>
    </g>
    <g id="xtick_4">
     <g id="line2d_7">
      <path d="M 280.006364 512.64 
L 280.006364 69.12 
" clip-path="url(#pef80454e85)" style="fill: none; stroke: #b0b0b0; stroke-width: 0.8; stroke-linecap: square"/>
     </g>
     <g id="line2d_8">
      <g>
       <use xlink:href="#m7b6dbf6ee1" x="280.006364" y="512.64" style="stroke: #000000; stroke-width: 0.8"/>
      </g>
     </g>
     <g id="text_4">
      <!-- −1.5 -->
      <g transform="translate(267.864958 527.238438) scale(0.1 -0.1)">
       <defs>
        <path id="DejaVuSans-31" d="M 794 531 
L 1825 531 
L 1825 4091 
L 703 3866 
L 703 4441 
L 1819 4666 
L 2450 4666 
L 2450 531 
L 3481 531 
L 3481 0 
L 794 0 
L 794 531 
z
" transform="scale(0.015625)"/>
       </defs>
       <use xlink:href="#DejaVuSans-2212"/>
       <use xlink:href="#DejaVuSans-31" x="83.789062"/>
       <use xlink:href="#DejaVuSans-2e" x="147.412109"/>
       <use xlink:href="#DejaVuSans-35" x="179.199219"/>
      </g>
     </g>
    </g>
    <g id="xtick_5">
     <g id="line2d_9">
      <path d="M 340.321821 512.64 
L 340.321821 69.12 
" clip-path="url(#pef80454e85)" style="fill: none; stroke: #b0b0b0; stroke-width: 0.8; stroke-linecap: square"/>
     </g>
     <g id="line2d_10">
      <g>
       <use xlink:href="#m7b6dbf6ee1" x="340.321821" y="512.64" style="stroke: #000000; stroke-width: 0.8"/>
      </g>
     </g>
     <g id="text_5">
      <!-- −1.0 -->
      <g transform="translate(328.180415 527.238438) scale(0.1 -0.1)">
       <use xlink:href="#DejaVuSans-2212"/>
       <use xlink:href="#DejaVuSans-31" x="83.789062"/>
       <use xlink:href="#DejaVuSans-2e" x="147.412109"/>
       <use xlink:href="#DejaVuSans-30" x="179.199219"/>
      </g>
     </g>
    </g>
    <g id="xtick_6">
     <g id="line2d_11">
      <path d="M 400.637278 512.64 
L 400.637278 69.12 
" clip-path="url(#pef80454e85)" style="fill: none; stroke: #b0b0b0; stroke-width: 0.8; stroke-linecap: square"/>
     </g>
     <g id="line2d_12">
      <g>
       <use xlink:href="#m7b6dbf6ee1" x="400.637278" y="512.64" style="stroke: #000000; stroke-width: 0.8"/>
      </g>
     </g>
     <g id="text_6">
      <!-- −0.5 -->
      <g transform="translate(388.495872 527.238438) scale(0.1 -0.1)">
       <use xlink:href="#DejaVuSans-2212"/>
       <use xlink:href="#DejaVuSans-30" x="83.789062"/>
       <use xlink:href="#DejaVuSans-2e" x="147.412109"/>
       <use xlink:href="#DejaVuSans-35" x="179.199219"/>
      </g>
     </g>
    </g>
    <g id="xtick_7">
     <g id="line2d_13">
      <path d="M 460.952736 512.64 
L 460.952736 69.12 
" clip-path="url(#pef80454e85)" style="fill: none; stroke: #b0b0b0; stroke-width: 0.8; stroke-linecap: square"/>
     </g>
     <g id="line2d_14">
      <g>
       <use xlink:href="#m7b6dbf6ee1" x="460.952736" y="512.64" style="stroke: #000000; stroke-width: 0.8"/>
      </g>
     </g>
     <g id="text_7">
      <!-- 0.0 -->
      <g transform="translate(453.001173 527.238438) scale(0.1 -0.1)">
       <use xlink:href="#DejaVuSans-30"/>
       <use xlink:href="#DejaVuSans-2e" x="63.623047"/>
       <use xlink:href="#DejaVuSans-30" x="95.410156"/>
      </g>
     </g>
    </g>
    <g id="text_8">
     <!-- X axis -->
     <g transform="translate(280.16875 540.916563) scale(0.1 -0.1)">
      <defs>
       <path id="DejaVuSans-58" d="M 403 4666 
L 1081 4666 
L 2241 2931 
L 3406 4666 
L 4084 4666 
L 2584 2425 
L 4184 0 
L 3506 0 
L 2194 1984 
L 872 0 
L 191 0 
L 1856 2491 
L 403 4666 
z
" transform="scale(0.015625)"/>
       <path id="DejaVuSans-20" transform="scale(0.015625)"/>
       <path id="DejaVuSans-61" d="M 2194 1759 
Q 1497 1759 1228 1600 
Q 959 1441 959 1056 
Q 959 750 1161 570 
Q 1363 391 1709 391 
Q 2188 391 2477 730 
Q 2766 1069 2766 1631 
L 2766 1759 
L 2194 1759 
z
M 3341 1997 
L 3341 0 
L 2766 0 
L 2766 531 
Q 2569 213 2275 61 
Q 1981 -91 1556 -91 
Q 1019 -91 701 211 
Q 384 513 384 1019 
Q 384 1609 779 1909 
Q 1175 2209 1959 2209 
L 2766 2209 
L 2766 2266 
Q 2766 2663 2505 2880 
Q 2244 3097 1772 3097 
Q 1472 3097 1187 3025 
Q 903 2953 641 2809 
L 641 3341 
Q 956 3463 1253 3523 
Q 1550 3584 1831 3584 
Q 2591 3584 2966 3190 
Q 3341 2797 3341 1997 
z
" transform="scale(0.015625)"/>
       <path id="DejaVuSans-78" d="M 3513 3500 
L 2247 1797 
L 3578 0 
L 2900 0 
L 1881 1375 
L 863 0 
L 184 0 
L 1544 1831 
L 300 3500 
L 978 3500 
L 1906 2253 
L 2834 3500 
L 3513 3500 
z
" transform="scale(0.015625)"/>
       <path id="DejaVuSans-69" d="M 603 3500 
L 1178 3500 
L 1178 0 
L 603 0 
L 603 3500 
z
M 603 4863 
L 1178 4863 
L 1178 4134 
L 603 4134 
L 603 4863 
z
" transform="scale(0.015625)"/>
       <path id="DejaVuSans-73" d="M 2834 3397 
L 2834 2853 
Q 2591 2978 2328 3040 
Q 2066 3103 1784 3103 
Q 1356 3103 1142 2972 
Q 928 2841 928 2578 
Q 928 2378 1081 2264 
Q 1234 2150 1697 2047 
L 1894 2003 
Q 2506 1872 2764 1633 
Q 3022 1394 3022 966 
Q 3022 478 2636 193 
Q 2250 -91 1575 -91 
Q 1294 -91 989 -36 
Q 684 19 347 128 
L 347 722 
Q 666 556 975 473 
Q 1284 391 1588 391 
Q 1994 391 2212 530 
Q 2431 669 2431 922 
Q 2431 1156 2273 1281 
Q 2116 1406 1581 1522 
L 1381 1569 
Q 847 1681 609 1914 
Q 372 2147 372 2553 
Q 372 3047 722 3315 
Q 1072 3584 1716 3584 
Q 2034 3584 2315 3537 
Q 2597 3491 2834 3397 
z
" transform="scale(0.015625)"/>
      </defs>
      <use xlink:href="#DejaVuSans-58"/>
      <use xlink:href="#DejaVuSans-20" x="68.505859"/>
      <use xlink:href="#DejaVuSans-61" x="100.292969"/>
      <use xlink:href="#DejaVuSans-78" x="161.572266"/>
      <use xlink:href="#DejaVuSans-69" x="220.751953"/>
      <use xlink:href="#DejaVuSans-73" x="248.535156"/>
     </g>
    </g>
   </g>
   <g id="matplotlib.axis_2">
    <g id="ytick_1">
     <g id="line2d_15">
      <path d="M 72 502.407223 
L 518.4 502.407223 
" clip-path="url(#pef80454e85)" style="fill: none; stroke: #b0b0b0; stroke-width: 0.8; stroke-linecap: square"/>
     </g>
     <g id="line2d_16">
      <defs>
       <path id="m2d85c0a711" d="M 0 0 
L -3.5 0 
" style="stroke: #000000; stroke-width: 0.8"/>
      </defs>
      <g>
       <use xlink:href="#m2d85c0a711" x="72" y="502.407223" style="stroke: #000000; stroke-width: 0.8"/>
      </g>
     </g>
     <g id="text_9">
      <!-- −3.5 -->
      <g transform="translate(40.717187 506.206442) scale(0.1 -0.1)">
       <use xlink:href="#DejaVuSans-2212"/>
       <use xlink:href="#DejaVuSans-33" x="83.789062"/>
       <use xlink:href="#DejaVuSans-2e" x="147.412109"/>
       <use xlink:href="#DejaVuSans-35" x="179.199219"/>
      </g>
     </g>
    </g>
    <g id="ytick_2">
     <g id="line2d_17">
      <path d="M 72 448.89067 
L 518.4 448.89067 
" clip-path="url(#pef80454e85)" style="fill: none; stroke: #b0b0b0; stroke-width: 0.8; stroke-linecap: square"/>
     </g>
     <g id="line2d_18">
      <g>
       <use xlink:href="#m2d85c0a711" x="72" y="448.89067" style="stroke: #000000; stroke-width: 0.8"/>
      </g>
     </g>
     <g id="text_10">
      <!-- −3.0 -->
      <g transform="translate(40.717187 452.689888) scale(0.1 -0.1)">
       <use xlink:href="#DejaVuSans-2212"/>
       <use xlink:href="#DejaVuSans-33" x="83.789062"/>
       <use xlink:href="#DejaVuSans-2e" x="147.412109"/>
       <use xlink:href="#DejaVuSans-30" x="179.199219"/>
      </g>
     </g>
    </g>
    <g id="ytick_3">
     <g id="line2d_19">
      <path d="M 72 395.374117 
L 518.4 395.374117 
" clip-path="url(#pef80454e85)" style="fill: none; stroke: #b0b0b0; stroke-width: 0.8; stroke-linecap: square"/>
     </g>
     <g id="line2d_20">
      <g>
       <use xlink:href="#m2d85c0a711" x="72" y="395.374117" style="stroke: #000000; stroke-width: 0.8"/>
      </g>
     </g>
     <g id="text_11">
      <!-- −2.5 -->
      <g transform="translate(40.717187 399.173335) scale(0.1 -0.1)">
       <use xlink:href="#DejaVuSans-2212"/>
       <use xlink:href="#DejaVuSans-32" x="83.789062"/>
       <use xlink:href="#DejaVuSans-2e" x="147.412109"/>
       <use xlink:href="#DejaVuSans-35" x="179.199219"/>
      </g>
     </g>
    </g>
    <g id="ytick_4">
     <g id="line2d_21">
      <path d="M 72 341.857564 
L 518.4 341.857564 
" clip-path="url(#pef80454e85)" style="fill: none; stroke: #b0b0b0; stroke-width: 0.8; stroke-linecap: square"/>
     </g>
     <g id="line2d_22">
      <g>
       <use xlink:href="#m2d85c0a711" x="72" y="341.857564" style="stroke: #000000; stroke-width: 0.8"/>
      </g>
     </g>
     <g id="text_12">
      <!-- −2.0 -->
      <g transform="translate(40.717187 345.656782) scale(0.1 -0.1)">
       <use xlink:href="#DejaVuSans-2212"/>
       <use xlink:href="#DejaVuSans-32" x="83.789062"/>
       <use xlink:href="#DejaVuSans-2e" x="147.412109"/>
       <use xlink:href="#DejaVuSans-30" x="179.199219"/>
      </g>
     </g>
    </g>
    <g id="ytick_5">
     <g id="line2d_23">
      <path d="M 72 288.34101 
L 518.4 288.34101 
" clip-path="url(#pef80454e85)" style="fill: none; stroke: #b0b0b0; stroke-width: 0.8; stroke-linecap: square"/>
     </g>
     <g id="line2d_24">
      <g>
       <use xlink:href="#m2d85c0a711" x="72" y="288.34101" style="stroke: #000000; stroke-width: 0.8"/>
      </g>
     </g>
     <g id="text_13">
      <!-- −1.5 -->
      <g transform="translate(40.717187 292.140229) scale(0.1 -0.1)">
       <use xlink:href="#DejaVuSans-2212"/>
       <use xlink:href="#DejaVuSans-31" x="83.789062"/>
       <use xlink:href="#DejaVuSans-2e" x="147.412109"/>
       <use xlink:href="#DejaVuSans-35" x="179.199219"/>
      </g>
     </g>
    </g>
    <g id="ytick_6">
     <g id="line2d_25">
      <path d="M 72 234.824457 
L 518.4 234.824457 
" clip-path="url(#pef80454e85)" style="fill: none; stroke: #b0b0b0; stroke-width: 0.8; stroke-linecap: square"/>
     </g>
     <g id="line2d_26">
      <g>
       <use xlink:href="#m2d85c0a711" x="72" y="234.824457" style="stroke: #000000; stroke-width: 0.8"/>
      </g>
     </g>
     <g id="text_14">
      <!-- −1.0 -->
      <g transform="translate(40.717187 238.623676) scale(0.1 -0.1)">
       <use xlink:href="#DejaVuSans-2212"/>
       <use xlink:href="#DejaVuSans-31" x="83.789062"/>
       <use xlink:href="#DejaVuSans-2e" x="147.412109"/>
       <use xlink:href="#DejaVuSans-30" x="179.199219"/>
      </g>
     </g>
    </g>
    <g id="ytick_7">
     <g id="line2d_27">
      <path d="M 72 181.307904 
L 518.4 181.307904 
" clip-path="url(#pef80454e85)" style="fill: none; stroke: #b0b0b0; stroke-width: 0.8; stroke-linecap: square"/>
     </g>
     <g id="line2d_28">
      <g>
       <use xlink:href="#m2d85c0a711" x="72" y="181.307904" style="stroke: #000000; stroke-width: 0.8"/>
      </g>
     </g>
     <g id="text_15">
      <!-- −0.5 -->
      <g transform="translate(40.717187 185.107123) scale(0.1 -0.1)">
       <use xlink:href="#DejaVuSans-2212"/>
       <use xlink:href="#DejaVuSans-30" x="83.789062"/>
       <use xlink:href="#DejaVuSans-2e" x="147.412109"/>
       <use xlink:href="#DejaVuSans-35" x="179.199219"/>
      </g>
     </g>
    </g>
    <g id="ytick_8">
     <g id="line2d_29">
      <path d="M 72 127.791351 
L 518.4 127.791351 
" clip-path="url(#pef80454e85)" style="fill: none; stroke: #b0b0b0; stroke-width: 0.8; stroke-linecap: square"/>
     </g>
     <g id="line2d_30">
      <g>
       <use xlink:href="#m2d85c0a711" x="72" y="127.791351" style="stroke: #000000; stroke-width: 0.8"/>
      </g>
     </g>
     <g id="text_16">
      <!-- 0.0 -->
      <g transform="translate(49.096875 131.59057) scale(0.1 -0.1)">
       <use xlink:href="#DejaVuSans-30"/>
       <use xlink:href="#DejaVuSans-2e" x="63.623047"/>
       <use xlink:href="#DejaVuSans-30" x="95.410156"/>
      </g>
     </g>
    </g>
    <g id="ytick_9">
     <g id="line2d_31">
      <path d="M 72 74.274798 
L 518.4 74.274798 
" clip-path="url(#pef80454e85)" style="fill: none; stroke: #b0b0b0; stroke-width: 0.8; stroke-linecap: square"/>
     </g>
     <g id="line2d_32">
      <g>
       <use xlink:href="#m2d85c0a711" x="72" y="74.274798" style="stroke: #000000; stroke-width: 0.8"/>
      </g>
     </g>
     <g id="text_17">
      <!-- 0.5 -->
      <g transform="translate(49.096875 78.074017) scale(0.1 -0.1)">
       <use xlink:href="#DejaVuSans-30"/>
       <use xlink:href="#DejaVuSans-2e" x="63.623047"/>
       <use xlink:href="#DejaVuSans-35" x="95.410156"/>
      </g>
     </g>
    </g>
    <g id="text_18">
     <!-- Y axis -->
     <g transform="translate(34.6375 305.540156) rotate(-90) scale(0.1 -0.1)">
      <defs>
       <path id="DejaVuSans-59" d="M -13 4666 
L 666 4666 
L 1959 2747 
L 3244 4666 
L 3922 4666 
L 2272 2222 
L 2272 0 
L 1638 0 
L 1638 2222 
L -13 4666 
z
" transform="scale(0.015625)"/>
      </defs>
      <use xlink:href="#DejaVuSans-59"/>
      <use xlink:href="#DejaVuSans-20" x="61.083984"/>
      <use xlink:href="#DejaVuSans-61" x="92.871094"/>
      <use xlink:href="#DejaVuSans-78" x="154.150391"/>
      <use xlink:href="#DejaVuSans-69" x="213.330078"/>
      <use xlink:href="#DejaVuSans-73" x="241.113281"/>
     </g>
    </g>
   </g>
   <g id="line2d_33">
    <path d="M 99.059992 448.89067 
L 99.035872 448.890688 
L 98.9047 448.890693 
L 97.593028 448.881754 
L 94.940345 448.813717 
L 92.290909 448.678872 
L 116.134097 450.152085 
L 142.626737 451.538392 
L 169.134673 452.671351 
L 195.655902 453.525767 
L 222.187539 454.065259 
L 248.724937 454.289733 
L 275.265026 454.2889 
L 301.803587 454.192576 
L 328.341489 454.000748 
L 354.879452 453.767184 
L 381.417316 453.569645 
L 407.955551 453.41543 
L 434.494106 453.315102 
L 449.405804 453.283132 
L 463.151493 453.270821 
L 467.168271 453.27042 
L 470.209367 453.271445 
L 469.060138 453.270814 
L 467.490676 453.270021 
L 465.921213 453.269287 
L 464.24696 453.268625 
L 462.562197 453.268163 
L 461.628674 453.268003 
L 460.770489 453.267931 
L 460.51781 453.26792 
L 460.325854 453.267906 
L 460.450807 453.267905 
L 460.607541 453.267877 
L 460.7738 453.267823 
L 460.941014 453.267757 
L 461.092875 453.26768 
L 461.243197 453.267583 
L 461.2782 453.267559 
L 461.301638 453.267547 
L 461.28433 453.267553 
L 461.262935 453.267557 
L 461.210657 453.267562 
L 461.155283 453.267562 
L 461.092806 453.267558 
L 461.029618 453.267552 
L 460.966429 453.267545 
L 460.931785 453.267541 
L 460.900004 453.267537 
L 460.868223 453.267535 
L 460.866814 453.267534 
L 460.868451 453.267534 
L 460.870088 453.267535 
L 460.884209 453.267535 
L 460.899582 453.267535 
L 460.914955 453.267535 
L 460.926471 453.267535 
L 460.9376 453.267535 
L 460.948729 453.267535 
L 460.951424 453.267535 
L 460.953273 453.267535 
L 460.955121 453.267535 
L 460.952378 453.267535 
L 460.949174 453.267535 
L 460.94597 453.267535 
L 460.942998 453.267535 
L 460.94005 453.267535 
L 460.937101 453.267535 
L 460.936113 453.267535 
L 460.935322 453.267535 
L 460.93453 453.267535 
L 460.934992 453.267535 
L 460.93558 453.267535 
L 460.935842 453.267535 
" clip-path="url(#pef80454e85)" style="fill: none; stroke: #1f77b4; stroke-linecap: square"/>
   </g>
   <g id="line2d_34">
    <defs>
     <path id="m8214b35739" d="M 0 3 
C 0.795609 3 1.55874 2.683901 2.12132 2.12132 
C 2.683901 1.55874 3 0.795609 3 0 
C 3 -0.795609 2.683901 -1.55874 2.12132 -2.12132 
C 1.55874 -2.683901 0.795609 -3 0 -3 
C -0.795609 -3 -1.55874 -2.683901 -2.12132 -2.12132 
C -2.683901 -1.55874 -3 -0.795609 -3 0 
C -3 0.795609 -2.683901 1.55874 -2.12132 2.12132 
C -1.55874 2.683901 -0.795609 3 0 3 
z
" style="stroke: #ff0000"/>
    </defs>
    <g clip-path="url(#pef80454e85)">
     <use xlink:href="#m8214b35739" x="99.059992" y="448.89067" style="fill: #ff0000; stroke: #ff0000"/>
    </g>
   </g>
   <g id="line2d_35">
    <path d="M 99.084118 470.29728 
L 99.035866 427.484059 
" clip-path="url(#pef80454e85)" style="fill: none; stroke: #008000; stroke-width: 1.5; stroke-linecap: square"/>
   </g>
   <g id="line2d_36">
    <path d="M 99.059992 448.89067 
L 99.035872 448.890688 
L 98.9047 448.890693 
L 97.593028 448.881754 
L 94.940345 448.813717 
L 92.290909 448.678872 
L 116.124195 450.203174 
L 142.60431 451.767853 
L 169.093541 453.205934 
L 195.59273 454.492497 
L 222.102541 455.591497 
L 248.621387 456.502868 
L 275.146829 457.251939 
L 301.676296 457.875373 
L 328.209135 458.373155 
L 347.708866 458.664382 
L 366.50386 458.894411 
L 380.432647 459.033938 
L 393.87362 459.145356 
L 403.808884 459.213339 
L 413.392641 459.267759 
L 420.449928 459.301226 
L 427.253863 459.328832 
L 432.263084 459.346142 
L 437.092328 459.360247 
L 441.921581 459.371817 
L 444.945107 459.377746 
L 447.787545 459.382349 
L 449.779784 459.385014 
L 451.68676 459.38713 
L 453.07194 459.388399 
L 454.404791 459.389406 
L 455.38166 459.390014 
L 456.322828 459.390499 
L 457.014358 459.390794 
L 457.680852 459.39103 
L 458.170395 459.391173 
L 458.642193 459.391288 
L 458.988477 459.391358 
L 459.322173 459.391414 
L 459.565721 459.391449 
L 459.800228 459.39148 
L 459.954411 459.391507 
L 460.100537 459.391552 
L 460.215635 459.391594 
L 460.327622 459.391632 
L 460.439608 459.391666 
L 460.505592 459.391683 
L 460.566963 459.391697 
L 460.628334 459.391708 
L 460.667962 459.391714 
L 460.70541 459.391719 
L 460.742858 459.391723 
L 460.77203 459.391723 
L 460.800373 459.39172 
L 460.828715 459.391712 
L 460.84268 459.391706 
L 460.855203 459.3917 
L 460.867726 459.391692 
L 460.906188 459.391668 
L 460.947253 459.391646 
L 460.988317 459.391626 
L 461.014595 459.391614 
L 461.03939 459.391605 
L 461.064185 459.391597 
L 461.074107 459.391594 
L 461.082537 459.391592 
L 461.090968 459.39159 
L 461.086883 459.391591 
L 461.081543 459.391592 
L 461.076203 459.391594 
L 461.069609 459.391596 
L 461.06289 459.391598 
L 461.059898 459.391598 
" clip-path="url(#pef80454e85)" style="fill: none; stroke: #ff7f0e; stroke-linecap: square"/>
   </g>
   <g id="line2d_37">
    <g clip-path="url(#pef80454e85)">
     <use xlink:href="#m8214b35739" x="99.059992" y="448.89067" style="fill: #ff0000; stroke: #ff0000"/>
    </g>
   </g>
   <g id="line2d_38">
    <path d="M 99.084118 470.29728 
L 99.035866 427.484059 
" clip-path="url(#pef80454e85)" style="fill: none; stroke: #008000; stroke-width: 1.5; stroke-linecap: square"/>
   </g>
   <g id="line2d_39">
    <path d="M 99.059992 448.89067 
L 99.035872 448.890688 
L 98.9047 448.890693 
L 97.593028 448.881754 
L 94.940345 448.813717 
L 92.290909 448.678872 
L 116.121044 450.220227 
L 142.596629 451.844346 
L 169.078618 453.384084 
L 193.650523 454.716596 
L 218.038067 455.917021 
L 242.432808 456.996194 
L 261.539493 457.754033 
L 280.118959 458.413148 
L 298.701674 458.995688 
L 313.013727 459.39379 
L 326.89854 459.740702 
L 338.519378 460.001731 
L 349.913747 460.232363 
L 359.538855 460.407839 
L 368.986847 460.563119 
L 376.972168 460.681361 
L 384.810975 460.786006 
L 391.434038 460.865668 
L 397.935272 460.936167 
L 404.436606 460.999043 
L 409.463887 461.042698 
L 414.343371 461.08135 
L 418.417526 461.11077 
L 422.410938 461.137003 
L 425.773491 461.157067 
L 429.072789 461.174908 
L 431.854721 461.188524 
L 434.584774 461.200606 
L 436.887653 461.20981 
L 439.147696 461.217966 
L 441.054243 461.224173 
L 442.925342 461.229669 
L 444.509496 461.233824 
L 446.064875 461.237399 
L 447.37673 461.240038 
L 448.664163 461.242312 
L 449.751311 461.243997 
L 450.818373 461.245456 
L 451.718395 461.246544 
L 452.601665 461.247492 
L 453.484935 461.248321 
L 454.165971 461.248884 
L 454.826726 461.249371 
L 455.487481 461.2498 
L 455.989423 461.250089 
L 456.475439 461.250341 
L 456.961455 461.250564 
L 457.329192 461.250714 
L 457.685067 461.250845 
L 458.040941 461.250962 
L 458.309577 461.25104 
L 458.569464 461.251109 
L 458.829351 461.251171 
L 459.021775 461.251214 
L 459.207433 461.251259 
L 459.39309 461.251307 
L 459.534201 461.251343 
L 459.670844 461.251375 
L 459.807486 461.251405 
L 459.90977 461.251425 
L 460.008607 461.251442 
L 460.107444 461.251458 
L 460.182578 461.251469 
L 460.255336 461.251478 
L 460.328093 461.251486 
L 460.38368 461.251492 
L 460.437545 461.251497 
L 460.461531 461.251499 
" clip-path="url(#pef80454e85)" style="fill: none; stroke: #2ca02c; stroke-linecap: square"/>
   </g>
   <g id="line2d_40">
    <g clip-path="url(#pef80454e85)">
     <use xlink:href="#m8214b35739" x="99.059992" y="448.89067" style="fill: #ff0000; stroke: #ff0000"/>
    </g>
   </g>
   <g id="line2d_41">
    <path d="M 99.084118 470.29728 
L 99.035866 427.484059 
" clip-path="url(#pef80454e85)" style="fill: none; stroke: #008000; stroke-width: 1.5; stroke-linecap: square"/>
   </g>
   <g id="line2d_42">
    <path d="M 99.059992 448.89067 
L 99.035872 448.890688 
L 98.9047 448.890693 
L 97.593028 448.881754 
L 94.940345 448.813717 
L 92.290909 448.678872 
L 111.894329 449.954003 
L 133.72053 451.317529 
L 155.550792 452.628884 
L 174.622651 453.716836 
L 193.422616 454.713692 
L 212.22743 455.635747 
L 227.893379 456.347012 
L 243.246875 456.994543 
L 258.602891 457.593157 
L 271.383975 458.054357 
L 283.908029 458.474156 
L 294.975065 458.818832 
L 305.89677 459.135058 
L 315.593877 459.396027 
L 325.168689 459.635601 
L 333.671288 459.833354 
L 342.066697 460.014897 
L 349.520585 460.164724 
L 356.880272 460.302266 
L 364.240194 460.429491 
L 370.389142 460.527929 
L 376.416758 460.617578 
L 381.738611 460.691128 
L 386.98976 460.7586 
L 391.64695 460.814223 
L 396.244622 460.865279 
L 400.31396 460.90746 
L 404.330341 460.946613 
L 407.893413 460.979243 
L 411.411044 461.009456 
L 414.528874 461.034543 
L 417.606623 461.057702 
L 420.334985 461.076887 
L 423.028318 461.094563 
L 425.416422 461.109182 
L 427.773923 461.122635 
L 429.864496 461.133749 
L 431.928305 461.143967 
L 433.768935 461.152366 
L 435.587186 461.159872 
L 437.405442 461.166594 
L 438.924484 461.17163 
L 440.41352 461.176091 
L 441.902557 461.18008 
L 443.140909 461.183057 
L 444.354121 461.1857 
L 445.567333 461.188073 
L 446.573633 461.189847 
L 447.559182 461.191427 
L 448.544731 461.192852 
L 449.360228 461.193919 
L 450.158671 461.194874 
L 450.957113 461.19574 
L 451.61648 461.19639 
L 452.261898 461.196974 
L 452.907317 461.197506 
L 453.439477 461.197906 
L 453.960278 461.198268 
L 454.481079 461.198598 
L 454.909965 461.198848 
L 455.329634 461.199074 
L 455.749303 461.199282 
L 456.094584 461.199439 
L 456.432406 461.199582 
L 456.770228 461.199714 
L 457.04798 461.199814 
L 457.319708 461.199905 
L 457.44071 461.199944 
" clip-path="url(#pef80454e85)" style="fill: none; stroke: #d62728; stroke-linecap: square"/>
   </g>
   <g id="line2d_43">
    <g clip-path="url(#pef80454e85)">
     <use xlink:href="#m8214b35739" x="99.059992" y="448.89067" style="fill: #ff0000; stroke: #ff0000"/>
    </g>
   </g>
   <g id="line2d_44">
    <path d="M 99.084118 470.29728 
L 99.035866 427.484059 
" clip-path="url(#pef80454e85)" style="fill: none; stroke: #008000; stroke-width: 1.5; stroke-linecap: square"/>
   </g>
   <g id="line2d_45">
    <path d="M 99.059992 448.89067 
L 99.035872 448.890688 
L 98.9047 448.890693 
L 97.593028 448.881754 
L 94.940345 448.813717 
L 92.290909 448.678872 
L 117.181375 448.129758 
L 142.680558 441.820359 
L 165.685289 430.198837 
L 185.754653 414.583517 
L 203.147968 396.8228 
L 217.650511 377.124286 
L 230.664479 356.219892 
L 244.105145 335.916473 
L 258.082254 315.900237 
L 273.100995 296.445409 
L 289.760992 278.123756 
L 307.818129 260.863022 
L 326.937057 244.536436 
L 346.849159 228.949864 
L 367.173257 213.808742 
L 387.803063 198.990356 
L 408.568862 184.32783 
L 431.189798 171.06621 
L 455.937262 162.687866 
L 482.128991 159.183857 
L 491.115841 159.506352 
L 498.109091 161.1813 
L 487.539369 157.849701 
L 475.531553 156.23531 
L 464.018852 156.374646 
L 452.746883 158.161856 
L 454.941148 157.752835 
L 458.346284 157.620396 
L 464.025127 158.253692 
L 469.729724 159.769537 
L 464.805061 158.255046 
L 458.941728 157.559323 
L 452.756905 157.839242 
L 446.706444 159.121263 
L 452.32116 157.618161 
L 458.893927 157.020984 
L 465.8529 157.45847 
L 472.657919 158.963867 
L 467.782762 157.657855 
L 461.91037 157.112713 
L 456.019664 157.469893 
L 458.350647 157.219572 
L 461.349044 157.3167 
L 464.299232 157.801675 
L 460.399158 157.054421 
L 455.964713 156.924465 
L 451.5683 157.454834 
L 455.947767 156.728588 
L 460.989869 156.665104 
L 465.981574 157.299246 
L 468.828357 158.040423 
L 471.339529 159.052626 
L 473.672694 160.357781 
L 466.371382 156.150858 
L 457.711189 153.262373 
L 448.575169 151.967432 
L 443.927317 152.061303 
L 439.829095 152.819367 
L 435.940539 154.19522 
L 444.000211 150.843664 
L 453.280085 148.502644 
L 462.844676 147.381734 
L 468.803965 147.407008 
L 474.337443 148.106086 
L 479.718368 149.447549 
L 474.075251 147.863955 
L 467.3743 146.793552 
L 464.352754 146.55479 
" clip-path="url(#pef80454e85)" style="fill: none; stroke: #9467bd; stroke-linecap: square"/>
   </g>
   <g id="line2d_46">
    <g clip-path="url(#pef80454e85)">
     <use xlink:href="#m8214b35739" x="99.059992" y="448.89067" style="fill: #ff0000; stroke: #ff0000"/>
    </g>
   </g>
   <g id="line2d_47">
    <path d="M 99.084118 470.29728 
L 99.035866 427.484059 
" clip-path="url(#pef80454e85)" style="fill: none; stroke: #008000; stroke-width: 1.5; stroke-linecap: square"/>
   </g>
   <g id="line2d_48">
    <path d="M 99.059992 448.89067 
L 99.035872 448.890688 
L 98.9047 448.890693 
L 97.593028 448.881754 
L 94.940345 448.813717 
L 92.290909 448.678872 
L 116.48432 449.134151 
L 142.880631 446.842277 
L 168.767407 441.721205 
L 196.535157 436.342372 
L 222.93217 438.028725 
L 247.97192 445.631691 
L 268.382721 454.53003 
L 288.144575 458.960439 
L 308.46077 460.42263 
L 324.63722 460.916138 
L 338.848725 464.20778 
L 348.619771 468.348564 
L 356.978364 473.902432 
L 350.687714 467.464692 
L 344.708576 458.640555 
L 336.202295 437.643584 
L 331.927198 414.439004 
L 332.030592 390.869615 
L 335.653158 367.560338 
L 342.735915 344.885236 
L 352.335724 322.826456 
L 363.007245 301.269026 
L 372.425373 277.897382 
L 373.506404 254.448763 
L 368.73977 234.611418 
L 359.653123 216.431444 
L 355.183782 209.305525 
L 352.745246 203.148341 
L 352.215305 200.895228 
L 352.126682 199.018282 
L 352.615338 194.91443 
L 353.757609 190.683178 
L 356.578024 180.891676 
L 356.929734 170.857633 
L 355.414667 162.880095 
L 352.203454 155.516908 
L 351.035944 153.778757 
L 349.925269 152.734918 
L 353.249262 154.814735 
L 357.431515 156.587786 
L 361.905531 157.662694 
L 374.691498 159.812562 
L 387.281528 163.371383 
L 399.369671 168.10593 
L 407.755804 172.360403 
L 415.303534 177.187433 
L 422.25058 182.678767 
L 421.926255 182.472477 
L 420.813762 181.851358 
L 419.603331 181.396733 
L 422.679219 182.362941 
L 425.878332 183.766481 
L 428.885683 185.471444 
L 430.979327 186.959401 
L 432.814916 188.585244 
L 434.443516 190.376297 
L 431.479289 187.112435 
L 427.557777 184.044061 
L 423.121015 181.589575 
L 420.292786 180.526852 
L 417.516665 179.933987 
L 414.66982 179.738004 
L 420.618689 179.850904 
L 427.092589 180.700348 
L 433.412408 182.208151 
L 438.18476 183.880688 
L 442.583236 185.970818 
L 444.449813 187.041811 
" clip-path="url(#pef80454e85)" style="fill: none; stroke: #8c564b; stroke-linecap: square"/>
   </g>
   <g id="line2d_49">
    <g clip-path="url(#pef80454e85)">
     <use xlink:href="#m8214b35739" x="99.059992" y="448.89067" style="fill: #ff0000; stroke: #ff0000"/>
    </g>
   </g>
   <g id="line2d_50">
    <path d="M 99.084118 470.29728 
L 99.035866 427.484059 
" clip-path="url(#pef80454e85)" style="fill: none; stroke: #008000; stroke-width: 1.5; stroke-linecap: square"/>
   </g>
   <g id="line2d_51">
    <path d="M 99.059992 448.89067 
L 99.035872 448.890688 
L 98.9047 448.890693 
L 97.593028 448.881754 
L 94.940345 448.813717 
L 92.290909 448.678872 
L 116.580184 452.910048 
L 140.111357 463.626316 
L 159.315784 479.763472 
L 163.00652 484.406515 
L 164.931972 487.845758 
L 166.337178 491.477911 
L 162.842381 475.512919 
L 161.426994 457.280437 
L 162.711844 439.040347 
L 167.56728 416.386542 
L 175.430764 393.910078 
L 185.989477 372.314253 
L 198.916321 351.760383 
L 213.966106 332.371291 
L 230.836475 314.203449 
L 248.12613 295.38145 
L 261.248934 274.942433 
L 269.359157 256.151908 
L 274.167999 236.838469 
L 275.735832 217.108311 
L 275.925501 206.743534 
L 277.341742 197.765106 
L 279.051997 191.765674 
L 281.412577 186.249856 
L 284.971586 180.087208 
L 289.302685 174.204092 
L 294.815939 168.159031 
L 301.003295 162.546917 
L 309.039652 155.316301 
L 315.684071 147.183744 
L 320.166628 139.633808 
L 323.321746 131.732917 
L 324.34439 128.621075 
L 325.474713 126.183092 
L 326.11331 125.096984 
L 326.786534 124.192892 
L 329.481669 120.620871 
L 331.663547 116.588287 
L 332.567519 114.661554 
L 333.529404 113.08721 
L 334.65132 111.598576 
L 335.615556 110.541304 
L 336.652781 109.599357 
L 337.783139 108.74593 
L 341.913057 105.627489 
L 345.609686 101.860427 
L 348.655809 97.659968 
L 350.107782 94.876621 
L 351.03145 92.121991 
L 351.513227 89.28 
L 351.529679 90.208361 
L 351.708744 91.507448 
L 352.081315 92.773778 
L 353.817693 96.510707 
L 356.211714 100.267362 
L 359.126413 103.722266 
L 363.401608 107.659616 
L 368.255472 111.210964 
L 373.538996 114.24132 
L 379.035961 116.718393 
L 384.740188 118.756501 
L 390.622495 120.346938 
L 396.138202 121.47608 
L 401.649202 122.382208 
L 407.199299 123.075475 
L 412.120604 123.55171 
L 416.980971 123.960882 
L 419.147302 124.12375 
" clip-path="url(#pef80454e85)" style="fill: none; stroke: #e377c2; stroke-linecap: square"/>
   </g>
   <g id="line2d_52">
    <g clip-path="url(#pef80454e85)">
     <use xlink:href="#m8214b35739" x="99.059992" y="448.89067" style="fill: #ff0000; stroke: #ff0000"/>
    </g>
   </g>
   <g id="line2d_53">
    <path d="M 99.084118 470.29728 
L 99.035866 427.484059 
" clip-path="url(#pef80454e85)" style="fill: none; stroke: #008000; stroke-width: 1.5; stroke-linecap: square"/>
   </g>
   <g id="line2d_54">
    <path d="M 99.059992 448.89067 
L 99.035872 448.890688 
L 98.9047 448.890693 
L 97.593028 448.881754 
L 94.940345 448.813717 
L 92.290909 448.678872 
L 114.017806 452.466472 
L 135.090992 462.063355 
L 152.28939 476.514878 
L 155.478862 480.452122 
L 157.201616 483.216532 
L 158.607685 486.118603 
L 155.019124 475.902593 
L 152.140724 464.086315 
L 150.545498 452.080331 
L 150.153259 435.292373 
L 151.570327 418.075482 
L 155.080632 399.65917 
L 160.543286 381.474448 
L 167.965722 363.566888 
L 177.179541 346.298169 
L 187.663884 330.370999 
L 199.542763 315.315988 
L 211.680888 302.144021 
L 224.647694 289.799935 
L 238.485141 278.223915 
L 251.687601 266.973628 
L 262.834224 254.615337 
L 271.022864 242.815774 
L 277.452288 230.404868 
L 281.585837 221.247744 
L 286.120428 212.868288 
L 290.366484 206.175238 
L 295.039221 199.90337 
L 299.866534 194.230935 
L 304.985655 188.819464 
L 310.935241 182.367104 
L 316.034777 175.370629 
L 319.740996 168.829247 
L 322.585749 162.064644 
L 323.954141 158.342024 
L 325.441105 155.078281 
L 326.717069 152.727349 
L 328.121513 150.539324 
L 330.597289 146.676669 
L 332.653639 142.502657 
L 334.213502 138.162632 
L 334.740403 136.468163 
L 335.287284 135.099998 
L 335.93494 133.766916 
L 337.124432 131.31125 
L 338.048109 128.688243 
L 338.666882 125.995584 
L 338.693962 125.827743 
L 338.670796 125.91294 
L 338.641165 125.996544 
L 338.579744 126.135383 
L 338.505088 126.275868 
L 338.419851 126.411529 
L 339.788735 124.220162 
L 340.99372 121.715204 
L 341.901566 119.113462 
L 342.309056 117.332606 
L 342.496019 115.614232 
L 342.485753 113.887893 
L 342.565293 115.752982 
L 342.491718 117.940729 
L 342.251968 120.119088 
L 341.889812 122.05468 
L 341.386134 123.941851 
L 340.739889 125.79451 
L 340.544267 126.259009 
L 340.37787 126.577599 
L 340.296153 126.716162 
" clip-path="url(#pef80454e85)" style="fill: none; stroke: #7f7f7f; stroke-linecap: square"/>
   </g>
   <g id="line2d_55">
    <g clip-path="url(#pef80454e85)">
     <use xlink:href="#m8214b35739" x="99.059992" y="448.89067" style="fill: #ff0000; stroke: #ff0000"/>
    </g>
   </g>
   <g id="line2d_56">
    <path d="M 99.084118 470.29728 
L 99.035866 427.484059 
" clip-path="url(#pef80454e85)" style="fill: none; stroke: #008000; stroke-width: 1.5; stroke-linecap: square"/>
   </g>
   <g id="line2d_57">
    <path d="M 99.059992 448.89067 
L 99.035872 448.890688 
L 98.9047 448.890693 
L 97.593028 448.881754 
L 94.940345 448.813717 
L 92.290909 448.678872 
L 117.198293 448.111597 
L 142.671232 441.723686 
L 165.596313 429.981301 
L 185.522387 414.21996 
L 202.715877 396.307352 
L 216.957471 376.460086 
L 229.684376 355.403293 
L 242.870496 334.968958 
L 256.623339 314.83086 
L 271.485882 295.276075 
L 288.096429 276.920095 
L 306.19178 259.690352 
L 325.410789 243.457119 
L 345.433662 227.971682 
L 365.79268 212.867269 
L 386.388482 198.011318 
L 407.048491 183.231526 
L 429.755186 169.852178 
L 454.678495 161.92175 
L 480.99944 159.370796 
L 490.046469 160.135828 
L 497.010593 162.2061 
L 492.523113 160.014108 
L 487.258268 156.901423 
L 475.86084 150.228931 
L 463.156827 145.562887 
L 454.239187 143.802878 
L 445.572538 143.492221 
L 443.381618 143.676645 
L 441.87702 144.005878 
L 448.434302 142.362872 
L 455.739886 141.353777 
L 461.982246 141.133549 
L 468.09626 141.555448 
L 466.558197 141.407827 
L 464.296465 141.351611 
L 460.674214 141.552273 
L 456.953874 142.07087 
L 459.134546 141.747474 
L 461.872133 141.595754 
L 464.612411 141.702588 
L 466.467828 141.933581 
L 468.208187 142.289217 
L 469.908288 142.774519 
L 465.494408 141.523449 
L 460.441526 140.707541 
L 455.312391 140.474162 
L 452.613338 140.623147 
L 450.189237 140.992061 
L 447.820669 141.579961 
L 452.533069 140.332625 
L 457.952646 139.46697 
L 463.446708 139.136214 
L 466.75589 139.231987 
L 469.820299 139.586224 
L 472.833887 140.193394 
L 468.893674 139.344396 
L 464.272434 138.763105 
L 459.609295 138.585211 
L 456.571103 138.710299 
L 453.717829 139.044524 
L 450.905365 139.5865 
L 454.43144 138.880163 
L 458.58222 138.406068 
L 462.765048 138.28565 
L 465.413624 138.412419 
L 467.889228 138.710696 
L 468.981566 138.898953 
" clip-path="url(#pef80454e85)" style="fill: none; stroke: #bcbd22; stroke-linecap: square"/>
   </g>
   <g id="line2d_58">
    <g clip-path="url(#pef80454e85)">
     <use xlink:href="#m8214b35739" x="99.059992" y="448.89067" style="fill: #ff0000; stroke: #ff0000"/>
    </g>
   </g>
   <g id="line2d_59">
    <path d="M 99.084118 470.29728 
L 99.035866 427.484059 
" clip-path="url(#pef80454e85)" style="fill: none; stroke: #008000; stroke-width: 1.5; stroke-linecap: square"/>
   </g>
   <g id="line2d_60">
    <path d="M 99.059992 448.89067 
L 99.035872 448.890688 
L 98.9047 448.890693 
L 97.593028 448.881754 
L 94.940345 448.813717 
L 92.290909 448.678872 
L 116.772399 448.643044 
L 142.851741 444.454672 
L 167.667544 436.198179 
L 190.811081 424.604392 
L 212.195393 410.682764 
L 231.560875 394.602426 
L 249.244632 376.964222 
L 265.860576 358.606629 
L 281.407232 339.525854 
L 296.390023 320.03707 
L 311.495803 300.676505 
L 327.092446 281.603729 
L 343.616365 263.180119 
L 361.597099 245.802512 
L 381.548675 230.292865 
L 399.828779 219.091184 
L 419.190001 210.240354 
L 430.133167 205.825204 
L 439.492389 201.117777 
L 448.386564 195.747238 
L 452.89468 192.533603 
L 456.707028 189.28707 
L 462.687179 184.250716 
L 469.497021 180.087594 
L 475.361261 177.537629 
L 481.424864 175.845293 
L 484.479658 175.387281 
L 487.250611 175.33508 
L 487.302904 175.325114 
L 487.087044 175.280121 
L 485.151007 174.662695 
L 483.119314 173.825272 
L 480.114402 172.31552 
L 477.110025 170.60166 
L 471.396228 167.444031 
L 465.123682 164.864381 
L 459.790378 163.325203 
L 454.41443 162.393297 
L 454.599235 162.424334 
L 455.321309 162.568487 
L 456.030134 162.757442 
L 457.203459 163.154045 
L 458.389864 163.641123 
L 459.534434 164.201493 
L 456.599502 162.795898 
L 453.139753 161.591508 
L 449.540312 160.770396 
L 450.335117 160.918754 
L 451.531038 161.21152 
L 452.703511 161.571288 
L 454.08456 162.086058 
L 455.448577 162.688693 
L 456.765715 163.368486 
L 454.11365 162.044694 
L 450.945405 160.886546 
L 447.640252 160.084308 
L 448.628134 160.279633 
L 450.000017 160.630561 
L 451.344935 161.055794 
L 452.860433 161.632408 
L 454.351811 162.301393 
L 455.792415 163.052883 
L 453.256321 161.777559 
L 450.205319 160.652433 
L 447.020672 159.871516 
L 448.090058 160.084496 
L 449.536751 160.456411 
L 450.172214 160.647051 
" clip-path="url(#pef80454e85)" style="fill: none; stroke: #17becf; stroke-linecap: square"/>
   </g>
   <g id="line2d_61">
    <g clip-path="url(#pef80454e85)">
     <use xlink:href="#m8214b35739" x="99.059992" y="448.89067" style="fill: #ff0000; stroke: #ff0000"/>
    </g>
   </g>
   <g id="line2d_62">
    <path d="M 99.084118 470.29728 
L 99.035866 427.484059 
" clip-path="url(#pef80454e85)" style="fill: none; stroke: #008000; stroke-width: 1.5; stroke-linecap: square"/>
   </g>
   <g id="line2d_63">
    <path d="M 99.059992 448.89067 
L 99.035872 448.890688 
L 98.9047 448.890693 
L 97.593028 448.881754 
L 94.940345 448.813717 
L 92.290909 448.678872 
L 116.096905 451.497122 
L 141.749082 457.46829 
L 166.317174 466.329201 
L 181.222921 473.771673 
L 194.116793 482.416146 
L 205.628615 492.48 
L 204.326191 490.822902 
L 202.238617 487.671793 
L 200.631381 484.306278 
L 195.923437 468.89208 
L 193.256037 451.852633 
L 193.070822 429.419456 
L 196.085278 406.618894 
L 202.351418 383.804147 
L 211.596486 361.746209 
L 223.611031 340.762492 
L 238.13746 321.069977 
L 253.534335 300.96589 
L 265.075272 279.782378 
L 273.229929 257.393823 
L 277.773827 242.171629 
L 283.449726 228.546388 
L 288.855313 218.496878 
L 295.188951 209.280549 
L 301.943369 201.141116 
L 309.251225 193.486281 
L 317.53295 184.550726 
L 324.108055 174.747477 
L 328.232004 165.927916 
L 330.831105 156.85413 
L 331.707457 152.786929 
L 332.798259 149.412198 
L 333.564445 147.605552 
L 334.435511 146.011114 
L 335.88254 143.846709 
L 337.55507 141.72286 
L 341.055383 137.192822 
L 343.857145 132.145721 
L 345.093475 129.505585 
L 346.353712 127.246764 
L 347.764487 125.059134 
L 349.661955 121.992878 
L 351.060481 118.70657 
L 351.936847 115.280935 
L 351.822849 115.849676 
L 351.554257 116.781141 
L 351.20551 117.691455 
L 350.701957 118.731661 
L 350.100528 119.749453 
L 349.411767 120.722694 
L 351.029255 118.381573 
L 352.405676 115.586084 
L 353.334698 112.648946 
L 353.201839 113.164759 
L 352.915596 113.991262 
L 352.559976 114.796276 
L 352.049097 115.735255 
L 351.450204 116.653032 
L 350.774776 117.527978 
L 352.493017 115.241768 
L 353.98315 112.498977 
L 355.029912 109.599252 
L 354.872537 110.125907 
L 354.549246 110.959006 
L 354.157636 111.768699 
L 353.599571 112.719813 
L 352.952843 113.648245 
L 352.640214 114.047455 
" clip-path="url(#pef80454e85)" style="fill: none; stroke: #1f77b4; stroke-linecap: square"/>
   </g>
   <g id="line2d_64">
    <g clip-path="url(#pef80454e85)">
     <use xlink:href="#m8214b35739" x="99.059992" y="448.89067" style="fill: #ff0000; stroke: #ff0000"/>
    </g>
   </g>
   <g id="line2d_65">
    <path d="M 99.084118 470.29728 
L 99.035866 427.484059 
" clip-path="url(#pef80454e85)" style="fill: none; stroke: #008000; stroke-width: 1.5; stroke-linecap: square"/>
   </g>
   <g id="line2d_66">
    <path d="M 99.059992 448.89067 
L 99.035872 448.890688 
L 98.9047 448.890693 
L 97.593028 448.881754 
L 94.940345 448.813717 
L 92.290909 448.678872 
L 112.190974 450.770834 
L 133.955237 454.874034 
L 155.175879 460.809735 
L 168.941858 465.957282 
L 181.431076 471.963637 
L 193.21788 478.999299 
L 196.262204 481.165724 
L 198.287116 482.970066 
L 200.102062 484.942469 
L 196.661111 480.288128 
L 193.261787 474.667168 
L 188.720606 465.007095 
L 185.085893 454.619938 
L 181.939573 441.13479 
L 180.209486 427.157702 
L 179.96723 411.156687 
L 181.441046 395.012597 
L 184.81893 378.082444 
L 189.980413 361.406684 
L 196.866413 345.228774 
L 205.285108 329.811375 
L 215.15299 315.105716 
L 225.499447 302.087003 
L 236.696779 289.792803 
L 248.211368 277.064951 
L 257.882605 263.475276 
L 264.894319 250.746817 
L 270.230604 237.596563 
L 273.625144 228.081756 
L 277.578473 219.367096 
L 281.454571 212.357884 
L 285.848279 205.777695 
L 290.57826 199.718596 
L 295.696746 193.950508 
L 301.785466 187.01535 
L 306.986356 179.539019 
L 310.779872 172.527407 
L 313.676212 165.293686 
L 315.090437 161.258565 
L 316.650287 157.70736 
L 318.469772 154.254778 
L 320.088176 151.64183 
L 321.850624 149.201552 
L 323.79184 146.870519 
L 327.111777 142.868063 
L 330.000492 138.474628 
L 332.355817 133.837351 
L 333.284346 131.782943 
L 334.203637 130.073528 
L 335.235712 128.415567 
L 336.058821 127.258954 
L 336.925568 126.192103 
L 337.863101 125.173464 
L 340.355531 122.426495 
L 342.603848 119.326429 
L 344.471815 116.033564 
L 345.508735 113.618625 
L 346.22184 111.227098 
L 346.653641 108.783135 
L 346.484303 110.009396 
L 346.156764 111.563011 
L 345.717628 113.094794 
L 345.194104 114.529909 
L 344.570944 115.92556 
L 343.848437 117.282983 
L 343.723563 117.491987 
L 343.657377 117.584687 
L 343.625885 117.624784 
" clip-path="url(#pef80454e85)" style="fill: none; stroke: #ff7f0e; stroke-linecap: square"/>
   </g>
   <g id="line2d_67">
    <g clip-path="url(#pef80454e85)">
     <use xlink:href="#m8214b35739" x="99.059992" y="448.89067" style="fill: #ff0000; stroke: #ff0000"/>
    </g>
   </g>
   <g id="line2d_68">
    <path d="M 99.084118 470.29728 
L 99.035866 427.484059 
" clip-path="url(#pef80454e85)" style="fill: none; stroke: #008000; stroke-width: 1.5; stroke-linecap: square"/>
   </g>
   <g id="line2d_69">
    <g clip-path="url(#pef80454e85)">
     <use xlink:href="#m8214b35739" x="460.952736" y="127.791351" style="fill: #ff0000; stroke: #ff0000"/>
    </g>
   </g>
   <g id="line2d_70">
    <path d="M 460.952736 149.197972 
L 460.952736 106.38473 
" clip-path="url(#pef80454e85)" style="fill: none; stroke: #008000; stroke-width: 1.5; stroke-linecap: square"/>
   </g>
   <g id="patch_3">
    <path d="M 72 512.64 
L 72 69.12 
" style="fill: none; stroke: #000000; stroke-width: 0.8; stroke-linejoin: miter; stroke-linecap: square"/>
   </g>
   <g id="patch_4">
    <path d="M 518.4 512.64 
L 518.4 69.12 
" style="fill: none; stroke: #000000; stroke-width: 0.8; stroke-linejoin: miter; stroke-linecap: square"/>
   </g>
   <g id="patch_5">
    <path d="M 72 512.64 
L 518.4 512.64 
" style="fill: none; stroke: #000000; stroke-width: 0.8; stroke-linejoin: miter; stroke-linecap: square"/>
   </g>
   <g id="patch_6">
    <path d="M 72 69.12 
L 518.4 69.12 
" style="fill: none; stroke: #000000; stroke-width: 0.8; stroke-linejoin: miter; stroke-linecap: square"/>
   </g>
   <g id="patch_7">
    <path d="M 101.471798 448.63853 
Q 117.185273 448.624587 132.898747 448.610645 
L 132.896751 446.360646 
Q 138.897261 447.605322 144.897771 448.849999 
Q 138.899479 450.105321 132.901187 451.360644 
L 132.899191 449.110645 
Q 117.185716 449.124587 101.472242 449.138529 
L 101.471798 448.63853 
z
" style="fill: #0000ff; stroke: #000000; stroke-linecap: round"/>
   </g>
   <g id="patch_8">
    <path d="M 101.471798 448.63853 
Q 117.185273 448.624587 132.898747 448.610645 
L 132.896751 446.360646 
Q 138.897261 447.605322 144.897771 448.849999 
Q 138.899479 450.105321 132.901187 451.360644 
L 132.899191 449.110645 
Q 117.185716 449.124587 101.472242 449.138529 
L 101.471798 448.63853 
z
" style="fill: #0000ff; stroke: #000000; stroke-linecap: round"/>
   </g>
   <g id="patch_9">
    <path d="M 101.471798 448.63853 
Q 117.185273 448.624587 132.898747 448.610645 
L 132.896751 446.360646 
Q 138.897261 447.605322 144.897771 448.849999 
Q 138.899479 450.105321 132.901187 451.360644 
L 132.899191 449.110645 
Q 117.185716 449.124587 101.472242 449.138529 
L 101.471798 448.63853 
z
" style="fill: #0000ff; stroke: #000000; stroke-linecap: round"/>
   </g>
   <g id="patch_10">
    <path d="M 101.471798 448.63853 
Q 117.185273 448.624587 132.898747 448.610645 
L 132.896751 446.360646 
Q 138.897261 447.605322 144.897771 448.849999 
Q 138.899479 450.105321 132.901187 451.360644 
L 132.899191 449.110645 
Q 117.185716 449.124587 101.472242 449.138529 
L 101.471798 448.63853 
z
" style="fill: #0000ff; stroke: #000000; stroke-linecap: round"/>
   </g>
   <g id="patch_11">
    <path d="M 101.471798 448.63853 
Q 117.185273 448.624587 132.898747 448.610645 
L 132.896751 446.360646 
Q 138.897261 447.605322 144.897771 448.849999 
Q 138.899479 450.105321 132.901187 451.360644 
L 132.899191 449.110645 
Q 117.185716 449.124587 101.472242 449.138529 
L 101.471798 448.63853 
z
" style="fill: #0000ff; stroke: #000000; stroke-linecap: round"/>
   </g>
   <g id="patch_12">
    <path d="M 101.471798 448.63853 
Q 117.185273 448.624587 132.898747 448.610645 
L 132.896751 446.360646 
Q 138.897261 447.605322 144.897771 448.849999 
Q 138.899479 450.105321 132.901187 451.360644 
L 132.899191 449.110645 
Q 117.185716 449.124587 101.472242 449.138529 
L 101.471798 448.63853 
z
" style="fill: #0000ff; stroke: #000000; stroke-linecap: round"/>
   </g>
   <g id="patch_13">
    <path d="M 101.471798 448.63853 
Q 117.185273 448.624587 132.898747 448.610645 
L 132.896751 446.360646 
Q 138.897261 447.605322 144.897771 448.849999 
Q 138.899479 450.105321 132.901187 451.360644 
L 132.899191 449.110645 
Q 117.185716 449.124587 101.472242 449.138529 
L 101.471798 448.63853 
z
" style="fill: #0000ff; stroke: #000000; stroke-linecap: round"/>
   </g>
   <g id="patch_14">
    <path d="M 101.471798 448.63853 
Q 117.185273 448.624587 132.898747 448.610645 
L 132.896751 446.360646 
Q 138.897261 447.605322 144.897771 448.849999 
Q 138.899479 450.105321 132.901187 451.360644 
L 132.899191 449.110645 
Q 117.185716 449.124587 101.472242 449.138529 
L 101.471798 448.63853 
z
" style="fill: #0000ff; stroke: #000000; stroke-linecap: round"/>
   </g>
   <g id="patch_15">
    <path d="M 101.471798 448.63853 
Q 117.185273 448.624587 132.898747 448.610645 
L 132.896751 446.360646 
Q 138.897261 447.605322 144.897771 448.849999 
Q 138.899479 450.105321 132.901187 451.360644 
L 132.899191 449.110645 
Q 117.185716 449.124587 101.472242 449.138529 
L 101.471798 448.63853 
z
" style="fill: #0000ff; stroke: #000000; stroke-linecap: round"/>
   </g>
   <g id="patch_16">
    <path d="M 101.471798 448.63853 
Q 117.185273 448.624587 132.898747 448.610645 
L 132.896751 446.360646 
Q 138.897261 447.605322 144.897771 448.849999 
Q 138.899479 450.105321 132.901187 451.360644 
L 132.899191 449.110645 
Q 117.185716 449.124587 101.472242 449.138529 
L 101.471798 448.63853 
z
" style="fill: #0000ff; stroke: #000000; stroke-linecap: round"/>
   </g>
   <g id="patch_17">
    <path d="M 101.471798 448.63853 
Q 117.185273 448.624587 132.898747 448.610645 
L 132.896751 446.360646 
Q 138.897261 447.605322 144.897771 448.849999 
Q 138.899479 450.105321 132.901187 451.360644 
L 132.899191 449.110645 
Q 117.185716 449.124587 101.472242 449.138529 
L 101.471798 448.63853 
z
" style="fill: #0000ff; stroke: #000000; stroke-linecap: round"/>
   </g>
   <g id="patch_18">
    <path d="M 101.471798 448.63853 
Q 117.185273 448.624587 132.898747 448.610645 
L 132.896751 446.360646 
Q 138.897261 447.605322 144.897771 448.849999 
Q 138.899479 450.105321 132.901187 451.360644 
L 132.899191 449.110645 
Q 117.185716 449.124587 101.472242 449.138529 
L 101.471798 448.63853 
z
" style="fill: #0000ff; stroke: #000000; stroke-linecap: round"/>
   </g>
   <g id="patch_19">
    <path d="M 463.364765 127.541351 
Q 479.078247 127.541351 494.79173 127.541351 
L 494.79173 125.291351 
Q 500.791134 126.541351 506.790538 127.791351 
Q 500.791134 129.041351 494.79173 130.291351 
L 494.79173 128.041351 
Q 479.078247 128.041351 463.364765 128.041351 
L 463.364765 127.541351 
z
" style="fill: #008000; stroke: #000000; stroke-linecap: round"/>
   </g>
   <g id="text_19">
    <!-- dt: 0.2 -->
    <g transform="translate(275.56875 63.12) scale(0.12 -0.12)">
     <defs>
      <path id="DejaVuSans-64" d="M 2906 2969 
L 2906 4863 
L 3481 4863 
L 3481 0 
L 2906 0 
L 2906 525 
Q 2725 213 2448 61 
Q 2172 -91 1784 -91 
Q 1150 -91 751 415 
Q 353 922 353 1747 
Q 353 2572 751 3078 
Q 1150 3584 1784 3584 
Q 2172 3584 2448 3432 
Q 2725 3281 2906 2969 
z
M 947 1747 
Q 947 1113 1208 752 
Q 1469 391 1925 391 
Q 2381 391 2643 752 
Q 2906 1113 2906 1747 
Q 2906 2381 2643 2742 
Q 2381 3103 1925 3103 
Q 1469 3103 1208 2742 
Q 947 2381 947 1747 
z
" transform="scale(0.015625)"/>
      <path id="DejaVuSans-74" d="M 1172 4494 
L 1172 3500 
L 2356 3500 
L 2356 3053 
L 1172 3053 
L 1172 1153 
Q 1172 725 1289 603 
Q 1406 481 1766 481 
L 2356 481 
L 2356 0 
L 1766 0 
Q 1100 0 847 248 
Q 594 497 594 1153 
L 594 3053 
L 172 3053 
L 172 3500 
L 594 3500 
L 594 4494 
L 1172 4494 
z
" transform="scale(0.015625)"/>
      <path id="DejaVuSans-3a" d="M 750 794 
L 1409 794 
L 1409 0 
L 750 0 
L 750 794 
z
M 750 3309 
L 1409 3309 
L 1409 2516 
L 750 2516 
L 750 3309 
z
" transform="scale(0.015625)"/>
     </defs>
     <use xlink:href="#DejaVuSans-64"/>
     <use xlink:href="#DejaVuSans-74" x="63.476562"/>
     <use xlink:href="#DejaVuSans-3a" x="102.685547"/>
     <use xlink:href="#DejaVuSans-20" x="136.376953"/>
     <use xlink:href="#DejaVuSans-30" x="168.164062"/>
     <use xlink:href="#DejaVuSans-2e" x="231.787109"/>
     <use xlink:href="#DejaVuSans-32" x="263.574219"/>
    </g>
   </g>
   <g id="legend_1">
    <g id="patch_20">
     <path d="M 79 256.595 
L 249.20625 256.595 
Q 251.20625 256.595 251.20625 254.595 
L 251.20625 76.12 
Q 251.20625 74.12 249.20625 74.12 
L 79 74.12 
Q 77 74.12 77 76.12 
L 77 254.595 
Q 77 256.595 79 256.595 
z
" style="fill: #ffffff; opacity: 0.8; stroke: #cccccc; stroke-linejoin: miter"/>
    </g>
    <g id="line2d_71">
     <path d="M 81 82.218437 
L 91 82.218437 
L 101 82.218437 
" style="fill: none; stroke: #1f77b4; stroke-linecap: square"/>
    </g>
    <g id="text_20">
     <!-- Nactor_2.0_ssmultiplier_2.0 -->
     <g transform="translate(109 85.718437) scale(0.1 -0.1)">
      <defs>
       <path id="DejaVuSans-4e" d="M 628 4666 
L 1478 4666 
L 3547 763 
L 3547 4666 
L 4159 4666 
L 4159 0 
L 3309 0 
L 1241 3903 
L 1241 0 
L 628 0 
L 628 4666 
z
" transform="scale(0.015625)"/>
       <path id="DejaVuSans-63" d="M 3122 3366 
L 3122 2828 
Q 2878 2963 2633 3030 
Q 2388 3097 2138 3097 
Q 1578 3097 1268 2742 
Q 959 2388 959 1747 
Q 959 1106 1268 751 
Q 1578 397 2138 397 
Q 2388 397 2633 464 
Q 2878 531 3122 666 
L 3122 134 
Q 2881 22 2623 -34 
Q 2366 -91 2075 -91 
Q 1284 -91 818 406 
Q 353 903 353 1747 
Q 353 2603 823 3093 
Q 1294 3584 2113 3584 
Q 2378 3584 2631 3529 
Q 2884 3475 3122 3366 
z
" transform="scale(0.015625)"/>
       <path id="DejaVuSans-6f" d="M 1959 3097 
Q 1497 3097 1228 2736 
Q 959 2375 959 1747 
Q 959 1119 1226 758 
Q 1494 397 1959 397 
Q 2419 397 2687 759 
Q 2956 1122 2956 1747 
Q 2956 2369 2687 2733 
Q 2419 3097 1959 3097 
z
M 1959 3584 
Q 2709 3584 3137 3096 
Q 3566 2609 3566 1747 
Q 3566 888 3137 398 
Q 2709 -91 1959 -91 
Q 1206 -91 779 398 
Q 353 888 353 1747 
Q 353 2609 779 3096 
Q 1206 3584 1959 3584 
z
" transform="scale(0.015625)"/>
       <path id="DejaVuSans-72" d="M 2631 2963 
Q 2534 3019 2420 3045 
Q 2306 3072 2169 3072 
Q 1681 3072 1420 2755 
Q 1159 2438 1159 1844 
L 1159 0 
L 581 0 
L 581 3500 
L 1159 3500 
L 1159 2956 
Q 1341 3275 1631 3429 
Q 1922 3584 2338 3584 
Q 2397 3584 2469 3576 
Q 2541 3569 2628 3553 
L 2631 2963 
z
" transform="scale(0.015625)"/>
       <path id="DejaVuSans-5f" d="M 3263 -1063 
L 3263 -1509 
L -63 -1509 
L -63 -1063 
L 3263 -1063 
z
" transform="scale(0.015625)"/>
       <path id="DejaVuSans-6d" d="M 3328 2828 
Q 3544 3216 3844 3400 
Q 4144 3584 4550 3584 
Q 5097 3584 5394 3201 
Q 5691 2819 5691 2113 
L 5691 0 
L 5113 0 
L 5113 2094 
Q 5113 2597 4934 2840 
Q 4756 3084 4391 3084 
Q 3944 3084 3684 2787 
Q 3425 2491 3425 1978 
L 3425 0 
L 2847 0 
L 2847 2094 
Q 2847 2600 2669 2842 
Q 2491 3084 2119 3084 
Q 1678 3084 1418 2786 
Q 1159 2488 1159 1978 
L 1159 0 
L 581 0 
L 581 3500 
L 1159 3500 
L 1159 2956 
Q 1356 3278 1631 3431 
Q 1906 3584 2284 3584 
Q 2666 3584 2933 3390 
Q 3200 3197 3328 2828 
z
" transform="scale(0.015625)"/>
       <path id="DejaVuSans-75" d="M 544 1381 
L 544 3500 
L 1119 3500 
L 1119 1403 
Q 1119 906 1312 657 
Q 1506 409 1894 409 
Q 2359 409 2629 706 
Q 2900 1003 2900 1516 
L 2900 3500 
L 3475 3500 
L 3475 0 
L 2900 0 
L 2900 538 
Q 2691 219 2414 64 
Q 2138 -91 1772 -91 
Q 1169 -91 856 284 
Q 544 659 544 1381 
z
M 1991 3584 
L 1991 3584 
z
" transform="scale(0.015625)"/>
       <path id="DejaVuSans-6c" d="M 603 4863 
L 1178 4863 
L 1178 0 
L 603 0 
L 603 4863 
z
" transform="scale(0.015625)"/>
       <path id="DejaVuSans-70" d="M 1159 525 
L 1159 -1331 
L 581 -1331 
L 581 3500 
L 1159 3500 
L 1159 2969 
Q 1341 3281 1617 3432 
Q 1894 3584 2278 3584 
Q 2916 3584 3314 3078 
Q 3713 2572 3713 1747 
Q 3713 922 3314 415 
Q 2916 -91 2278 -91 
Q 1894 -91 1617 61 
Q 1341 213 1159 525 
z
M 3116 1747 
Q 3116 2381 2855 2742 
Q 2594 3103 2138 3103 
Q 1681 3103 1420 2742 
Q 1159 2381 1159 1747 
Q 1159 1113 1420 752 
Q 1681 391 2138 391 
Q 2594 391 2855 752 
Q 3116 1113 3116 1747 
z
" transform="scale(0.015625)"/>
       <path id="DejaVuSans-65" d="M 3597 1894 
L 3597 1613 
L 953 1613 
Q 991 1019 1311 708 
Q 1631 397 2203 397 
Q 2534 397 2845 478 
Q 3156 559 3463 722 
L 3463 178 
Q 3153 47 2828 -22 
Q 2503 -91 2169 -91 
Q 1331 -91 842 396 
Q 353 884 353 1716 
Q 353 2575 817 3079 
Q 1281 3584 2069 3584 
Q 2775 3584 3186 3129 
Q 3597 2675 3597 1894 
z
M 3022 2063 
Q 3016 2534 2758 2815 
Q 2500 3097 2075 3097 
Q 1594 3097 1305 2825 
Q 1016 2553 972 2059 
L 3022 2063 
z
" transform="scale(0.015625)"/>
      </defs>
      <use xlink:href="#DejaVuSans-4e"/>
      <use xlink:href="#DejaVuSans-61" x="74.804688"/>
      <use xlink:href="#DejaVuSans-63" x="136.083984"/>
      <use xlink:href="#DejaVuSans-74" x="191.064453"/>
      <use xlink:href="#DejaVuSans-6f" x="230.273438"/>
      <use xlink:href="#DejaVuSans-72" x="291.455078"/>
      <use xlink:href="#DejaVuSans-5f" x="332.568359"/>
      <use xlink:href="#DejaVuSans-32" x="382.568359"/>
      <use xlink:href="#DejaVuSans-2e" x="446.191406"/>
      <use xlink:href="#DejaVuSans-30" x="477.978516"/>
      <use xlink:href="#DejaVuSans-5f" x="541.601562"/>
      <use xlink:href="#DejaVuSans-73" x="591.601562"/>
      <use xlink:href="#DejaVuSans-73" x="643.701172"/>
      <use xlink:href="#DejaVuSans-6d" x="695.800781"/>
      <use xlink:href="#DejaVuSans-75" x="793.212891"/>
      <use xlink:href="#DejaVuSans-6c" x="856.591797"/>
      <use xlink:href="#DejaVuSans-74" x="884.375"/>
      <use xlink:href="#DejaVuSans-69" x="923.583984"/>
      <use xlink:href="#DejaVuSans-70" x="951.367188"/>
      <use xlink:href="#DejaVuSans-6c" x="1014.84375"/>
      <use xlink:href="#DejaVuSans-69" x="1042.626953"/>
      <use xlink:href="#DejaVuSans-65" x="1070.410156"/>
      <use xlink:href="#DejaVuSans-72" x="1131.933594"/>
      <use xlink:href="#DejaVuSans-5f" x="1173.046875"/>
      <use xlink:href="#DejaVuSans-32" x="1223.046875"/>
      <use xlink:href="#DejaVuSans-2e" x="1286.669922"/>
      <use xlink:href="#DejaVuSans-30" x="1318.457031"/>
     </g>
    </g>
    <g id="line2d_72">
     <path d="M 81 97.174688 
L 91 97.174688 
L 101 97.174688 
" style="fill: none; stroke: #ff7f0e; stroke-linecap: square"/>
    </g>
    <g id="text_21">
     <!-- Nactor_2.0_ssmultiplier_4.0 -->
     <g transform="translate(109 100.674688) scale(0.1 -0.1)">
      <defs>
       <path id="DejaVuSans-34" d="M 2419 4116 
L 825 1625 
L 2419 1625 
L 2419 4116 
z
M 2253 4666 
L 3047 4666 
L 3047 1625 
L 3713 1625 
L 3713 1100 
L 3047 1100 
L 3047 0 
L 2419 0 
L 2419 1100 
L 313 1100 
L 313 1709 
L 2253 4666 
z
" transform="scale(0.015625)"/>
      </defs>
      <use xlink:href="#DejaVuSans-4e"/>
      <use xlink:href="#DejaVuSans-61" x="74.804688"/>
      <use xlink:href="#DejaVuSans-63" x="136.083984"/>
      <use xlink:href="#DejaVuSans-74" x="191.064453"/>
      <use xlink:href="#DejaVuSans-6f" x="230.273438"/>
      <use xlink:href="#DejaVuSans-72" x="291.455078"/>
      <use xlink:href="#DejaVuSans-5f" x="332.568359"/>
      <use xlink:href="#DejaVuSans-32" x="382.568359"/>
      <use xlink:href="#DejaVuSans-2e" x="446.191406"/>
      <use xlink:href="#DejaVuSans-30" x="477.978516"/>
      <use xlink:href="#DejaVuSans-5f" x="541.601562"/>
      <use xlink:href="#DejaVuSans-73" x="591.601562"/>
      <use xlink:href="#DejaVuSans-73" x="643.701172"/>
      <use xlink:href="#DejaVuSans-6d" x="695.800781"/>
      <use xlink:href="#DejaVuSans-75" x="793.212891"/>
      <use xlink:href="#DejaVuSans-6c" x="856.591797"/>
      <use xlink:href="#DejaVuSans-74" x="884.375"/>
      <use xlink:href="#DejaVuSans-69" x="923.583984"/>
      <use xlink:href="#DejaVuSans-70" x="951.367188"/>
      <use xlink:href="#DejaVuSans-6c" x="1014.84375"/>
      <use xlink:href="#DejaVuSans-69" x="1042.626953"/>
      <use xlink:href="#DejaVuSans-65" x="1070.410156"/>
      <use xlink:href="#DejaVuSans-72" x="1131.933594"/>
      <use xlink:href="#DejaVuSans-5f" x="1173.046875"/>
      <use xlink:href="#DejaVuSans-34" x="1223.046875"/>
      <use xlink:href="#DejaVuSans-2e" x="1286.669922"/>
      <use xlink:href="#DejaVuSans-30" x="1318.457031"/>
     </g>
    </g>
    <g id="line2d_73">
     <path d="M 81 112.130938 
L 91 112.130938 
L 101 112.130938 
" style="fill: none; stroke: #2ca02c; stroke-linecap: square"/>
    </g>
    <g id="text_22">
     <!-- Nactor_2.0_ssmultiplier_6.0 -->
     <g transform="translate(109 115.630938) scale(0.1 -0.1)">
      <defs>
       <path id="DejaVuSans-36" d="M 2113 2584 
Q 1688 2584 1439 2293 
Q 1191 2003 1191 1497 
Q 1191 994 1439 701 
Q 1688 409 2113 409 
Q 2538 409 2786 701 
Q 3034 994 3034 1497 
Q 3034 2003 2786 2293 
Q 2538 2584 2113 2584 
z
M 3366 4563 
L 3366 3988 
Q 3128 4100 2886 4159 
Q 2644 4219 2406 4219 
Q 1781 4219 1451 3797 
Q 1122 3375 1075 2522 
Q 1259 2794 1537 2939 
Q 1816 3084 2150 3084 
Q 2853 3084 3261 2657 
Q 3669 2231 3669 1497 
Q 3669 778 3244 343 
Q 2819 -91 2113 -91 
Q 1303 -91 875 529 
Q 447 1150 447 2328 
Q 447 3434 972 4092 
Q 1497 4750 2381 4750 
Q 2619 4750 2861 4703 
Q 3103 4656 3366 4563 
z
" transform="scale(0.015625)"/>
      </defs>
      <use xlink:href="#DejaVuSans-4e"/>
      <use xlink:href="#DejaVuSans-61" x="74.804688"/>
      <use xlink:href="#DejaVuSans-63" x="136.083984"/>
      <use xlink:href="#DejaVuSans-74" x="191.064453"/>
      <use xlink:href="#DejaVuSans-6f" x="230.273438"/>
      <use xlink:href="#DejaVuSans-72" x="291.455078"/>
      <use xlink:href="#DejaVuSans-5f" x="332.568359"/>
      <use xlink:href="#DejaVuSans-32" x="382.568359"/>
      <use xlink:href="#DejaVuSans-2e" x="446.191406"/>
      <use xlink:href="#DejaVuSans-30" x="477.978516"/>
      <use xlink:href="#DejaVuSans-5f" x="541.601562"/>
      <use xlink:href="#DejaVuSans-73" x="591.601562"/>
      <use xlink:href="#DejaVuSans-73" x="643.701172"/>
      <use xlink:href="#DejaVuSans-6d" x="695.800781"/>
      <use xlink:href="#DejaVuSans-75" x="793.212891"/>
      <use xlink:href="#DejaVuSans-6c" x="856.591797"/>
      <use xlink:href="#DejaVuSans-74" x="884.375"/>
      <use xlink:href="#DejaVuSans-69" x="923.583984"/>
      <use xlink:href="#DejaVuSans-70" x="951.367188"/>
      <use xlink:href="#DejaVuSans-6c" x="1014.84375"/>
      <use xlink:href="#DejaVuSans-69" x="1042.626953"/>
      <use xlink:href="#DejaVuSans-65" x="1070.410156"/>
      <use xlink:href="#DejaVuSans-72" x="1131.933594"/>
      <use xlink:href="#DejaVuSans-5f" x="1173.046875"/>
      <use xlink:href="#DejaVuSans-36" x="1223.046875"/>
      <use xlink:href="#DejaVuSans-2e" x="1286.669922"/>
      <use xlink:href="#DejaVuSans-30" x="1318.457031"/>
     </g>
    </g>
    <g id="line2d_74">
     <path d="M 81 127.087188 
L 91 127.087188 
L 101 127.087188 
" style="fill: none; stroke: #d62728; stroke-linecap: square"/>
    </g>
    <g id="text_23">
     <!-- Nactor_2.0_ssmultiplier_8.0 -->
     <g transform="translate(109 130.587188) scale(0.1 -0.1)">
      <defs>
       <path id="DejaVuSans-38" d="M 2034 2216 
Q 1584 2216 1326 1975 
Q 1069 1734 1069 1313 
Q 1069 891 1326 650 
Q 1584 409 2034 409 
Q 2484 409 2743 651 
Q 3003 894 3003 1313 
Q 3003 1734 2745 1975 
Q 2488 2216 2034 2216 
z
M 1403 2484 
Q 997 2584 770 2862 
Q 544 3141 544 3541 
Q 544 4100 942 4425 
Q 1341 4750 2034 4750 
Q 2731 4750 3128 4425 
Q 3525 4100 3525 3541 
Q 3525 3141 3298 2862 
Q 3072 2584 2669 2484 
Q 3125 2378 3379 2068 
Q 3634 1759 3634 1313 
Q 3634 634 3220 271 
Q 2806 -91 2034 -91 
Q 1263 -91 848 271 
Q 434 634 434 1313 
Q 434 1759 690 2068 
Q 947 2378 1403 2484 
z
M 1172 3481 
Q 1172 3119 1398 2916 
Q 1625 2713 2034 2713 
Q 2441 2713 2670 2916 
Q 2900 3119 2900 3481 
Q 2900 3844 2670 4047 
Q 2441 4250 2034 4250 
Q 1625 4250 1398 4047 
Q 1172 3844 1172 3481 
z
" transform="scale(0.015625)"/>
      </defs>
      <use xlink:href="#DejaVuSans-4e"/>
      <use xlink:href="#DejaVuSans-61" x="74.804688"/>
      <use xlink:href="#DejaVuSans-63" x="136.083984"/>
      <use xlink:href="#DejaVuSans-74" x="191.064453"/>
      <use xlink:href="#DejaVuSans-6f" x="230.273438"/>
      <use xlink:href="#DejaVuSans-72" x="291.455078"/>
      <use xlink:href="#DejaVuSans-5f" x="332.568359"/>
      <use xlink:href="#DejaVuSans-32" x="382.568359"/>
      <use xlink:href="#DejaVuSans-2e" x="446.191406"/>
      <use xlink:href="#DejaVuSans-30" x="477.978516"/>
      <use xlink:href="#DejaVuSans-5f" x="541.601562"/>
      <use xlink:href="#DejaVuSans-73" x="591.601562"/>
      <use xlink:href="#DejaVuSans-73" x="643.701172"/>
      <use xlink:href="#DejaVuSans-6d" x="695.800781"/>
      <use xlink:href="#DejaVuSans-75" x="793.212891"/>
      <use xlink:href="#DejaVuSans-6c" x="856.591797"/>
      <use xlink:href="#DejaVuSans-74" x="884.375"/>
      <use xlink:href="#DejaVuSans-69" x="923.583984"/>
      <use xlink:href="#DejaVuSans-70" x="951.367188"/>
      <use xlink:href="#DejaVuSans-6c" x="1014.84375"/>
      <use xlink:href="#DejaVuSans-69" x="1042.626953"/>
      <use xlink:href="#DejaVuSans-65" x="1070.410156"/>
      <use xlink:href="#DejaVuSans-72" x="1131.933594"/>
      <use xlink:href="#DejaVuSans-5f" x="1173.046875"/>
      <use xlink:href="#DejaVuSans-38" x="1223.046875"/>
      <use xlink:href="#DejaVuSans-2e" x="1286.669922"/>
      <use xlink:href="#DejaVuSans-30" x="1318.457031"/>
     </g>
    </g>
    <g id="line2d_75">
     <path d="M 81 142.043437 
L 91 142.043437 
L 101 142.043437 
" style="fill: none; stroke: #9467bd; stroke-linecap: square"/>
    </g>
    <g id="text_24">
     <!-- Nactor_4.0_ssmultiplier_2.0 -->
     <g transform="translate(109 145.543437) scale(0.1 -0.1)">
      <use xlink:href="#DejaVuSans-4e"/>
      <use xlink:href="#DejaVuSans-61" x="74.804688"/>
      <use xlink:href="#DejaVuSans-63" x="136.083984"/>
      <use xlink:href="#DejaVuSans-74" x="191.064453"/>
      <use xlink:href="#DejaVuSans-6f" x="230.273438"/>
      <use xlink:href="#DejaVuSans-72" x="291.455078"/>
      <use xlink:href="#DejaVuSans-5f" x="332.568359"/>
      <use xlink:href="#DejaVuSans-34" x="382.568359"/>
      <use xlink:href="#DejaVuSans-2e" x="446.191406"/>
      <use xlink:href="#DejaVuSans-30" x="477.978516"/>
      <use xlink:href="#DejaVuSans-5f" x="541.601562"/>
      <use xlink:href="#DejaVuSans-73" x="591.601562"/>
      <use xlink:href="#DejaVuSans-73" x="643.701172"/>
      <use xlink:href="#DejaVuSans-6d" x="695.800781"/>
      <use xlink:href="#DejaVuSans-75" x="793.212891"/>
      <use xlink:href="#DejaVuSans-6c" x="856.591797"/>
      <use xlink:href="#DejaVuSans-74" x="884.375"/>
      <use xlink:href="#DejaVuSans-69" x="923.583984"/>
      <use xlink:href="#DejaVuSans-70" x="951.367188"/>
      <use xlink:href="#DejaVuSans-6c" x="1014.84375"/>
      <use xlink:href="#DejaVuSans-69" x="1042.626953"/>
      <use xlink:href="#DejaVuSans-65" x="1070.410156"/>
      <use xlink:href="#DejaVuSans-72" x="1131.933594"/>
      <use xlink:href="#DejaVuSans-5f" x="1173.046875"/>
      <use xlink:href="#DejaVuSans-32" x="1223.046875"/>
      <use xlink:href="#DejaVuSans-2e" x="1286.669922"/>
      <use xlink:href="#DejaVuSans-30" x="1318.457031"/>
     </g>
    </g>
    <g id="line2d_76">
     <path d="M 81 156.999687 
L 91 156.999687 
L 101 156.999687 
" style="fill: none; stroke: #8c564b; stroke-linecap: square"/>
    </g>
    <g id="text_25">
     <!-- Nactor_4.0_ssmultiplier_4.0 -->
     <g transform="translate(109 160.499687) scale(0.1 -0.1)">
      <use xlink:href="#DejaVuSans-4e"/>
      <use xlink:href="#DejaVuSans-61" x="74.804688"/>
      <use xlink:href="#DejaVuSans-63" x="136.083984"/>
      <use xlink:href="#DejaVuSans-74" x="191.064453"/>
      <use xlink:href="#DejaVuSans-6f" x="230.273438"/>
      <use xlink:href="#DejaVuSans-72" x="291.455078"/>
      <use xlink:href="#DejaVuSans-5f" x="332.568359"/>
      <use xlink:href="#DejaVuSans-34" x="382.568359"/>
      <use xlink:href="#DejaVuSans-2e" x="446.191406"/>
      <use xlink:href="#DejaVuSans-30" x="477.978516"/>
      <use xlink:href="#DejaVuSans-5f" x="541.601562"/>
      <use xlink:href="#DejaVuSans-73" x="591.601562"/>
      <use xlink:href="#DejaVuSans-73" x="643.701172"/>
      <use xlink:href="#DejaVuSans-6d" x="695.800781"/>
      <use xlink:href="#DejaVuSans-75" x="793.212891"/>
      <use xlink:href="#DejaVuSans-6c" x="856.591797"/>
      <use xlink:href="#DejaVuSans-74" x="884.375"/>
      <use xlink:href="#DejaVuSans-69" x="923.583984"/>
      <use xlink:href="#DejaVuSans-70" x="951.367188"/>
      <use xlink:href="#DejaVuSans-6c" x="1014.84375"/>
      <use xlink:href="#DejaVuSans-69" x="1042.626953"/>
      <use xlink:href="#DejaVuSans-65" x="1070.410156"/>
      <use xlink:href="#DejaVuSans-72" x="1131.933594"/>
      <use xlink:href="#DejaVuSans-5f" x="1173.046875"/>
      <use xlink:href="#DejaVuSans-34" x="1223.046875"/>
      <use xlink:href="#DejaVuSans-2e" x="1286.669922"/>
      <use xlink:href="#DejaVuSans-30" x="1318.457031"/>
     </g>
    </g>
    <g id="line2d_77">
     <path d="M 81 171.955938 
L 91 171.955938 
L 101 171.955938 
" style="fill: none; stroke: #e377c2; stroke-linecap: square"/>
    </g>
    <g id="text_26">
     <!-- Nactor_4.0_ssmultiplier_6.0 -->
     <g transform="translate(109 175.455938) scale(0.1 -0.1)">
      <use xlink:href="#DejaVuSans-4e"/>
      <use xlink:href="#DejaVuSans-61" x="74.804688"/>
      <use xlink:href="#DejaVuSans-63" x="136.083984"/>
      <use xlink:href="#DejaVuSans-74" x="191.064453"/>
      <use xlink:href="#DejaVuSans-6f" x="230.273438"/>
      <use xlink:href="#DejaVuSans-72" x="291.455078"/>
      <use xlink:href="#DejaVuSans-5f" x="332.568359"/>
      <use xlink:href="#DejaVuSans-34" x="382.568359"/>
      <use xlink:href="#DejaVuSans-2e" x="446.191406"/>
      <use xlink:href="#DejaVuSans-30" x="477.978516"/>
      <use xlink:href="#DejaVuSans-5f" x="541.601562"/>
      <use xlink:href="#DejaVuSans-73" x="591.601562"/>
      <use xlink:href="#DejaVuSans-73" x="643.701172"/>
      <use xlink:href="#DejaVuSans-6d" x="695.800781"/>
      <use xlink:href="#DejaVuSans-75" x="793.212891"/>
      <use xlink:href="#DejaVuSans-6c" x="856.591797"/>
      <use xlink:href="#DejaVuSans-74" x="884.375"/>
      <use xlink:href="#DejaVuSans-69" x="923.583984"/>
      <use xlink:href="#DejaVuSans-70" x="951.367188"/>
      <use xlink:href="#DejaVuSans-6c" x="1014.84375"/>
      <use xlink:href="#DejaVuSans-69" x="1042.626953"/>
      <use xlink:href="#DejaVuSans-65" x="1070.410156"/>
      <use xlink:href="#DejaVuSans-72" x="1131.933594"/>
      <use xlink:href="#DejaVuSans-5f" x="1173.046875"/>
      <use xlink:href="#DejaVuSans-36" x="1223.046875"/>
      <use xlink:href="#DejaVuSans-2e" x="1286.669922"/>
      <use xlink:href="#DejaVuSans-30" x="1318.457031"/>
     </g>
    </g>
    <g id="line2d_78">
     <path d="M 81 186.912188 
L 91 186.912188 
L 101 186.912188 
" style="fill: none; stroke: #7f7f7f; stroke-linecap: square"/>
    </g>
    <g id="text_27">
     <!-- Nactor_4.0_ssmultiplier_8.0 -->
     <g transform="translate(109 190.412188) scale(0.1 -0.1)">
      <use xlink:href="#DejaVuSans-4e"/>
      <use xlink:href="#DejaVuSans-61" x="74.804688"/>
      <use xlink:href="#DejaVuSans-63" x="136.083984"/>
      <use xlink:href="#DejaVuSans-74" x="191.064453"/>
      <use xlink:href="#DejaVuSans-6f" x="230.273438"/>
      <use xlink:href="#DejaVuSans-72" x="291.455078"/>
      <use xlink:href="#DejaVuSans-5f" x="332.568359"/>
      <use xlink:href="#DejaVuSans-34" x="382.568359"/>
      <use xlink:href="#DejaVuSans-2e" x="446.191406"/>
      <use xlink:href="#DejaVuSans-30" x="477.978516"/>
      <use xlink:href="#DejaVuSans-5f" x="541.601562"/>
      <use xlink:href="#DejaVuSans-73" x="591.601562"/>
      <use xlink:href="#DejaVuSans-73" x="643.701172"/>
      <use xlink:href="#DejaVuSans-6d" x="695.800781"/>
      <use xlink:href="#DejaVuSans-75" x="793.212891"/>
      <use xlink:href="#DejaVuSans-6c" x="856.591797"/>
      <use xlink:href="#DejaVuSans-74" x="884.375"/>
      <use xlink:href="#DejaVuSans-69" x="923.583984"/>
      <use xlink:href="#DejaVuSans-70" x="951.367188"/>
      <use xlink:href="#DejaVuSans-6c" x="1014.84375"/>
      <use xlink:href="#DejaVuSans-69" x="1042.626953"/>
      <use xlink:href="#DejaVuSans-65" x="1070.410156"/>
      <use xlink:href="#DejaVuSans-72" x="1131.933594"/>
      <use xlink:href="#DejaVuSans-5f" x="1173.046875"/>
      <use xlink:href="#DejaVuSans-38" x="1223.046875"/>
      <use xlink:href="#DejaVuSans-2e" x="1286.669922"/>
      <use xlink:href="#DejaVuSans-30" x="1318.457031"/>
     </g>
    </g>
    <g id="line2d_79">
     <path d="M 81 201.868438 
L 91 201.868438 
L 101 201.868438 
" style="fill: none; stroke: #bcbd22; stroke-linecap: square"/>
    </g>
    <g id="text_28">
     <!-- Nactor_6.0_ssmultiplier_2.0 -->
     <g transform="translate(109 205.368438) scale(0.1 -0.1)">
      <use xlink:href="#DejaVuSans-4e"/>
      <use xlink:href="#DejaVuSans-61" x="74.804688"/>
      <use xlink:href="#DejaVuSans-63" x="136.083984"/>
      <use xlink:href="#DejaVuSans-74" x="191.064453"/>
      <use xlink:href="#DejaVuSans-6f" x="230.273438"/>
      <use xlink:href="#DejaVuSans-72" x="291.455078"/>
      <use xlink:href="#DejaVuSans-5f" x="332.568359"/>
      <use xlink:href="#DejaVuSans-36" x="382.568359"/>
      <use xlink:href="#DejaVuSans-2e" x="446.191406"/>
      <use xlink:href="#DejaVuSans-30" x="477.978516"/>
      <use xlink:href="#DejaVuSans-5f" x="541.601562"/>
      <use xlink:href="#DejaVuSans-73" x="591.601562"/>
      <use xlink:href="#DejaVuSans-73" x="643.701172"/>
      <use xlink:href="#DejaVuSans-6d" x="695.800781"/>
      <use xlink:href="#DejaVuSans-75" x="793.212891"/>
      <use xlink:href="#DejaVuSans-6c" x="856.591797"/>
      <use xlink:href="#DejaVuSans-74" x="884.375"/>
      <use xlink:href="#DejaVuSans-69" x="923.583984"/>
      <use xlink:href="#DejaVuSans-70" x="951.367188"/>
      <use xlink:href="#DejaVuSans-6c" x="1014.84375"/>
      <use xlink:href="#DejaVuSans-69" x="1042.626953"/>
      <use xlink:href="#DejaVuSans-65" x="1070.410156"/>
      <use xlink:href="#DejaVuSans-72" x="1131.933594"/>
      <use xlink:href="#DejaVuSans-5f" x="1173.046875"/>
      <use xlink:href="#DejaVuSans-32" x="1223.046875"/>
      <use xlink:href="#DejaVuSans-2e" x="1286.669922"/>
      <use xlink:href="#DejaVuSans-30" x="1318.457031"/>
     </g>
    </g>
    <g id="line2d_80">
     <path d="M 81 216.824687 
L 91 216.824687 
L 101 216.824687 
" style="fill: none; stroke: #17becf; stroke-linecap: square"/>
    </g>
    <g id="text_29">
     <!-- Nactor_6.0_ssmultiplier_4.0 -->
     <g transform="translate(109 220.324687) scale(0.1 -0.1)">
      <use xlink:href="#DejaVuSans-4e"/>
      <use xlink:href="#DejaVuSans-61" x="74.804688"/>
      <use xlink:href="#DejaVuSans-63" x="136.083984"/>
      <use xlink:href="#DejaVuSans-74" x="191.064453"/>
      <use xlink:href="#DejaVuSans-6f" x="230.273438"/>
      <use xlink:href="#DejaVuSans-72" x="291.455078"/>
      <use xlink:href="#DejaVuSans-5f" x="332.568359"/>
      <use xlink:href="#DejaVuSans-36" x="382.568359"/>
      <use xlink:href="#DejaVuSans-2e" x="446.191406"/>
      <use xlink:href="#DejaVuSans-30" x="477.978516"/>
      <use xlink:href="#DejaVuSans-5f" x="541.601562"/>
      <use xlink:href="#DejaVuSans-73" x="591.601562"/>
      <use xlink:href="#DejaVuSans-73" x="643.701172"/>
      <use xlink:href="#DejaVuSans-6d" x="695.800781"/>
      <use xlink:href="#DejaVuSans-75" x="793.212891"/>
      <use xlink:href="#DejaVuSans-6c" x="856.591797"/>
      <use xlink:href="#DejaVuSans-74" x="884.375"/>
      <use xlink:href="#DejaVuSans-69" x="923.583984"/>
      <use xlink:href="#DejaVuSans-70" x="951.367188"/>
      <use xlink:href="#DejaVuSans-6c" x="1014.84375"/>
      <use xlink:href="#DejaVuSans-69" x="1042.626953"/>
      <use xlink:href="#DejaVuSans-65" x="1070.410156"/>
      <use xlink:href="#DejaVuSans-72" x="1131.933594"/>
      <use xlink:href="#DejaVuSans-5f" x="1173.046875"/>
      <use xlink:href="#DejaVuSans-34" x="1223.046875"/>
      <use xlink:href="#DejaVuSans-2e" x="1286.669922"/>
      <use xlink:href="#DejaVuSans-30" x="1318.457031"/>
     </g>
    </g>
    <g id="line2d_81">
     <path d="M 81 231.780937 
L 91 231.780937 
L 101 231.780937 
" style="fill: none; stroke: #1f77b4; stroke-linecap: square"/>
    </g>
    <g id="text_30">
     <!-- Nactor_6.0_ssmultiplier_6.0 -->
     <g transform="translate(109 235.280937) scale(0.1 -0.1)">
      <use xlink:href="#DejaVuSans-4e"/>
      <use xlink:href="#DejaVuSans-61" x="74.804688"/>
      <use xlink:href="#DejaVuSans-63" x="136.083984"/>
      <use xlink:href="#DejaVuSans-74" x="191.064453"/>
      <use xlink:href="#DejaVuSans-6f" x="230.273438"/>
      <use xlink:href="#DejaVuSans-72" x="291.455078"/>
      <use xlink:href="#DejaVuSans-5f" x="332.568359"/>
      <use xlink:href="#DejaVuSans-36" x="382.568359"/>
      <use xlink:href="#DejaVuSans-2e" x="446.191406"/>
      <use xlink:href="#DejaVuSans-30" x="477.978516"/>
      <use xlink:href="#DejaVuSans-5f" x="541.601562"/>
      <use xlink:href="#DejaVuSans-73" x="591.601562"/>
      <use xlink:href="#DejaVuSans-73" x="643.701172"/>
      <use xlink:href="#DejaVuSans-6d" x="695.800781"/>
      <use xlink:href="#DejaVuSans-75" x="793.212891"/>
      <use xlink:href="#DejaVuSans-6c" x="856.591797"/>
      <use xlink:href="#DejaVuSans-74" x="884.375"/>
      <use xlink:href="#DejaVuSans-69" x="923.583984"/>
      <use xlink:href="#DejaVuSans-70" x="951.367188"/>
      <use xlink:href="#DejaVuSans-6c" x="1014.84375"/>
      <use xlink:href="#DejaVuSans-69" x="1042.626953"/>
      <use xlink:href="#DejaVuSans-65" x="1070.410156"/>
      <use xlink:href="#DejaVuSans-72" x="1131.933594"/>
      <use xlink:href="#DejaVuSans-5f" x="1173.046875"/>
      <use xlink:href="#DejaVuSans-36" x="1223.046875"/>
      <use xlink:href="#DejaVuSans-2e" x="1286.669922"/>
      <use xlink:href="#DejaVuSans-30" x="1318.457031"/>
     </g>
    </g>
    <g id="line2d_82">
     <path d="M 81 246.737188 
L 91 246.737188 
L 101 246.737188 
" style="fill: none; stroke: #ff7f0e; stroke-linecap: square"/>
    </g>
    <g id="text_31">
     <!-- Nactor_6.0_ssmultiplier_8.0 -->
     <g transform="translate(109 250.237188) scale(0.1 -0.1)">
      <use xlink:href="#DejaVuSans-4e"/>
      <use xlink:href="#DejaVuSans-61" x="74.804688"/>
      <use xlink:href="#DejaVuSans-63" x="136.083984"/>
      <use xlink:href="#DejaVuSans-74" x="191.064453"/>
      <use xlink:href="#DejaVuSans-6f" x="230.273438"/>
      <use xlink:href="#DejaVuSans-72" x="291.455078"/>
      <use xlink:href="#DejaVuSans-5f" x="332.568359"/>
      <use xlink:href="#DejaVuSans-36" x="382.568359"/>
      <use xlink:href="#DejaVuSans-2e" x="446.191406"/>
      <use xlink:href="#DejaVuSans-30" x="477.978516"/>
      <use xlink:href="#DejaVuSans-5f" x="541.601562"/>
      <use xlink:href="#DejaVuSans-73" x="591.601562"/>
      <use xlink:href="#DejaVuSans-73" x="643.701172"/>
      <use xlink:href="#DejaVuSans-6d" x="695.800781"/>
      <use xlink:href="#DejaVuSans-75" x="793.212891"/>
      <use xlink:href="#DejaVuSans-6c" x="856.591797"/>
      <use xlink:href="#DejaVuSans-74" x="884.375"/>
      <use xlink:href="#DejaVuSans-69" x="923.583984"/>
      <use xlink:href="#DejaVuSans-70" x="951.367188"/>
      <use xlink:href="#DejaVuSans-6c" x="1014.84375"/>
      <use xlink:href="#DejaVuSans-69" x="1042.626953"/>
      <use xlink:href="#DejaVuSans-65" x="1070.410156"/>
      <use xlink:href="#DejaVuSans-72" x="1131.933594"/>
      <use xlink:href="#DejaVuSans-5f" x="1173.046875"/>
      <use xlink:href="#DejaVuSans-38" x="1223.046875"/>
      <use xlink:href="#DejaVuSans-2e" x="1286.669922"/>
      <use xlink:href="#DejaVuSans-30" x="1318.457031"/>
     </g>
    </g>
   </g>
  </g>
 </g>
 <defs>
  <clipPath id="pef80454e85">
   <rect x="72" y="69.12" width="446.4" height="443.52"/>
  </clipPath>
 </defs>
</svg>
