<?xml version="1.0" encoding="utf-8" standalone="no"?>
<!DOCTYPE svg PUBLIC "-//W3C//DTD SVG 1.1//EN"
  "http://www.w3.org/Graphics/SVG/1.1/DTD/svg11.dtd">
<svg xmlns:xlink="http://www.w3.org/1999/xlink" width="460.8pt" height="345.6pt" viewBox="0 0 460.8 345.6" xmlns="http://www.w3.org/2000/svg" version="1.1">
 <metadata>
  <rdf:RDF xmlns:dc="http://purl.org/dc/elements/1.1/" xmlns:cc="http://creativecommons.org/ns#" xmlns:rdf="http://www.w3.org/1999/02/22-rdf-syntax-ns#">
   <cc:Work>
    <dc:type rdf:resource="http://purl.org/dc/dcmitype/StillImage"/>
    <dc:date>2024-07-16T22:47:19.155234</dc:date>
    <dc:format>image/svg+xml</dc:format>
    <dc:creator>
     <cc:Agent>
      <dc:title>Matplotlib v3.7.2, https://matplotlib.org/</dc:title>
     </cc:Agent>
    </dc:creator>
   </cc:Work>
  </rdf:RDF>
 </metadata>
 <defs>
  <style type="text/css">*{stroke-linejoin: round; stroke-linecap: butt}</style>
 </defs>
 <g id="figure_1">
  <g id="patch_1">
   <path d="M 0 345.6 
L 460.8 345.6 
L 460.8 0 
L 0 0 
z
" style="fill: #ffffff"/>
  </g>
  <g id="axes_1">
   <g id="patch_2">
    <path d="M 57.6 307.584 
L 414.72 307.584 
L 414.72 41.472 
L 57.6 41.472 
z
" style="fill: #ffffff"/>
   </g>
   <g id="PathCollection_1">
    <path d="M 66.756923 307.584 
L 75.913846 307.584 
L 85.070769 307.584 
L 94.227692 307.584 
L 103.384615 307.584 
L 112.541538 307.584 
L 121.698462 307.584 
L 130.855385 307.584 
L 140.012308 307.584 
L 149.169231 307.584 
L 158.326154 307.584 
L 167.483077 307.584 
L 176.64 307.584 
L 185.796923 307.584 
L 194.953846 307.584 
L 204.110769 307.584 
L 213.267692 307.584 
L 222.424615 307.584 
L 231.581538 307.584 
L 240.738462 307.584 
L 249.895385 307.584 
L 259.052308 307.584 
L 268.209231 307.584 
L 277.366154 307.584 
L 286.523077 307.584 
L 295.68 307.584 
L 304.836923 307.584 
L 313.993846 307.584 
L 323.150769 307.584 
L 332.307692 307.584 
L 341.464615 307.584 
L 350.621538 307.584 
L 359.778462 307.584 
L 368.935385 307.584 
L 378.092308 307.584 
L 387.249231 307.584 
L 396.406154 307.584 
L 405.563077 307.584 
L 414.72 307.584 
L 414.72 300.760615 
L 414.72 293.937231 
L 414.72 287.113846 
L 414.72 280.290462 
L 414.72 273.467077 
L 414.72 266.643692 
L 414.72 259.820308 
L 414.72 252.996923 
L 414.72 246.173538 
L 414.72 239.350154 
L 414.72 232.526769 
L 414.72 225.703385 
L 414.72 218.88 
L 414.72 212.056615 
L 414.72 205.233231 
L 414.72 198.409846 
L 414.72 191.586462 
L 414.72 184.763077 
L 414.72 177.939692 
L 414.72 171.116308 
L 414.72 164.292923 
L 414.72 157.469538 
L 414.72 150.646154 
L 414.72 143.822769 
L 414.72 136.999385 
L 414.72 130.176 
L 414.72 123.352615 
L 414.72 116.529231 
L 414.72 109.705846 
L 414.72 102.882462 
L 414.72 96.059077 
L 414.72 89.235692 
L 414.72 82.412308 
L 414.72 75.588923 
L 414.72 68.765538 
L 414.72 61.942154 
L 414.72 55.118769 
L 414.72 48.295385 
L 414.72 41.472 
L 405.563077 41.472 
L 396.406154 41.472 
L 387.249231 41.472 
L 378.092308 41.472 
L 368.935385 41.472 
L 359.778462 41.472 
L 350.621538 41.472 
L 341.464615 41.472 
L 332.307692 41.472 
L 323.150769 41.472 
L 313.993846 41.472 
L 304.836923 41.472 
L 295.68 41.472 
L 286.523077 41.472 
L 277.366154 41.472 
L 268.209231 41.472 
L 259.052308 41.472 
L 249.895385 41.472 
L 240.738462 41.472 
L 231.581538 41.472 
L 222.424615 41.472 
L 213.267692 41.472 
L 204.110769 41.472 
L 194.953846 41.472 
L 185.796923 41.472 
L 176.64 41.472 
L 167.483077 41.472 
L 158.326154 41.472 
L 149.169231 41.472 
L 140.012308 41.472 
L 130.855385 41.472 
L 121.698462 41.472 
L 112.541538 41.472 
L 103.384615 41.472 
L 94.227692 41.472 
L 85.070769 41.472 
L 75.913846 41.472 
L 66.756923 41.472 
L 57.6 41.472 
L 57.6 48.295385 
L 57.6 55.118769 
L 57.6 61.942154 
L 57.6 68.765538 
L 57.6 75.588923 
L 57.6 82.412308 
L 57.6 89.235692 
L 57.6 96.059077 
L 57.6 102.882462 
L 57.6 109.705846 
L 57.6 116.529231 
L 57.6 123.352615 
L 57.6 130.176 
L 57.6 136.999385 
L 57.6 143.822769 
L 57.6 150.646154 
L 57.6 157.469538 
L 57.6 164.292923 
L 57.6 171.116308 
L 57.6 177.939692 
L 57.6 184.763077 
L 57.6 191.586462 
L 57.6 198.409846 
L 57.6 205.233231 
L 57.6 212.056615 
L 57.6 218.88 
L 57.6 225.703385 
L 57.6 232.526769 
L 57.6 239.350154 
L 57.6 246.173538 
L 57.6 252.996923 
L 57.6 259.820308 
L 57.6 266.643692 
L 57.6 273.467077 
L 57.6 280.290462 
L 57.6 287.113846 
L 57.6 293.937231 
L 57.6 300.760615 
L 57.6 307.584 
z
M 258.270283 191.586462 
L 249.895385 189.480604 
L 240.738462 185.636612 
L 239.14207 184.763077 
L 231.581538 180.302664 
L 228.41045 177.939692 
L 222.424615 172.305877 
L 221.252339 171.116308 
L 216.093735 164.292923 
L 213.267692 158.052273 
L 212.965397 157.469538 
L 210.802672 150.646154 
L 210.125662 143.822769 
L 210.802672 136.999385 
L 212.965397 130.176 
L 213.267692 129.593265 
L 216.093735 123.352615 
L 221.252339 116.529231 
L 222.424615 115.339661 
L 228.41045 109.705846 
L 231.581538 107.342874 
L 239.14207 102.882462 
L 240.738462 102.008926 
L 249.895385 98.164934 
L 258.270283 96.059077 
L 259.052308 95.833818 
L 268.209231 94.222239 
L 277.366154 93.717757 
L 286.523077 94.222239 
L 295.68 95.833818 
L 296.462025 96.059077 
L 304.836923 98.164934 
L 313.993846 102.008926 
L 315.590238 102.882462 
L 323.150769 107.342874 
L 326.321857 109.705846 
L 332.307692 115.339661 
L 333.479969 116.529231 
L 338.638573 123.352615 
L 341.464615 129.593265 
L 341.76691 130.176 
L 343.929635 136.999385 
L 344.606646 143.822769 
L 343.929635 150.646154 
L 341.76691 157.469538 
L 341.464615 158.052273 
L 338.638573 164.292923 
L 333.479969 171.116308 
L 332.307692 172.305877 
L 326.321857 177.939692 
L 323.150769 180.302664 
L 315.590238 184.763077 
L 313.993846 185.636612 
L 304.836923 189.480604 
L 296.462025 191.586462 
L 295.68 191.81172 
L 286.523077 193.423299 
L 277.366154 193.927781 
L 268.209231 193.423299 
L 259.052308 191.81172 
z
" clip-path="url(#pefca328432)" style="fill: #e8f1f7"/>
   </g>
   <g id="PathCollection_2">
    <path d="M 259.052308 191.81172 
L 268.209231 193.423299 
L 277.366154 193.927781 
L 286.523077 193.423299 
L 295.68 191.81172 
L 296.462025 191.586462 
L 304.836923 189.480604 
L 313.993846 185.636612 
L 315.590238 184.763077 
L 323.150769 180.302664 
L 326.321857 177.939692 
L 332.307692 172.305877 
L 333.479969 171.116308 
L 338.638573 164.292923 
L 341.464615 158.052273 
L 341.76691 157.469538 
L 343.929635 150.646154 
L 344.606646 143.822769 
L 343.929635 136.999385 
L 341.76691 130.176 
L 341.464615 129.593265 
L 338.638573 123.352615 
L 333.479969 116.529231 
L 332.307692 115.339661 
L 326.321857 109.705846 
L 323.150769 107.342874 
L 315.590238 102.882462 
L 313.993846 102.008926 
L 304.836923 98.164934 
L 296.462025 96.059077 
L 295.68 95.833818 
L 286.523077 94.222239 
L 277.366154 93.717757 
L 268.209231 94.222239 
L 259.052308 95.833818 
L 258.270283 96.059077 
L 249.895385 98.164934 
L 240.738462 102.008926 
L 239.14207 102.882462 
L 231.581538 107.342874 
L 228.41045 109.705846 
L 222.424615 115.339661 
L 221.252339 116.529231 
L 216.093735 123.352615 
L 213.267692 129.593265 
L 212.965397 130.176 
L 210.802672 136.999385 
L 210.125662 143.822769 
L 210.802672 150.646154 
L 212.965397 157.469538 
L 213.267692 158.052273 
L 216.093735 164.292923 
L 221.252339 171.116308 
L 222.424615 172.305877 
L 228.41045 177.939692 
L 231.581538 180.302664 
L 239.14207 184.763077 
L 240.738462 185.636612 
L 249.895385 189.480604 
L 258.270283 191.586462 
z
M 254.815 177.939692 
L 249.895385 176.03082 
L 241.665991 171.116308 
L 240.738462 170.425149 
L 234.143228 164.292923 
L 231.581538 160.627016 
L 229.474425 157.469538 
L 226.845983 150.646154 
L 226.023187 143.822769 
L 226.845983 136.999385 
L 229.474425 130.176 
L 231.581538 127.018523 
L 234.143228 123.352615 
L 240.738462 117.22039 
L 241.665991 116.529231 
L 249.895385 111.614718 
L 254.815 109.705846 
L 259.052308 108.135707 
L 268.209231 106.177094 
L 277.366154 105.563978 
L 286.523077 106.177094 
L 295.68 108.135707 
L 299.917307 109.705846 
L 304.836923 111.614718 
L 313.066317 116.529231 
L 313.993846 117.22039 
L 320.58908 123.352615 
L 323.150769 127.018523 
L 325.257883 130.176 
L 327.886324 136.999385 
L 328.709121 143.822769 
L 327.886324 150.646154 
L 325.257883 157.469538 
L 323.150769 160.627016 
L 320.58908 164.292923 
L 313.993846 170.425149 
L 313.066317 171.116308 
L 304.836923 176.03082 
L 299.917307 177.939692 
L 295.68 179.509832 
L 286.523077 181.468445 
L 277.366154 182.081561 
L 268.209231 181.468445 
L 259.052308 179.509832 
z
" clip-path="url(#pefca328432)" style="fill: #bfd3e6"/>
   </g>
   <g id="PathCollection_3">
    <path d="M 259.052308 179.509832 
L 268.209231 181.468445 
L 277.366154 182.081561 
L 286.523077 181.468445 
L 295.68 179.509832 
L 299.917307 177.939692 
L 304.836923 176.03082 
L 313.066317 171.116308 
L 313.993846 170.425149 
L 320.58908 164.292923 
L 323.150769 160.627016 
L 325.257883 157.469538 
L 327.886324 150.646154 
L 328.709121 143.822769 
L 327.886324 136.999385 
L 325.257883 130.176 
L 323.150769 127.018523 
L 320.58908 123.352615 
L 313.993846 117.22039 
L 313.066317 116.529231 
L 304.836923 111.614718 
L 299.917307 109.705846 
L 295.68 108.135707 
L 286.523077 106.177094 
L 277.366154 105.563978 
L 268.209231 106.177094 
L 259.052308 108.135707 
L 254.815 109.705846 
L 249.895385 111.614718 
L 241.665991 116.529231 
L 240.738462 117.22039 
L 234.143228 123.352615 
L 231.581538 127.018523 
L 229.474425 130.176 
L 226.845983 136.999385 
L 226.023187 143.822769 
L 226.845983 150.646154 
L 229.474425 157.469538 
L 231.581538 160.627016 
L 234.143228 164.292923 
L 240.738462 170.425149 
L 241.665991 171.116308 
L 249.895385 176.03082 
L 254.815 177.939692 
z
M 264.313275 171.116308 
L 259.052308 169.540551 
L 249.895385 164.554776 
L 249.543981 164.292923 
L 242.853114 157.469538 
L 240.738462 153.549269 
L 239.316341 150.646154 
L 238.210934 143.822769 
L 239.316341 136.999385 
L 240.738462 134.09627 
L 242.853114 130.176 
L 249.543981 123.352615 
L 249.895385 123.090763 
L 259.052308 118.104988 
L 264.313275 116.529231 
L 268.209231 115.469522 
L 277.366154 114.645815 
L 286.523077 115.469522 
L 290.419032 116.529231 
L 295.68 118.104988 
L 304.836923 123.090763 
L 305.188327 123.352615 
L 311.879194 130.176 
L 313.993846 134.09627 
L 315.415967 136.999385 
L 316.521374 143.822769 
L 315.415967 150.646154 
L 313.993846 153.549269 
L 311.879194 157.469538 
L 305.188327 164.292923 
L 304.836923 164.554776 
L 295.68 169.540551 
L 290.419032 171.116308 
L 286.523077 172.176017 
L 277.366154 172.999724 
L 268.209231 172.176017 
z
" clip-path="url(#pefca328432)" style="fill: #98b0d3"/>
   </g>
   <g id="PathCollection_4">
    <path d="M 268.209231 172.176017 
L 277.366154 172.999724 
L 286.523077 172.176017 
L 290.419032 171.116308 
L 295.68 169.540551 
L 304.836923 164.554776 
L 305.188327 164.292923 
L 311.879194 157.469538 
L 313.993846 153.549269 
L 315.415967 150.646154 
L 316.521374 143.822769 
L 315.415967 136.999385 
L 313.993846 134.09627 
L 311.879194 130.176 
L 305.188327 123.352615 
L 304.836923 123.090763 
L 295.68 118.104988 
L 290.419032 116.529231 
L 286.523077 115.469522 
L 277.366154 114.645815 
L 268.209231 115.469522 
L 264.313275 116.529231 
L 259.052308 118.104988 
L 249.895385 123.090763 
L 249.543981 123.352615 
L 242.853114 130.176 
L 240.738462 134.09627 
L 239.316341 136.999385 
L 238.210934 143.822769 
L 239.316341 150.646154 
L 240.738462 153.549269 
L 242.853114 157.469538 
L 249.543981 164.292923 
L 249.895385 164.554776 
L 259.052308 169.540551 
L 264.313275 171.116308 
z
M 277.028105 164.292923 
L 268.209231 163.05946 
L 259.052308 158.97274 
L 257.035024 157.469538 
L 251.550681 150.646154 
L 249.895385 144.07467 
L 249.842449 143.822769 
L 249.895385 143.570869 
L 251.550681 136.999385 
L 257.035024 130.176 
L 259.052308 128.672798 
L 268.209231 124.586078 
L 277.028105 123.352615 
L 277.366154 123.31317 
L 277.704202 123.352615 
L 286.523077 124.586078 
L 295.68 128.672798 
L 297.697284 130.176 
L 303.181627 136.999385 
L 304.836923 143.570869 
L 304.889859 143.822769 
L 304.836923 144.07467 
L 303.181627 150.646154 
L 297.697284 157.469538 
L 295.68 158.97274 
L 286.523077 163.05946 
L 277.704202 164.292923 
L 277.366154 164.332369 
z
" clip-path="url(#pefca328432)" style="fill: #8c79b8"/>
   </g>
   <g id="PathCollection_5">
    <path d="M 277.366154 164.332369 
L 277.704202 164.292923 
L 286.523077 163.05946 
L 295.68 158.97274 
L 297.697284 157.469538 
L 303.181627 150.646154 
L 304.836923 144.07467 
L 304.889859 143.822769 
L 304.836923 143.570869 
L 303.181627 136.999385 
L 297.697284 130.176 
L 295.68 128.672798 
L 286.523077 124.586078 
L 277.704202 123.352615 
L 277.366154 123.31317 
L 277.028105 123.352615 
L 268.209231 124.586078 
L 259.052308 128.672798 
L 257.035024 130.176 
L 251.550681 136.999385 
L 249.895385 143.570869 
L 249.842449 143.822769 
L 249.895385 144.07467 
L 251.550681 150.646154 
L 257.035024 157.469538 
L 259.052308 158.97274 
L 268.209231 163.05946 
L 277.028105 164.292923 
z
M 269.150323 150.646154 
L 268.209231 149.944888 
L 265.384607 143.822769 
L 268.209231 137.70065 
L 269.150323 136.999385 
L 277.366154 134.894584 
L 285.581985 136.999385 
L 286.523077 137.70065 
L 289.347701 143.822769 
L 286.523077 149.944888 
L 285.581985 150.646154 
L 277.366154 152.750954 
z
" clip-path="url(#pefca328432)" style="fill: #88409c"/>
   </g>
   <g id="PathCollection_6">
    <path d="M 277.366154 152.750954 
L 285.581985 150.646154 
L 286.523077 149.944888 
L 289.347701 143.822769 
L 286.523077 137.70065 
L 285.581985 136.999385 
L 277.366154 134.894584 
L 269.150323 136.999385 
L 268.209231 137.70065 
L 265.384607 143.822769 
L 268.209231 149.944888 
L 269.150323 150.646154 
z
" clip-path="url(#pefca328432)" style="fill: #6f0a6b"/>
   </g>
   <g id="matplotlib.axis_1">
    <g id="xtick_1">
     <g id="line2d_1">
      <defs>
       <path id="m98a2b2fe4d" d="M 0 0 
L 0 3.5 
" style="stroke: #000000; stroke-width: 0.8"/>
      </defs>
      <g>
       <use xlink:href="#m98a2b2fe4d" x="94.227692" y="307.584" style="stroke: #000000; stroke-width: 0.8"/>
      </g>
     </g>
     <g id="text_1">
      <!-- −4 -->
      <g transform="translate(86.856599 322.182437) scale(0.1 -0.1)">
       <defs>
        <path id="DejaVuSans-2212" d="M 678 2272 
L 4684 2272 
L 4684 1741 
L 678 1741 
L 678 2272 
z
" transform="scale(0.015625)"/>
        <path id="DejaVuSans-34" d="M 2419 4116 
L 825 1625 
L 2419 1625 
L 2419 4116 
z
M 2253 4666 
L 3047 4666 
L 3047 1625 
L 3713 1625 
L 3713 1100 
L 3047 1100 
L 3047 0 
L 2419 0 
L 2419 1100 
L 313 1100 
L 313 1709 
L 2253 4666 
z
" transform="scale(0.015625)"/>
       </defs>
       <use xlink:href="#DejaVuSans-2212"/>
       <use xlink:href="#DejaVuSans-34" x="83.789062"/>
      </g>
     </g>
    </g>
    <g id="xtick_2">
     <g id="line2d_2">
      <g>
       <use xlink:href="#m98a2b2fe4d" x="167.483077" y="307.584" style="stroke: #000000; stroke-width: 0.8"/>
      </g>
     </g>
     <g id="text_2">
      <!-- −2 -->
      <g transform="translate(160.111983 322.182437) scale(0.1 -0.1)">
       <defs>
        <path id="DejaVuSans-32" d="M 1228 531 
L 3431 531 
L 3431 0 
L 469 0 
L 469 531 
Q 828 903 1448 1529 
Q 2069 2156 2228 2338 
Q 2531 2678 2651 2914 
Q 2772 3150 2772 3378 
Q 2772 3750 2511 3984 
Q 2250 4219 1831 4219 
Q 1534 4219 1204 4116 
Q 875 4013 500 3803 
L 500 4441 
Q 881 4594 1212 4672 
Q 1544 4750 1819 4750 
Q 2544 4750 2975 4387 
Q 3406 4025 3406 3419 
Q 3406 3131 3298 2873 
Q 3191 2616 2906 2266 
Q 2828 2175 2409 1742 
Q 1991 1309 1228 531 
z
" transform="scale(0.015625)"/>
       </defs>
       <use xlink:href="#DejaVuSans-2212"/>
       <use xlink:href="#DejaVuSans-32" x="83.789062"/>
      </g>
     </g>
    </g>
    <g id="xtick_3">
     <g id="line2d_3">
      <g>
       <use xlink:href="#m98a2b2fe4d" x="240.738462" y="307.584" style="stroke: #000000; stroke-width: 0.8"/>
      </g>
     </g>
     <g id="text_3">
      <!-- 0 -->
      <g transform="translate(237.557212 322.182437) scale(0.1 -0.1)">
       <defs>
        <path id="DejaVuSans-30" d="M 2034 4250 
Q 1547 4250 1301 3770 
Q 1056 3291 1056 2328 
Q 1056 1369 1301 889 
Q 1547 409 2034 409 
Q 2525 409 2770 889 
Q 3016 1369 3016 2328 
Q 3016 3291 2770 3770 
Q 2525 4250 2034 4250 
z
M 2034 4750 
Q 2819 4750 3233 4129 
Q 3647 3509 3647 2328 
Q 3647 1150 3233 529 
Q 2819 -91 2034 -91 
Q 1250 -91 836 529 
Q 422 1150 422 2328 
Q 422 3509 836 4129 
Q 1250 4750 2034 4750 
z
" transform="scale(0.015625)"/>
       </defs>
       <use xlink:href="#DejaVuSans-30"/>
      </g>
     </g>
    </g>
    <g id="xtick_4">
     <g id="line2d_4">
      <g>
       <use xlink:href="#m98a2b2fe4d" x="313.993846" y="307.584" style="stroke: #000000; stroke-width: 0.8"/>
      </g>
     </g>
     <g id="text_4">
      <!-- 2 -->
      <g transform="translate(310.812596 322.182437) scale(0.1 -0.1)">
       <use xlink:href="#DejaVuSans-32"/>
      </g>
     </g>
    </g>
    <g id="xtick_5">
     <g id="line2d_5">
      <g>
       <use xlink:href="#m98a2b2fe4d" x="387.249231" y="307.584" style="stroke: #000000; stroke-width: 0.8"/>
      </g>
     </g>
     <g id="text_5">
      <!-- 4 -->
      <g transform="translate(384.067981 322.182437) scale(0.1 -0.1)">
       <use xlink:href="#DejaVuSans-34"/>
      </g>
     </g>
    </g>
   </g>
   <g id="matplotlib.axis_2">
    <g id="ytick_1">
     <g id="line2d_6">
      <defs>
       <path id="m190d21bfb3" d="M 0 0 
L -3.5 0 
" style="stroke: #000000; stroke-width: 0.8"/>
      </defs>
      <g>
       <use xlink:href="#m190d21bfb3" x="57.6" y="280.290462" style="stroke: #000000; stroke-width: 0.8"/>
      </g>
     </g>
     <g id="text_6">
      <!-- −4 -->
      <g transform="translate(35.857813 284.08968) scale(0.1 -0.1)">
       <use xlink:href="#DejaVuSans-2212"/>
       <use xlink:href="#DejaVuSans-34" x="83.789062"/>
      </g>
     </g>
    </g>
    <g id="ytick_2">
     <g id="line2d_7">
      <g>
       <use xlink:href="#m190d21bfb3" x="57.6" y="225.703385" style="stroke: #000000; stroke-width: 0.8"/>
      </g>
     </g>
     <g id="text_7">
      <!-- −2 -->
      <g transform="translate(35.857813 229.502603) scale(0.1 -0.1)">
       <use xlink:href="#DejaVuSans-2212"/>
       <use xlink:href="#DejaVuSans-32" x="83.789062"/>
      </g>
     </g>
    </g>
    <g id="ytick_3">
     <g id="line2d_8">
      <g>
       <use xlink:href="#m190d21bfb3" x="57.6" y="171.116308" style="stroke: #000000; stroke-width: 0.8"/>
      </g>
     </g>
     <g id="text_8">
      <!-- 0 -->
      <g transform="translate(44.2375 174.915526) scale(0.1 -0.1)">
       <use xlink:href="#DejaVuSans-30"/>
      </g>
     </g>
    </g>
    <g id="ytick_4">
     <g id="line2d_9">
      <g>
       <use xlink:href="#m190d21bfb3" x="57.6" y="116.529231" style="stroke: #000000; stroke-width: 0.8"/>
      </g>
     </g>
     <g id="text_9">
      <!-- 2 -->
      <g transform="translate(44.2375 120.32845) scale(0.1 -0.1)">
       <use xlink:href="#DejaVuSans-32"/>
      </g>
     </g>
    </g>
    <g id="ytick_5">
     <g id="line2d_10">
      <g>
       <use xlink:href="#m190d21bfb3" x="57.6" y="61.942154" style="stroke: #000000; stroke-width: 0.8"/>
      </g>
     </g>
     <g id="text_10">
      <!-- 4 -->
      <g transform="translate(44.2375 65.741373) scale(0.1 -0.1)">
       <use xlink:href="#DejaVuSans-34"/>
      </g>
     </g>
    </g>
   </g>
   <g id="patch_3">
    <path d="M 57.6 307.584 
L 57.6 41.472 
" style="fill: none; stroke: #000000; stroke-width: 0.8; stroke-linejoin: miter; stroke-linecap: square"/>
   </g>
   <g id="patch_4">
    <path d="M 414.72 307.584 
L 414.72 41.472 
" style="fill: none; stroke: #000000; stroke-width: 0.8; stroke-linejoin: miter; stroke-linecap: square"/>
   </g>
   <g id="patch_5">
    <path d="M 57.6 307.584 
L 414.72 307.584 
" style="fill: none; stroke: #000000; stroke-width: 0.8; stroke-linejoin: miter; stroke-linecap: square"/>
   </g>
   <g id="patch_6">
    <path d="M 57.6 41.472 
L 414.72 41.472 
" style="fill: none; stroke: #000000; stroke-width: 0.8; stroke-linejoin: miter; stroke-linecap: square"/>
   </g>
   <g id="text_11">
    <!-- Obstacle related cost map -->
    <g transform="translate(157.095937 35.472) scale(0.12 -0.12)">
     <defs>
      <path id="DejaVuSans-4f" d="M 2522 4238 
Q 1834 4238 1429 3725 
Q 1025 3213 1025 2328 
Q 1025 1447 1429 934 
Q 1834 422 2522 422 
Q 3209 422 3611 934 
Q 4013 1447 4013 2328 
Q 4013 3213 3611 3725 
Q 3209 4238 2522 4238 
z
M 2522 4750 
Q 3503 4750 4090 4092 
Q 4678 3434 4678 2328 
Q 4678 1225 4090 567 
Q 3503 -91 2522 -91 
Q 1538 -91 948 565 
Q 359 1222 359 2328 
Q 359 3434 948 4092 
Q 1538 4750 2522 4750 
z
" transform="scale(0.015625)"/>
      <path id="DejaVuSans-62" d="M 3116 1747 
Q 3116 2381 2855 2742 
Q 2594 3103 2138 3103 
Q 1681 3103 1420 2742 
Q 1159 2381 1159 1747 
Q 1159 1113 1420 752 
Q 1681 391 2138 391 
Q 2594 391 2855 752 
Q 3116 1113 3116 1747 
z
M 1159 2969 
Q 1341 3281 1617 3432 
Q 1894 3584 2278 3584 
Q 2916 3584 3314 3078 
Q 3713 2572 3713 1747 
Q 3713 922 3314 415 
Q 2916 -91 2278 -91 
Q 1894 -91 1617 61 
Q 1341 213 1159 525 
L 1159 0 
L 581 0 
L 581 4863 
L 1159 4863 
L 1159 2969 
z
" transform="scale(0.015625)"/>
      <path id="DejaVuSans-73" d="M 2834 3397 
L 2834 2853 
Q 2591 2978 2328 3040 
Q 2066 3103 1784 3103 
Q 1356 3103 1142 2972 
Q 928 2841 928 2578 
Q 928 2378 1081 2264 
Q 1234 2150 1697 2047 
L 1894 2003 
Q 2506 1872 2764 1633 
Q 3022 1394 3022 966 
Q 3022 478 2636 193 
Q 2250 -91 1575 -91 
Q 1294 -91 989 -36 
Q 684 19 347 128 
L 347 722 
Q 666 556 975 473 
Q 1284 391 1588 391 
Q 1994 391 2212 530 
Q 2431 669 2431 922 
Q 2431 1156 2273 1281 
Q 2116 1406 1581 1522 
L 1381 1569 
Q 847 1681 609 1914 
Q 372 2147 372 2553 
Q 372 3047 722 3315 
Q 1072 3584 1716 3584 
Q 2034 3584 2315 3537 
Q 2597 3491 2834 3397 
z
" transform="scale(0.015625)"/>
      <path id="DejaVuSans-74" d="M 1172 4494 
L 1172 3500 
L 2356 3500 
L 2356 3053 
L 1172 3053 
L 1172 1153 
Q 1172 725 1289 603 
Q 1406 481 1766 481 
L 2356 481 
L 2356 0 
L 1766 0 
Q 1100 0 847 248 
Q 594 497 594 1153 
L 594 3053 
L 172 3053 
L 172 3500 
L 594 3500 
L 594 4494 
L 1172 4494 
z
" transform="scale(0.015625)"/>
      <path id="DejaVuSans-61" d="M 2194 1759 
Q 1497 1759 1228 1600 
Q 959 1441 959 1056 
Q 959 750 1161 570 
Q 1363 391 1709 391 
Q 2188 391 2477 730 
Q 2766 1069 2766 1631 
L 2766 1759 
L 2194 1759 
z
M 3341 1997 
L 3341 0 
L 2766 0 
L 2766 531 
Q 2569 213 2275 61 
Q 1981 -91 1556 -91 
Q 1019 -91 701 211 
Q 384 513 384 1019 
Q 384 1609 779 1909 
Q 1175 2209 1959 2209 
L 2766 2209 
L 2766 2266 
Q 2766 2663 2505 2880 
Q 2244 3097 1772 3097 
Q 1472 3097 1187 3025 
Q 903 2953 641 2809 
L 641 3341 
Q 956 3463 1253 3523 
Q 1550 3584 1831 3584 
Q 2591 3584 2966 3190 
Q 3341 2797 3341 1997 
z
" transform="scale(0.015625)"/>
      <path id="DejaVuSans-63" d="M 3122 3366 
L 3122 2828 
Q 2878 2963 2633 3030 
Q 2388 3097 2138 3097 
Q 1578 3097 1268 2742 
Q 959 2388 959 1747 
Q 959 1106 1268 751 
Q 1578 397 2138 397 
Q 2388 397 2633 464 
Q 2878 531 3122 666 
L 3122 134 
Q 2881 22 2623 -34 
Q 2366 -91 2075 -91 
Q 1284 -91 818 406 
Q 353 903 353 1747 
Q 353 2603 823 3093 
Q 1294 3584 2113 3584 
Q 2378 3584 2631 3529 
Q 2884 3475 3122 3366 
z
" transform="scale(0.015625)"/>
      <path id="DejaVuSans-6c" d="M 603 4863 
L 1178 4863 
L 1178 0 
L 603 0 
L 603 4863 
z
" transform="scale(0.015625)"/>
      <path id="DejaVuSans-65" d="M 3597 1894 
L 3597 1613 
L 953 1613 
Q 991 1019 1311 708 
Q 1631 397 2203 397 
Q 2534 397 2845 478 
Q 3156 559 3463 722 
L 3463 178 
Q 3153 47 2828 -22 
Q 2503 -91 2169 -91 
Q 1331 -91 842 396 
Q 353 884 353 1716 
Q 353 2575 817 3079 
Q 1281 3584 2069 3584 
Q 2775 3584 3186 3129 
Q 3597 2675 3597 1894 
z
M 3022 2063 
Q 3016 2534 2758 2815 
Q 2500 3097 2075 3097 
Q 1594 3097 1305 2825 
Q 1016 2553 972 2059 
L 3022 2063 
z
" transform="scale(0.015625)"/>
      <path id="DejaVuSans-20" transform="scale(0.015625)"/>
      <path id="DejaVuSans-72" d="M 2631 2963 
Q 2534 3019 2420 3045 
Q 2306 3072 2169 3072 
Q 1681 3072 1420 2755 
Q 1159 2438 1159 1844 
L 1159 0 
L 581 0 
L 581 3500 
L 1159 3500 
L 1159 2956 
Q 1341 3275 1631 3429 
Q 1922 3584 2338 3584 
Q 2397 3584 2469 3576 
Q 2541 3569 2628 3553 
L 2631 2963 
z
" transform="scale(0.015625)"/>
      <path id="DejaVuSans-64" d="M 2906 2969 
L 2906 4863 
L 3481 4863 
L 3481 0 
L 2906 0 
L 2906 525 
Q 2725 213 2448 61 
Q 2172 -91 1784 -91 
Q 1150 -91 751 415 
Q 353 922 353 1747 
Q 353 2572 751 3078 
Q 1150 3584 1784 3584 
Q 2172 3584 2448 3432 
Q 2725 3281 2906 2969 
z
M 947 1747 
Q 947 1113 1208 752 
Q 1469 391 1925 391 
Q 2381 391 2643 752 
Q 2906 1113 2906 1747 
Q 2906 2381 2643 2742 
Q 2381 3103 1925 3103 
Q 1469 3103 1208 2742 
Q 947 2381 947 1747 
z
" transform="scale(0.015625)"/>
      <path id="DejaVuSans-6f" d="M 1959 3097 
Q 1497 3097 1228 2736 
Q 959 2375 959 1747 
Q 959 1119 1226 758 
Q 1494 397 1959 397 
Q 2419 397 2687 759 
Q 2956 1122 2956 1747 
Q 2956 2369 2687 2733 
Q 2419 3097 1959 3097 
z
M 1959 3584 
Q 2709 3584 3137 3096 
Q 3566 2609 3566 1747 
Q 3566 888 3137 398 
Q 2709 -91 1959 -91 
Q 1206 -91 779 398 
Q 353 888 353 1747 
Q 353 2609 779 3096 
Q 1206 3584 1959 3584 
z
" transform="scale(0.015625)"/>
      <path id="DejaVuSans-6d" d="M 3328 2828 
Q 3544 3216 3844 3400 
Q 4144 3584 4550 3584 
Q 5097 3584 5394 3201 
Q 5691 2819 5691 2113 
L 5691 0 
L 5113 0 
L 5113 2094 
Q 5113 2597 4934 2840 
Q 4756 3084 4391 3084 
Q 3944 3084 3684 2787 
Q 3425 2491 3425 1978 
L 3425 0 
L 2847 0 
L 2847 2094 
Q 2847 2600 2669 2842 
Q 2491 3084 2119 3084 
Q 1678 3084 1418 2786 
Q 1159 2488 1159 1978 
L 1159 0 
L 581 0 
L 581 3500 
L 1159 3500 
L 1159 2956 
Q 1356 3278 1631 3431 
Q 1906 3584 2284 3584 
Q 2666 3584 2933 3390 
Q 3200 3197 3328 2828 
z
" transform="scale(0.015625)"/>
      <path id="DejaVuSans-70" d="M 1159 525 
L 1159 -1331 
L 581 -1331 
L 581 3500 
L 1159 3500 
L 1159 2969 
Q 1341 3281 1617 3432 
Q 1894 3584 2278 3584 
Q 2916 3584 3314 3078 
Q 3713 2572 3713 1747 
Q 3713 922 3314 415 
Q 2916 -91 2278 -91 
Q 1894 -91 1617 61 
Q 1341 213 1159 525 
z
M 3116 1747 
Q 3116 2381 2855 2742 
Q 2594 3103 2138 3103 
Q 1681 3103 1420 2742 
Q 1159 2381 1159 1747 
Q 1159 1113 1420 752 
Q 1681 391 2138 391 
Q 2594 391 2855 752 
Q 3116 1113 3116 1747 
z
" transform="scale(0.015625)"/>
     </defs>
     <use xlink:href="#DejaVuSans-4f"/>
     <use xlink:href="#DejaVuSans-62" x="78.710938"/>
     <use xlink:href="#DejaVuSans-73" x="142.1875"/>
     <use xlink:href="#DejaVuSans-74" x="194.287109"/>
     <use xlink:href="#DejaVuSans-61" x="233.496094"/>
     <use xlink:href="#DejaVuSans-63" x="294.775391"/>
     <use xlink:href="#DejaVuSans-6c" x="349.755859"/>
     <use xlink:href="#DejaVuSans-65" x="377.539062"/>
     <use xlink:href="#DejaVuSans-20" x="439.0625"/>
     <use xlink:href="#DejaVuSans-72" x="470.849609"/>
     <use xlink:href="#DejaVuSans-65" x="509.712891"/>
     <use xlink:href="#DejaVuSans-6c" x="571.236328"/>
     <use xlink:href="#DejaVuSans-61" x="599.019531"/>
     <use xlink:href="#DejaVuSans-74" x="660.298828"/>
     <use xlink:href="#DejaVuSans-65" x="699.507812"/>
     <use xlink:href="#DejaVuSans-64" x="761.03125"/>
     <use xlink:href="#DejaVuSans-20" x="824.507812"/>
     <use xlink:href="#DejaVuSans-63" x="856.294922"/>
     <use xlink:href="#DejaVuSans-6f" x="911.275391"/>
     <use xlink:href="#DejaVuSans-73" x="972.457031"/>
     <use xlink:href="#DejaVuSans-74" x="1024.556641"/>
     <use xlink:href="#DejaVuSans-20" x="1063.765625"/>
     <use xlink:href="#DejaVuSans-6d" x="1095.552734"/>
     <use xlink:href="#DejaVuSans-61" x="1192.964844"/>
     <use xlink:href="#DejaVuSans-70" x="1254.244141"/>
    </g>
   </g>
  </g>
 </g>
 <defs>
  <clipPath id="pefca328432">
   <rect x="57.6" y="41.472" width="357.12" height="266.112"/>
  </clipPath>
 </defs>
</svg>
