<?xml version="1.0" encoding="utf-8" standalone="no"?>
<!DOCTYPE svg PUBLIC "-//W3C//DTD SVG 1.1//EN"
  "http://www.w3.org/Graphics/SVG/1.1/DTD/svg11.dtd">
<svg xmlns:xlink="http://www.w3.org/1999/xlink" width="720pt" height="707.04pt" viewBox="0 0 720 707.04" xmlns="http://www.w3.org/2000/svg" version="1.1">
 <metadata>
  <rdf:RDF xmlns:dc="http://purl.org/dc/elements/1.1/" xmlns:cc="http://creativecommons.org/ns#" xmlns:rdf="http://www.w3.org/1999/02/22-rdf-syntax-ns#">
   <cc:Work>
    <dc:type rdf:resource="http://purl.org/dc/dcmitype/StillImage"/>
    <dc:date>2024-07-15T14:45:00.848738</dc:date>
    <dc:format>image/svg+xml</dc:format>
    <dc:creator>
     <cc:Agent>
      <dc:title>Matplotlib v3.7.2, https://matplotlib.org/</dc:title>
     </cc:Agent>
    </dc:creator>
   </cc:Work>
  </rdf:RDF>
 </metadata>
 <defs>
  <style type="text/css">*{stroke-linejoin: round; stroke-linecap: butt}</style>
 </defs>
 <g id="figure_1">
  <g id="patch_1">
   <path d="M 0 707.04 
L 720 707.04 
L 720 0 
L 0 0 
z
" style="fill: #ffffff"/>
  </g>
  <g id="axes_1">
   <g id="patch_2">
    <path d="M 46.64 247.970326 
L 355.34 247.970326 
L 355.34 80.253354 
L 46.64 80.253354 
z
" style="fill: #ffffff"/>
   </g>
   <g id="patch_3">
    <path d="M 182.649317 124.468203 
C 184.266758 124.468203 185.81817 123.825587 186.961873 122.681884 
C 188.105576 121.53818 188.748192 119.986768 188.748192 118.369328 
C 188.748192 116.751887 188.105576 115.200475 186.961873 114.056772 
C 185.81817 112.913069 184.266758 112.270453 182.649317 112.270453 
C 181.031877 112.270453 179.480465 112.913069 178.336762 114.056772 
C 177.193058 115.200475 176.550442 116.751887 176.550442 118.369328 
C 176.550442 119.986768 177.193058 121.53818 178.336762 122.681884 
C 179.480465 123.825587 181.031877 124.468203 182.649317 124.468203 
z
" clip-path="url(#pa0c656da72)" style="fill: #bfbf00; stroke: #bfbf00; stroke-width: 2; stroke-linejoin: miter"/>
   </g>
   <g id="PathCollection_1">
    <defs>
     <path id="m5dde32d355" d="M -8.357356 -5.687042 
L -3.774862 -1.465999 
L -3.053846 -2.248756 
L -1.643306 -0.949474 
L -4.66552 2.331551 
L -1.525709 5.223721 
L -2.655191 6.449922 
L -4.562327 4.693198 
L -6.711987 7.026935 
L -2.129492 11.247994 
L 0.020175 8.914249 
L -1.88696 7.157542 
L -0.757478 5.931341 
L 2.382342 8.823503 
L 9.134815 1.492811 
L 5.995003 -1.399359 
L 7.118404 -2.618958 
L 9.02554 -0.86225 
L 11.175608 -3.19643 
L 6.593114 -7.417473 
L 4.443037 -5.083301 
L 6.350181 -3.326586 
L 5.226773 -2.106979 
L 2.086953 -4.999141 
L -0.935269 -1.718124 
L -2.345826 -3.017421 
L -1.624802 -3.80017 
L -6.207304 -8.021221 
L -8.357356 -5.687042 
z
" style="stroke: #0000ff"/>
    </defs>
    <g clip-path="url(#pa0c656da72)">
     <use xlink:href="#m5dde32d355" x="341.308182" y="194.492517" style="fill: #0000ff; stroke: #0000ff"/>
    </g>
   </g>
   <g id="matplotlib.axis_1">
    <g id="xtick_1">
     <g id="line2d_1">
      <defs>
       <path id="mb7dc1ca8e2" d="M 0 0 
L 0 3.5 
" style="stroke: #000000; stroke-width: 0.8"/>
      </defs>
      <g>
       <use xlink:href="#mb7dc1ca8e2" x="60.671818" y="247.970326" style="stroke: #000000; stroke-width: 0.8"/>
      </g>
     </g>
     <g id="text_1">
      <!-- −4 -->
      <g transform="translate(53.300724 262.568763) scale(0.1 -0.1)">
       <defs>
        <path id="DejaVuSans-2212" d="M 678 2272 
L 4684 2272 
L 4684 1741 
L 678 1741 
L 678 2272 
z
" transform="scale(0.015625)"/>
        <path id="DejaVuSans-34" d="M 2419 4116 
L 825 1625 
L 2419 1625 
L 2419 4116 
z
M 2253 4666 
L 3047 4666 
L 3047 1625 
L 3713 1625 
L 3713 1100 
L 3047 1100 
L 3047 0 
L 2419 0 
L 2419 1100 
L 313 1100 
L 313 1709 
L 2253 4666 
z
" transform="scale(0.015625)"/>
       </defs>
       <use xlink:href="#DejaVuSans-2212"/>
       <use xlink:href="#DejaVuSans-34" x="83.789062"/>
      </g>
     </g>
    </g>
    <g id="xtick_2">
     <g id="line2d_2">
      <g>
       <use xlink:href="#mb7dc1ca8e2" x="121.660568" y="247.970326" style="stroke: #000000; stroke-width: 0.8"/>
      </g>
     </g>
     <g id="text_2">
      <!-- −2 -->
      <g transform="translate(114.289474 262.568763) scale(0.1 -0.1)">
       <defs>
        <path id="DejaVuSans-32" d="M 1228 531 
L 3431 531 
L 3431 0 
L 469 0 
L 469 531 
Q 828 903 1448 1529 
Q 2069 2156 2228 2338 
Q 2531 2678 2651 2914 
Q 2772 3150 2772 3378 
Q 2772 3750 2511 3984 
Q 2250 4219 1831 4219 
Q 1534 4219 1204 4116 
Q 875 4013 500 3803 
L 500 4441 
Q 881 4594 1212 4672 
Q 1544 4750 1819 4750 
Q 2544 4750 2975 4387 
Q 3406 4025 3406 3419 
Q 3406 3131 3298 2873 
Q 3191 2616 2906 2266 
Q 2828 2175 2409 1742 
Q 1991 1309 1228 531 
z
" transform="scale(0.015625)"/>
       </defs>
       <use xlink:href="#DejaVuSans-2212"/>
       <use xlink:href="#DejaVuSans-32" x="83.789062"/>
      </g>
     </g>
    </g>
    <g id="xtick_3">
     <g id="line2d_3">
      <g>
       <use xlink:href="#mb7dc1ca8e2" x="182.649317" y="247.970326" style="stroke: #000000; stroke-width: 0.8"/>
      </g>
     </g>
     <g id="text_3">
      <!-- 0 -->
      <g transform="translate(179.468067 262.568763) scale(0.1 -0.1)">
       <defs>
        <path id="DejaVuSans-30" d="M 2034 4250 
Q 1547 4250 1301 3770 
Q 1056 3291 1056 2328 
Q 1056 1369 1301 889 
Q 1547 409 2034 409 
Q 2525 409 2770 889 
Q 3016 1369 3016 2328 
Q 3016 3291 2770 3770 
Q 2525 4250 2034 4250 
z
M 2034 4750 
Q 2819 4750 3233 4129 
Q 3647 3509 3647 2328 
Q 3647 1150 3233 529 
Q 2819 -91 2034 -91 
Q 1250 -91 836 529 
Q 422 1150 422 2328 
Q 422 3509 836 4129 
Q 1250 4750 2034 4750 
z
" transform="scale(0.015625)"/>
       </defs>
       <use xlink:href="#DejaVuSans-30"/>
      </g>
     </g>
    </g>
    <g id="xtick_4">
     <g id="line2d_4">
      <g>
       <use xlink:href="#mb7dc1ca8e2" x="243.638067" y="247.970326" style="stroke: #000000; stroke-width: 0.8"/>
      </g>
     </g>
     <g id="text_4">
      <!-- 2 -->
      <g transform="translate(240.456817 262.568763) scale(0.1 -0.1)">
       <use xlink:href="#DejaVuSans-32"/>
      </g>
     </g>
    </g>
    <g id="xtick_5">
     <g id="line2d_5">
      <g>
       <use xlink:href="#mb7dc1ca8e2" x="304.626817" y="247.970326" style="stroke: #000000; stroke-width: 0.8"/>
      </g>
     </g>
     <g id="text_5">
      <!-- 4 -->
      <g transform="translate(301.445567 262.568763) scale(0.1 -0.1)">
       <use xlink:href="#DejaVuSans-34"/>
      </g>
     </g>
    </g>
    <g id="text_6">
     <!-- x [m] -->
     <g transform="translate(187.669688 276.246888) scale(0.1 -0.1)">
      <defs>
       <path id="DejaVuSans-78" d="M 3513 3500 
L 2247 1797 
L 3578 0 
L 2900 0 
L 1881 1375 
L 863 0 
L 184 0 
L 1544 1831 
L 300 3500 
L 978 3500 
L 1906 2253 
L 2834 3500 
L 3513 3500 
z
" transform="scale(0.015625)"/>
       <path id="DejaVuSans-20" transform="scale(0.015625)"/>
       <path id="DejaVuSans-5b" d="M 550 4863 
L 1875 4863 
L 1875 4416 
L 1125 4416 
L 1125 -397 
L 1875 -397 
L 1875 -844 
L 550 -844 
L 550 4863 
z
" transform="scale(0.015625)"/>
       <path id="DejaVuSans-6d" d="M 3328 2828 
Q 3544 3216 3844 3400 
Q 4144 3584 4550 3584 
Q 5097 3584 5394 3201 
Q 5691 2819 5691 2113 
L 5691 0 
L 5113 0 
L 5113 2094 
Q 5113 2597 4934 2840 
Q 4756 3084 4391 3084 
Q 3944 3084 3684 2787 
Q 3425 2491 3425 1978 
L 3425 0 
L 2847 0 
L 2847 2094 
Q 2847 2600 2669 2842 
Q 2491 3084 2119 3084 
Q 1678 3084 1418 2786 
Q 1159 2488 1159 1978 
L 1159 0 
L 581 0 
L 581 3500 
L 1159 3500 
L 1159 2956 
Q 1356 3278 1631 3431 
Q 1906 3584 2284 3584 
Q 2666 3584 2933 3390 
Q 3200 3197 3328 2828 
z
" transform="scale(0.015625)"/>
       <path id="DejaVuSans-5d" d="M 1947 4863 
L 1947 -844 
L 622 -844 
L 622 -397 
L 1369 -397 
L 1369 4416 
L 622 4416 
L 622 4863 
L 1947 4863 
z
" transform="scale(0.015625)"/>
      </defs>
      <use xlink:href="#DejaVuSans-78"/>
      <use xlink:href="#DejaVuSans-20" x="59.179688"/>
      <use xlink:href="#DejaVuSans-5b" x="90.966797"/>
      <use xlink:href="#DejaVuSans-6d" x="129.980469"/>
      <use xlink:href="#DejaVuSans-5d" x="227.392578"/>
     </g>
    </g>
   </g>
   <g id="matplotlib.axis_2">
    <g id="ytick_1">
     <g id="line2d_6">
      <defs>
       <path id="m738314b1da" d="M 0 0 
L -3.5 0 
" style="stroke: #000000; stroke-width: 0.8"/>
      </defs>
      <g>
       <use xlink:href="#m738314b1da" x="46.64" y="240.346827" style="stroke: #000000; stroke-width: 0.8"/>
      </g>
     </g>
     <g id="text_7">
      <!-- −4 -->
      <g transform="translate(24.897813 244.146046) scale(0.1 -0.1)">
       <use xlink:href="#DejaVuSans-2212"/>
       <use xlink:href="#DejaVuSans-34" x="83.789062"/>
      </g>
     </g>
    </g>
    <g id="ytick_2">
     <g id="line2d_7">
      <g>
       <use xlink:href="#m738314b1da" x="46.64" y="209.852452" style="stroke: #000000; stroke-width: 0.8"/>
      </g>
     </g>
     <g id="text_8">
      <!-- −3 -->
      <g transform="translate(24.897813 213.651671) scale(0.1 -0.1)">
       <defs>
        <path id="DejaVuSans-33" d="M 2597 2516 
Q 3050 2419 3304 2112 
Q 3559 1806 3559 1356 
Q 3559 666 3084 287 
Q 2609 -91 1734 -91 
Q 1441 -91 1130 -33 
Q 819 25 488 141 
L 488 750 
Q 750 597 1062 519 
Q 1375 441 1716 441 
Q 2309 441 2620 675 
Q 2931 909 2931 1356 
Q 2931 1769 2642 2001 
Q 2353 2234 1838 2234 
L 1294 2234 
L 1294 2753 
L 1863 2753 
Q 2328 2753 2575 2939 
Q 2822 3125 2822 3475 
Q 2822 3834 2567 4026 
Q 2313 4219 1838 4219 
Q 1578 4219 1281 4162 
Q 984 4106 628 3988 
L 628 4550 
Q 988 4650 1302 4700 
Q 1616 4750 1894 4750 
Q 2613 4750 3031 4423 
Q 3450 4097 3450 3541 
Q 3450 3153 3228 2886 
Q 3006 2619 2597 2516 
z
" transform="scale(0.015625)"/>
       </defs>
       <use xlink:href="#DejaVuSans-2212"/>
       <use xlink:href="#DejaVuSans-33" x="83.789062"/>
      </g>
     </g>
    </g>
    <g id="ytick_3">
     <g id="line2d_8">
      <g>
       <use xlink:href="#m738314b1da" x="46.64" y="179.358077" style="stroke: #000000; stroke-width: 0.8"/>
      </g>
     </g>
     <g id="text_9">
      <!-- −2 -->
      <g transform="translate(24.897813 183.157296) scale(0.1 -0.1)">
       <use xlink:href="#DejaVuSans-2212"/>
       <use xlink:href="#DejaVuSans-32" x="83.789062"/>
      </g>
     </g>
    </g>
    <g id="ytick_4">
     <g id="line2d_9">
      <g>
       <use xlink:href="#m738314b1da" x="46.64" y="148.863703" style="stroke: #000000; stroke-width: 0.8"/>
      </g>
     </g>
     <g id="text_10">
      <!-- −1 -->
      <g transform="translate(24.897813 152.662921) scale(0.1 -0.1)">
       <defs>
        <path id="DejaVuSans-31" d="M 794 531 
L 1825 531 
L 1825 4091 
L 703 3866 
L 703 4441 
L 1819 4666 
L 2450 4666 
L 2450 531 
L 3481 531 
L 3481 0 
L 794 0 
L 794 531 
z
" transform="scale(0.015625)"/>
       </defs>
       <use xlink:href="#DejaVuSans-2212"/>
       <use xlink:href="#DejaVuSans-31" x="83.789062"/>
      </g>
     </g>
    </g>
    <g id="ytick_5">
     <g id="line2d_10">
      <g>
       <use xlink:href="#m738314b1da" x="46.64" y="118.369328" style="stroke: #000000; stroke-width: 0.8"/>
      </g>
     </g>
     <g id="text_11">
      <!-- 0 -->
      <g transform="translate(33.2775 122.168547) scale(0.1 -0.1)">
       <use xlink:href="#DejaVuSans-30"/>
      </g>
     </g>
    </g>
    <g id="ytick_6">
     <g id="line2d_11">
      <g>
       <use xlink:href="#m738314b1da" x="46.64" y="87.874953" style="stroke: #000000; stroke-width: 0.8"/>
      </g>
     </g>
     <g id="text_12">
      <!-- 1 -->
      <g transform="translate(33.2775 91.674172) scale(0.1 -0.1)">
       <use xlink:href="#DejaVuSans-31"/>
      </g>
     </g>
    </g>
    <g id="text_13">
     <!-- y [m] -->
     <g transform="translate(18.818125 177.432152) rotate(-90) scale(0.1 -0.1)">
      <defs>
       <path id="DejaVuSans-79" d="M 2059 -325 
Q 1816 -950 1584 -1140 
Q 1353 -1331 966 -1331 
L 506 -1331 
L 506 -850 
L 844 -850 
Q 1081 -850 1212 -737 
Q 1344 -625 1503 -206 
L 1606 56 
L 191 3500 
L 800 3500 
L 1894 763 
L 2988 3500 
L 3597 3500 
L 2059 -325 
z
" transform="scale(0.015625)"/>
      </defs>
      <use xlink:href="#DejaVuSans-79"/>
      <use xlink:href="#DejaVuSans-20" x="59.179688"/>
      <use xlink:href="#DejaVuSans-5b" x="90.966797"/>
      <use xlink:href="#DejaVuSans-6d" x="129.980469"/>
      <use xlink:href="#DejaVuSans-5d" x="227.392578"/>
     </g>
    </g>
   </g>
   <g id="line2d_12">
    <path d="M 60.671818 118.369328 
L 188.748192 118.369328 
" clip-path="url(#pa0c656da72)" style="fill: none; stroke-dasharray: 2.775,1.2; stroke-dashoffset: 0; stroke: #000000; stroke-width: 0.75"/>
   </g>
   <g id="line2d_13">
    <path d="M 182.649317 240.346827 
L 182.649317 112.270453 
" clip-path="url(#pa0c656da72)" style="fill: none; stroke-dasharray: 2.775,1.2; stroke-dashoffset: 0; stroke: #000000; stroke-width: 0.75"/>
   </g>
   <g id="line2d_14">
    <path d="M 152.154943 148.863703 
L 152.167101 149.593238 
L 152.259358 146.64633 
L 152.580115 144.382475 
L 153.362062 140.6521 
L 154.891154 134.748405 
L 157.89574 124.507036 
L 159.980955 117.970754 
L 162.775797 110.06454 
L 165.015638 104.392405 
L 167.218597 99.532481 
L 168.636015 96.832943 
L 170.251434 94.247892 
L 171.666489 92.452905 
L 172.752658 91.382956 
L 174.015107 90.53255 
L 174.712467 90.22278 
L 175.448742 90.028205 
L 176.206582 89.953127 
L 176.967073 89.996121 
L 177.712731 90.151408 
L 179.10607 90.765877 
L 180.362685 91.626322 
L 181.488622 92.653894 
L 182.978162 94.387958 
L 184.712368 96.89505 
L 186.217919 99.545775 
L 187.843307 102.992942 
L 189.56789 107.229105 
L 191.367556 112.252613 
L 194.149971 120.967363 
L 196.162901 127.526265 
L 209.835609 175.94742 
L 212.657385 184.649157 
L 214.745222 190.379208 
L 216.454526 194.621603 
L 218.37261 198.773425 
L 219.828527 201.452193 
L 221.063723 203.376402 
L 222.491787 205.160756 
L 223.591552 206.215893 
L 224.86263 207.05656 
L 225.577691 207.318164 
L 226.326364 207.458718 
L 227.087593 207.48267 
L 228.580999 207.200444 
L 229.965762 206.566545 
L 231.224091 205.706905 
L 232.369098 204.700909 
L 233.9049 203.007909 
L 235.257561 201.164684 
L 236.454906 199.216675 
L 238.199117 195.828063 
L 240.03605 191.639406 
L 241.945305 186.656462 
L 244.130917 180.152783 
L 246.61352 172.143216 
L 248.650306 164.797007 
L 255.344736 139.756149 
L 260.205835 122.909249 
L 262.521214 115.645952 
L 265.018435 108.443292 
L 266.974043 103.47843 
L 268.53512 100.00144 
L 270.305548 96.626682 
L 271.945089 94.057056 
L 273.3942 92.289472 
L 274.52602 91.269432 
L 275.837245 90.497183 
L 276.556992 90.247766 
L 277.307045 90.113246 
L 278.068378 90.114901 
L 279.554481 90.445459 
L 280.935157 91.088074 
L 282.196076 91.943922 
L 283.348577 92.941361 
L 284.902279 94.618027 
L 286.278615 96.443681 
L 287.882196 99.036116 
L 289.267026 101.752463 
L 290.810909 105.237057 
L 292.474699 109.497451 
L 294.737216 115.974664 
L 297.690672 125.434965 
L 299.929675 133.516385 
L 304.163073 148.954414 
L 305.21699 151.815373 
L 306.459532 154.59955 
L 307.880659 157.297046 
L 309.869725 160.547932 
L 312.044428 163.677996 
L 314.834906 167.301857 
L 318.26951 171.385746 
L 322.361583 175.907673 
L 327.652307 181.396124 
L 333.63107 187.276201 
L 341.308182 194.492517 
L 341.308182 194.492517 
" clip-path="url(#pa0c656da72)" style="fill: none; stroke-dasharray: 1.85,0.8; stroke-dashoffset: 0; stroke: #0000ff; stroke-width: 0.5"/>
   </g>
   <g id="line2d_15">
    <path d="M 152.154943 148.863703 
L 157.518275 129.012766 
L 160.583036 118.508405 
L 162.881607 111.32371 
L 165.180178 104.895573 
L 166.712559 101.095141 
L 168.244939 97.722975 
L 169.77732 94.809308 
L 171.309701 92.380262 
L 172.842081 90.457615 
L 174.374462 89.058604 
L 175.140652 88.559568 
L 175.906843 88.195771 
L 176.673033 87.968029 
L 177.439223 87.876853 
L 178.205414 87.922447 
L 178.971604 88.104708 
L 179.737794 88.423229 
L 180.503984 88.877295 
L 182.036365 90.187685 
L 183.568746 92.024132 
L 185.101126 94.37017 
L 186.633507 97.204766 
L 188.165888 100.502507 
L 189.698268 104.233827 
L 191.996839 110.5696 
L 194.29541 117.677129 
L 197.360172 128.104882 
L 201.191123 142.13765 
L 208.853026 170.525232 
L 211.917788 180.87378 
L 214.216359 187.902371 
L 216.51493 194.144201 
L 218.04731 197.80548 
L 219.579691 201.027974 
L 221.112072 203.782793 
L 222.644452 206.045238 
L 224.176833 207.795026 
L 225.709213 209.01647 
L 226.475404 209.425452 
L 227.241594 209.698617 
L 228.007784 209.835353 
L 228.773975 209.835353 
L 229.540165 209.698617 
L 230.306355 209.425452 
L 231.072546 209.01647 
L 232.604926 207.795026 
L 234.137307 206.045238 
L 235.669688 203.782793 
L 237.202068 201.027974 
L 238.734449 197.80548 
L 240.26683 194.144201 
L 242.565401 187.902371 
L 244.863972 180.87378 
L 247.928733 170.525232 
L 251.759684 156.545828 
L 259.421588 128.104882 
L 262.486349 117.677129 
L 264.78492 110.5696 
L 267.083491 104.233827 
L 268.615871 100.502507 
L 270.148252 97.204766 
L 271.680633 94.37017 
L 273.213013 92.024132 
L 274.745394 90.187685 
L 276.277775 88.877295 
L 277.043965 88.423229 
L 277.810155 88.104708 
L 278.576346 87.922447 
L 279.342536 87.876853 
L 280.108726 87.968029 
L 280.874917 88.195771 
L 281.641107 88.559568 
L 282.407297 89.058604 
L 283.939678 90.457615 
L 285.472059 92.380262 
L 287.004439 94.809308 
L 288.53682 97.722975 
L 290.0692 101.095141 
L 291.601581 104.895573 
L 293.900152 111.32371 
L 296.198723 118.508405 
L 299.263484 129.012766 
L 303.094436 143.095398 
L 304.626817 148.863703 
L 304.626817 148.863703 
" clip-path="url(#pa0c656da72)" style="fill: none; stroke: #ff0000; stroke-width: 0.75; stroke-linecap: square"/>
   </g>
   <g id="patch_4">
    <path d="M 46.64 247.970326 
L 46.64 80.253354 
" style="fill: none; stroke: #000000; stroke-width: 0.8; stroke-linejoin: miter; stroke-linecap: square"/>
   </g>
   <g id="patch_5">
    <path d="M 355.34 247.970326 
L 355.34 80.253354 
" style="fill: none; stroke: #000000; stroke-width: 0.8; stroke-linejoin: miter; stroke-linecap: square"/>
   </g>
   <g id="patch_6">
    <path d="M 46.64 247.970326 
L 355.34 247.970326 
" style="fill: none; stroke: #000000; stroke-width: 0.8; stroke-linejoin: miter; stroke-linecap: square"/>
   </g>
   <g id="patch_7">
    <path d="M 46.64 80.253354 
L 355.34 80.253354 
" style="fill: none; stroke: #000000; stroke-width: 0.8; stroke-linejoin: miter; stroke-linecap: square"/>
   </g>
   <g id="text_14">
    <!-- Target -->
    <g transform="translate(318.296 99.784426) scale(0.1 -0.1)">
     <defs>
      <path id="DejaVuSans-54" d="M -19 4666 
L 3928 4666 
L 3928 4134 
L 2272 4134 
L 2272 0 
L 1638 0 
L 1638 4134 
L -19 4134 
L -19 4666 
z
" transform="scale(0.015625)"/>
      <path id="DejaVuSans-61" d="M 2194 1759 
Q 1497 1759 1228 1600 
Q 959 1441 959 1056 
Q 959 750 1161 570 
Q 1363 391 1709 391 
Q 2188 391 2477 730 
Q 2766 1069 2766 1631 
L 2766 1759 
L 2194 1759 
z
M 3341 1997 
L 3341 0 
L 2766 0 
L 2766 531 
Q 2569 213 2275 61 
Q 1981 -91 1556 -91 
Q 1019 -91 701 211 
Q 384 513 384 1019 
Q 384 1609 779 1909 
Q 1175 2209 1959 2209 
L 2766 2209 
L 2766 2266 
Q 2766 2663 2505 2880 
Q 2244 3097 1772 3097 
Q 1472 3097 1187 3025 
Q 903 2953 641 2809 
L 641 3341 
Q 956 3463 1253 3523 
Q 1550 3584 1831 3584 
Q 2591 3584 2966 3190 
Q 3341 2797 3341 1997 
z
" transform="scale(0.015625)"/>
      <path id="DejaVuSans-72" d="M 2631 2963 
Q 2534 3019 2420 3045 
Q 2306 3072 2169 3072 
Q 1681 3072 1420 2755 
Q 1159 2438 1159 1844 
L 1159 0 
L 581 0 
L 581 3500 
L 1159 3500 
L 1159 2956 
Q 1341 3275 1631 3429 
Q 1922 3584 2338 3584 
Q 2397 3584 2469 3576 
Q 2541 3569 2628 3553 
L 2631 2963 
z
" transform="scale(0.015625)"/>
      <path id="DejaVuSans-67" d="M 2906 1791 
Q 2906 2416 2648 2759 
Q 2391 3103 1925 3103 
Q 1463 3103 1205 2759 
Q 947 2416 947 1791 
Q 947 1169 1205 825 
Q 1463 481 1925 481 
Q 2391 481 2648 825 
Q 2906 1169 2906 1791 
z
M 3481 434 
Q 3481 -459 3084 -895 
Q 2688 -1331 1869 -1331 
Q 1566 -1331 1297 -1286 
Q 1028 -1241 775 -1147 
L 775 -588 
Q 1028 -725 1275 -790 
Q 1522 -856 1778 -856 
Q 2344 -856 2625 -561 
Q 2906 -266 2906 331 
L 2906 616 
Q 2728 306 2450 153 
Q 2172 0 1784 0 
Q 1141 0 747 490 
Q 353 981 353 1791 
Q 353 2603 747 3093 
Q 1141 3584 1784 3584 
Q 2172 3584 2450 3431 
Q 2728 3278 2906 2969 
L 2906 3500 
L 3481 3500 
L 3481 434 
z
" transform="scale(0.015625)"/>
      <path id="DejaVuSans-65" d="M 3597 1894 
L 3597 1613 
L 953 1613 
Q 991 1019 1311 708 
Q 1631 397 2203 397 
Q 2534 397 2845 478 
Q 3156 559 3463 722 
L 3463 178 
Q 3153 47 2828 -22 
Q 2503 -91 2169 -91 
Q 1331 -91 842 396 
Q 353 884 353 1716 
Q 353 2575 817 3079 
Q 1281 3584 2069 3584 
Q 2775 3584 3186 3129 
Q 3597 2675 3597 1894 
z
M 3022 2063 
Q 3016 2534 2758 2815 
Q 2500 3097 2075 3097 
Q 1594 3097 1305 2825 
Q 1016 2553 972 2059 
L 3022 2063 
z
" transform="scale(0.015625)"/>
      <path id="DejaVuSans-74" d="M 1172 4494 
L 1172 3500 
L 2356 3500 
L 2356 3053 
L 1172 3053 
L 1172 1153 
Q 1172 725 1289 603 
Q 1406 481 1766 481 
L 2356 481 
L 2356 0 
L 1766 0 
Q 1100 0 847 248 
Q 594 497 594 1153 
L 594 3053 
L 172 3053 
L 172 3500 
L 594 3500 
L 594 4494 
L 1172 4494 
z
" transform="scale(0.015625)"/>
     </defs>
     <use xlink:href="#DejaVuSans-54"/>
     <use xlink:href="#DejaVuSans-61" x="44.583984"/>
     <use xlink:href="#DejaVuSans-72" x="105.863281"/>
     <use xlink:href="#DejaVuSans-67" x="145.226562"/>
     <use xlink:href="#DejaVuSans-65" x="208.703125"/>
     <use xlink:href="#DejaVuSans-74" x="270.226562"/>
    </g>
   </g>
   <g id="text_15">
    <!-- t = 30.000 -->
    <g transform="translate(62.075 91.398578) scale(0.1 -0.1)">
     <defs>
      <path id="DejaVuSans-3d" d="M 678 2906 
L 4684 2906 
L 4684 2381 
L 678 2381 
L 678 2906 
z
M 678 1631 
L 4684 1631 
L 4684 1100 
L 678 1100 
L 678 1631 
z
" transform="scale(0.015625)"/>
      <path id="DejaVuSans-2e" d="M 684 794 
L 1344 794 
L 1344 0 
L 684 0 
L 684 794 
z
" transform="scale(0.015625)"/>
     </defs>
     <use xlink:href="#DejaVuSans-74"/>
     <use xlink:href="#DejaVuSans-20" x="39.208984"/>
     <use xlink:href="#DejaVuSans-3d" x="70.996094"/>
     <use xlink:href="#DejaVuSans-20" x="154.785156"/>
     <use xlink:href="#DejaVuSans-33" x="186.572266"/>
     <use xlink:href="#DejaVuSans-30" x="250.195312"/>
     <use xlink:href="#DejaVuSans-2e" x="313.818359"/>
     <use xlink:href="#DejaVuSans-30" x="345.605469"/>
     <use xlink:href="#DejaVuSans-30" x="409.228516"/>
     <use xlink:href="#DejaVuSans-30" x="472.851562"/>
    </g>
   </g>
   <g id="text_16">
    <!-- Pause - space, q - quit, click - data cursor -->
    <g transform="translate(77.080625 74.253354) scale(0.12 -0.12)">
     <defs>
      <path id="DejaVuSans-50" d="M 1259 4147 
L 1259 2394 
L 2053 2394 
Q 2494 2394 2734 2622 
Q 2975 2850 2975 3272 
Q 2975 3691 2734 3919 
Q 2494 4147 2053 4147 
L 1259 4147 
z
M 628 4666 
L 2053 4666 
Q 2838 4666 3239 4311 
Q 3641 3956 3641 3272 
Q 3641 2581 3239 2228 
Q 2838 1875 2053 1875 
L 1259 1875 
L 1259 0 
L 628 0 
L 628 4666 
z
" transform="scale(0.015625)"/>
      <path id="DejaVuSans-75" d="M 544 1381 
L 544 3500 
L 1119 3500 
L 1119 1403 
Q 1119 906 1312 657 
Q 1506 409 1894 409 
Q 2359 409 2629 706 
Q 2900 1003 2900 1516 
L 2900 3500 
L 3475 3500 
L 3475 0 
L 2900 0 
L 2900 538 
Q 2691 219 2414 64 
Q 2138 -91 1772 -91 
Q 1169 -91 856 284 
Q 544 659 544 1381 
z
M 1991 3584 
L 1991 3584 
z
" transform="scale(0.015625)"/>
      <path id="DejaVuSans-73" d="M 2834 3397 
L 2834 2853 
Q 2591 2978 2328 3040 
Q 2066 3103 1784 3103 
Q 1356 3103 1142 2972 
Q 928 2841 928 2578 
Q 928 2378 1081 2264 
Q 1234 2150 1697 2047 
L 1894 2003 
Q 2506 1872 2764 1633 
Q 3022 1394 3022 966 
Q 3022 478 2636 193 
Q 2250 -91 1575 -91 
Q 1294 -91 989 -36 
Q 684 19 347 128 
L 347 722 
Q 666 556 975 473 
Q 1284 391 1588 391 
Q 1994 391 2212 530 
Q 2431 669 2431 922 
Q 2431 1156 2273 1281 
Q 2116 1406 1581 1522 
L 1381 1569 
Q 847 1681 609 1914 
Q 372 2147 372 2553 
Q 372 3047 722 3315 
Q 1072 3584 1716 3584 
Q 2034 3584 2315 3537 
Q 2597 3491 2834 3397 
z
" transform="scale(0.015625)"/>
      <path id="DejaVuSans-2d" d="M 313 2009 
L 1997 2009 
L 1997 1497 
L 313 1497 
L 313 2009 
z
" transform="scale(0.015625)"/>
      <path id="DejaVuSans-70" d="M 1159 525 
L 1159 -1331 
L 581 -1331 
L 581 3500 
L 1159 3500 
L 1159 2969 
Q 1341 3281 1617 3432 
Q 1894 3584 2278 3584 
Q 2916 3584 3314 3078 
Q 3713 2572 3713 1747 
Q 3713 922 3314 415 
Q 2916 -91 2278 -91 
Q 1894 -91 1617 61 
Q 1341 213 1159 525 
z
M 3116 1747 
Q 3116 2381 2855 2742 
Q 2594 3103 2138 3103 
Q 1681 3103 1420 2742 
Q 1159 2381 1159 1747 
Q 1159 1113 1420 752 
Q 1681 391 2138 391 
Q 2594 391 2855 752 
Q 3116 1113 3116 1747 
z
" transform="scale(0.015625)"/>
      <path id="DejaVuSans-63" d="M 3122 3366 
L 3122 2828 
Q 2878 2963 2633 3030 
Q 2388 3097 2138 3097 
Q 1578 3097 1268 2742 
Q 959 2388 959 1747 
Q 959 1106 1268 751 
Q 1578 397 2138 397 
Q 2388 397 2633 464 
Q 2878 531 3122 666 
L 3122 134 
Q 2881 22 2623 -34 
Q 2366 -91 2075 -91 
Q 1284 -91 818 406 
Q 353 903 353 1747 
Q 353 2603 823 3093 
Q 1294 3584 2113 3584 
Q 2378 3584 2631 3529 
Q 2884 3475 3122 3366 
z
" transform="scale(0.015625)"/>
      <path id="DejaVuSans-2c" d="M 750 794 
L 1409 794 
L 1409 256 
L 897 -744 
L 494 -744 
L 750 256 
L 750 794 
z
" transform="scale(0.015625)"/>
      <path id="DejaVuSans-71" d="M 947 1747 
Q 947 1113 1208 752 
Q 1469 391 1925 391 
Q 2381 391 2643 752 
Q 2906 1113 2906 1747 
Q 2906 2381 2643 2742 
Q 2381 3103 1925 3103 
Q 1469 3103 1208 2742 
Q 947 2381 947 1747 
z
M 2906 525 
Q 2725 213 2448 61 
Q 2172 -91 1784 -91 
Q 1150 -91 751 415 
Q 353 922 353 1747 
Q 353 2572 751 3078 
Q 1150 3584 1784 3584 
Q 2172 3584 2448 3432 
Q 2725 3281 2906 2969 
L 2906 3500 
L 3481 3500 
L 3481 -1331 
L 2906 -1331 
L 2906 525 
z
" transform="scale(0.015625)"/>
      <path id="DejaVuSans-69" d="M 603 3500 
L 1178 3500 
L 1178 0 
L 603 0 
L 603 3500 
z
M 603 4863 
L 1178 4863 
L 1178 4134 
L 603 4134 
L 603 4863 
z
" transform="scale(0.015625)"/>
      <path id="DejaVuSans-6c" d="M 603 4863 
L 1178 4863 
L 1178 0 
L 603 0 
L 603 4863 
z
" transform="scale(0.015625)"/>
      <path id="DejaVuSans-6b" d="M 581 4863 
L 1159 4863 
L 1159 1991 
L 2875 3500 
L 3609 3500 
L 1753 1863 
L 3688 0 
L 2938 0 
L 1159 1709 
L 1159 0 
L 581 0 
L 581 4863 
z
" transform="scale(0.015625)"/>
      <path id="DejaVuSans-64" d="M 2906 2969 
L 2906 4863 
L 3481 4863 
L 3481 0 
L 2906 0 
L 2906 525 
Q 2725 213 2448 61 
Q 2172 -91 1784 -91 
Q 1150 -91 751 415 
Q 353 922 353 1747 
Q 353 2572 751 3078 
Q 1150 3584 1784 3584 
Q 2172 3584 2448 3432 
Q 2725 3281 2906 2969 
z
M 947 1747 
Q 947 1113 1208 752 
Q 1469 391 1925 391 
Q 2381 391 2643 752 
Q 2906 1113 2906 1747 
Q 2906 2381 2643 2742 
Q 2381 3103 1925 3103 
Q 1469 3103 1208 2742 
Q 947 2381 947 1747 
z
" transform="scale(0.015625)"/>
      <path id="DejaVuSans-6f" d="M 1959 3097 
Q 1497 3097 1228 2736 
Q 959 2375 959 1747 
Q 959 1119 1226 758 
Q 1494 397 1959 397 
Q 2419 397 2687 759 
Q 2956 1122 2956 1747 
Q 2956 2369 2687 2733 
Q 2419 3097 1959 3097 
z
M 1959 3584 
Q 2709 3584 3137 3096 
Q 3566 2609 3566 1747 
Q 3566 888 3137 398 
Q 2709 -91 1959 -91 
Q 1206 -91 779 398 
Q 353 888 353 1747 
Q 353 2609 779 3096 
Q 1206 3584 1959 3584 
z
" transform="scale(0.015625)"/>
     </defs>
     <use xlink:href="#DejaVuSans-50"/>
     <use xlink:href="#DejaVuSans-61" x="55.802734"/>
     <use xlink:href="#DejaVuSans-75" x="117.082031"/>
     <use xlink:href="#DejaVuSans-73" x="180.460938"/>
     <use xlink:href="#DejaVuSans-65" x="232.560547"/>
     <use xlink:href="#DejaVuSans-20" x="294.083984"/>
     <use xlink:href="#DejaVuSans-2d" x="325.871094"/>
     <use xlink:href="#DejaVuSans-20" x="361.955078"/>
     <use xlink:href="#DejaVuSans-73" x="393.742188"/>
     <use xlink:href="#DejaVuSans-70" x="445.841797"/>
     <use xlink:href="#DejaVuSans-61" x="509.318359"/>
     <use xlink:href="#DejaVuSans-63" x="570.597656"/>
     <use xlink:href="#DejaVuSans-65" x="625.578125"/>
     <use xlink:href="#DejaVuSans-2c" x="687.101562"/>
     <use xlink:href="#DejaVuSans-20" x="718.888672"/>
     <use xlink:href="#DejaVuSans-71" x="750.675781"/>
     <use xlink:href="#DejaVuSans-20" x="814.152344"/>
     <use xlink:href="#DejaVuSans-2d" x="845.939453"/>
     <use xlink:href="#DejaVuSans-20" x="882.023438"/>
     <use xlink:href="#DejaVuSans-71" x="913.810547"/>
     <use xlink:href="#DejaVuSans-75" x="977.287109"/>
     <use xlink:href="#DejaVuSans-69" x="1040.666016"/>
     <use xlink:href="#DejaVuSans-74" x="1068.449219"/>
     <use xlink:href="#DejaVuSans-2c" x="1107.658203"/>
     <use xlink:href="#DejaVuSans-20" x="1139.445312"/>
     <use xlink:href="#DejaVuSans-63" x="1171.232422"/>
     <use xlink:href="#DejaVuSans-6c" x="1226.212891"/>
     <use xlink:href="#DejaVuSans-69" x="1253.996094"/>
     <use xlink:href="#DejaVuSans-63" x="1281.779297"/>
     <use xlink:href="#DejaVuSans-6b" x="1336.759766"/>
     <use xlink:href="#DejaVuSans-20" x="1394.669922"/>
     <use xlink:href="#DejaVuSans-2d" x="1426.457031"/>
     <use xlink:href="#DejaVuSans-20" x="1462.541016"/>
     <use xlink:href="#DejaVuSans-64" x="1494.328125"/>
     <use xlink:href="#DejaVuSans-61" x="1557.804688"/>
     <use xlink:href="#DejaVuSans-74" x="1619.083984"/>
     <use xlink:href="#DejaVuSans-61" x="1658.292969"/>
     <use xlink:href="#DejaVuSans-20" x="1719.572266"/>
     <use xlink:href="#DejaVuSans-63" x="1751.359375"/>
     <use xlink:href="#DejaVuSans-75" x="1806.339844"/>
     <use xlink:href="#DejaVuSans-72" x="1869.71875"/>
     <use xlink:href="#DejaVuSans-73" x="1910.832031"/>
     <use xlink:href="#DejaVuSans-6f" x="1962.931641"/>
     <use xlink:href="#DejaVuSans-72" x="2024.113281"/>
    </g>
   </g>
  </g>
  <g id="axes_2">
   <g id="patch_8">
    <path d="M 394.2 317.61808 
L 702.9 317.61808 
L 702.9 10.6056 
L 394.2 10.6056 
z
" style="fill: #ffffff"/>
   </g>
   <g id="matplotlib.axis_3">
    <g id="xtick_6">
     <g id="line2d_16">
      <g>
       <use xlink:href="#mb7dc1ca8e2" x="394.2" y="317.61808" style="stroke: #000000; stroke-width: 0.8"/>
      </g>
     </g>
     <g id="text_17">
      <!-- 0 -->
      <g transform="translate(391.01875 332.216517) scale(0.1 -0.1)">
       <use xlink:href="#DejaVuSans-30"/>
      </g>
     </g>
    </g>
    <g id="xtick_7">
     <g id="line2d_17">
      <g>
       <use xlink:href="#mb7dc1ca8e2" x="445.65" y="317.61808" style="stroke: #000000; stroke-width: 0.8"/>
      </g>
     </g>
     <g id="text_18">
      <!-- 5 -->
      <g transform="translate(442.46875 332.216517) scale(0.1 -0.1)">
       <defs>
        <path id="DejaVuSans-35" d="M 691 4666 
L 3169 4666 
L 3169 4134 
L 1269 4134 
L 1269 2991 
Q 1406 3038 1543 3061 
Q 1681 3084 1819 3084 
Q 2600 3084 3056 2656 
Q 3513 2228 3513 1497 
Q 3513 744 3044 326 
Q 2575 -91 1722 -91 
Q 1428 -91 1123 -41 
Q 819 9 494 109 
L 494 744 
Q 775 591 1075 516 
Q 1375 441 1709 441 
Q 2250 441 2565 725 
Q 2881 1009 2881 1497 
Q 2881 1984 2565 2268 
Q 2250 2553 1709 2553 
Q 1456 2553 1204 2497 
Q 953 2441 691 2322 
L 691 4666 
z
" transform="scale(0.015625)"/>
       </defs>
       <use xlink:href="#DejaVuSans-35"/>
      </g>
     </g>
    </g>
    <g id="xtick_8">
     <g id="line2d_18">
      <g>
       <use xlink:href="#mb7dc1ca8e2" x="497.1" y="317.61808" style="stroke: #000000; stroke-width: 0.8"/>
      </g>
     </g>
     <g id="text_19">
      <!-- 10 -->
      <g transform="translate(490.7375 332.216517) scale(0.1 -0.1)">
       <use xlink:href="#DejaVuSans-31"/>
       <use xlink:href="#DejaVuSans-30" x="63.623047"/>
      </g>
     </g>
    </g>
    <g id="xtick_9">
     <g id="line2d_19">
      <g>
       <use xlink:href="#mb7dc1ca8e2" x="548.55" y="317.61808" style="stroke: #000000; stroke-width: 0.8"/>
      </g>
     </g>
     <g id="text_20">
      <!-- 15 -->
      <g transform="translate(542.1875 332.216517) scale(0.1 -0.1)">
       <use xlink:href="#DejaVuSans-31"/>
       <use xlink:href="#DejaVuSans-35" x="63.623047"/>
      </g>
     </g>
    </g>
    <g id="xtick_10">
     <g id="line2d_20">
      <g>
       <use xlink:href="#mb7dc1ca8e2" x="600" y="317.61808" style="stroke: #000000; stroke-width: 0.8"/>
      </g>
     </g>
     <g id="text_21">
      <!-- 20 -->
      <g transform="translate(593.6375 332.216517) scale(0.1 -0.1)">
       <use xlink:href="#DejaVuSans-32"/>
       <use xlink:href="#DejaVuSans-30" x="63.623047"/>
      </g>
     </g>
    </g>
    <g id="xtick_11">
     <g id="line2d_21">
      <g>
       <use xlink:href="#mb7dc1ca8e2" x="651.45" y="317.61808" style="stroke: #000000; stroke-width: 0.8"/>
      </g>
     </g>
     <g id="text_22">
      <!-- 25 -->
      <g transform="translate(645.0875 332.216517) scale(0.1 -0.1)">
       <use xlink:href="#DejaVuSans-32"/>
       <use xlink:href="#DejaVuSans-35" x="63.623047"/>
      </g>
     </g>
    </g>
    <g id="xtick_12">
     <g id="line2d_22">
      <g>
       <use xlink:href="#mb7dc1ca8e2" x="702.9" y="317.61808" style="stroke: #000000; stroke-width: 0.8"/>
      </g>
     </g>
     <g id="text_23">
      <!-- 30 -->
      <g transform="translate(696.5375 332.216517) scale(0.1 -0.1)">
       <use xlink:href="#DejaVuSans-33"/>
       <use xlink:href="#DejaVuSans-30" x="63.623047"/>
      </g>
     </g>
    </g>
    <g id="text_24">
     <!-- t [s] -->
     <g transform="translate(538.494531 345.894642) scale(0.1 -0.1)">
      <use xlink:href="#DejaVuSans-74"/>
      <use xlink:href="#DejaVuSans-20" x="39.208984"/>
      <use xlink:href="#DejaVuSans-5b" x="70.996094"/>
      <use xlink:href="#DejaVuSans-73" x="110.009766"/>
      <use xlink:href="#DejaVuSans-5d" x="162.109375"/>
     </g>
    </g>
   </g>
   <g id="matplotlib.axis_4">
    <g id="ytick_7">
     <g id="line2d_23">
      <g>
       <use xlink:href="#m738314b1da" x="394.2" y="303.662967" style="stroke: #000000; stroke-width: 0.8"/>
      </g>
     </g>
     <g id="text_25">
      <!-- −8 -->
      <g transform="translate(372.457812 307.462186) scale(0.1 -0.1)">
       <defs>
        <path id="DejaVuSans-38" d="M 2034 2216 
Q 1584 2216 1326 1975 
Q 1069 1734 1069 1313 
Q 1069 891 1326 650 
Q 1584 409 2034 409 
Q 2484 409 2743 651 
Q 3003 894 3003 1313 
Q 3003 1734 2745 1975 
Q 2488 2216 2034 2216 
z
M 1403 2484 
Q 997 2584 770 2862 
Q 544 3141 544 3541 
Q 544 4100 942 4425 
Q 1341 4750 2034 4750 
Q 2731 4750 3128 4425 
Q 3525 4100 3525 3541 
Q 3525 3141 3298 2862 
Q 3072 2584 2669 2484 
Q 3125 2378 3379 2068 
Q 3634 1759 3634 1313 
Q 3634 634 3220 271 
Q 2806 -91 2034 -91 
Q 1263 -91 848 271 
Q 434 634 434 1313 
Q 434 1759 690 2068 
Q 947 2378 1403 2484 
z
M 1172 3481 
Q 1172 3119 1398 2916 
Q 1625 2713 2034 2713 
Q 2441 2713 2670 2916 
Q 2900 3119 2900 3481 
Q 2900 3844 2670 4047 
Q 2441 4250 2034 4250 
Q 1625 4250 1398 4047 
Q 1172 3844 1172 3481 
z
" transform="scale(0.015625)"/>
       </defs>
       <use xlink:href="#DejaVuSans-2212"/>
       <use xlink:href="#DejaVuSans-38" x="83.789062"/>
      </g>
     </g>
    </g>
    <g id="ytick_8">
     <g id="line2d_24">
      <g>
       <use xlink:href="#m738314b1da" x="394.2" y="268.775185" style="stroke: #000000; stroke-width: 0.8"/>
      </g>
     </g>
     <g id="text_26">
      <!-- −6 -->
      <g transform="translate(372.457812 272.574404) scale(0.1 -0.1)">
       <defs>
        <path id="DejaVuSans-36" d="M 2113 2584 
Q 1688 2584 1439 2293 
Q 1191 2003 1191 1497 
Q 1191 994 1439 701 
Q 1688 409 2113 409 
Q 2538 409 2786 701 
Q 3034 994 3034 1497 
Q 3034 2003 2786 2293 
Q 2538 2584 2113 2584 
z
M 3366 4563 
L 3366 3988 
Q 3128 4100 2886 4159 
Q 2644 4219 2406 4219 
Q 1781 4219 1451 3797 
Q 1122 3375 1075 2522 
Q 1259 2794 1537 2939 
Q 1816 3084 2150 3084 
Q 2853 3084 3261 2657 
Q 3669 2231 3669 1497 
Q 3669 778 3244 343 
Q 2819 -91 2113 -91 
Q 1303 -91 875 529 
Q 447 1150 447 2328 
Q 447 3434 972 4092 
Q 1497 4750 2381 4750 
Q 2619 4750 2861 4703 
Q 3103 4656 3366 4563 
z
" transform="scale(0.015625)"/>
       </defs>
       <use xlink:href="#DejaVuSans-2212"/>
       <use xlink:href="#DejaVuSans-36" x="83.789062"/>
      </g>
     </g>
    </g>
    <g id="ytick_9">
     <g id="line2d_25">
      <g>
       <use xlink:href="#m738314b1da" x="394.2" y="233.887404" style="stroke: #000000; stroke-width: 0.8"/>
      </g>
     </g>
     <g id="text_27">
      <!-- −4 -->
      <g transform="translate(372.457812 237.686622) scale(0.1 -0.1)">
       <use xlink:href="#DejaVuSans-2212"/>
       <use xlink:href="#DejaVuSans-34" x="83.789062"/>
      </g>
     </g>
    </g>
    <g id="ytick_10">
     <g id="line2d_26">
      <g>
       <use xlink:href="#m738314b1da" x="394.2" y="198.999622" style="stroke: #000000; stroke-width: 0.8"/>
      </g>
     </g>
     <g id="text_28">
      <!-- −2 -->
      <g transform="translate(372.457812 202.798841) scale(0.1 -0.1)">
       <use xlink:href="#DejaVuSans-2212"/>
       <use xlink:href="#DejaVuSans-32" x="83.789062"/>
      </g>
     </g>
    </g>
    <g id="ytick_11">
     <g id="line2d_27">
      <g>
       <use xlink:href="#m738314b1da" x="394.2" y="164.11184" style="stroke: #000000; stroke-width: 0.8"/>
      </g>
     </g>
     <g id="text_29">
      <!-- 0 -->
      <g transform="translate(380.8375 167.911059) scale(0.1 -0.1)">
       <use xlink:href="#DejaVuSans-30"/>
      </g>
     </g>
    </g>
    <g id="ytick_12">
     <g id="line2d_28">
      <g>
       <use xlink:href="#m738314b1da" x="394.2" y="129.224058" style="stroke: #000000; stroke-width: 0.8"/>
      </g>
     </g>
     <g id="text_30">
      <!-- 2 -->
      <g transform="translate(380.8375 133.023277) scale(0.1 -0.1)">
       <use xlink:href="#DejaVuSans-32"/>
      </g>
     </g>
    </g>
    <g id="ytick_13">
     <g id="line2d_29">
      <g>
       <use xlink:href="#m738314b1da" x="394.2" y="94.336276" style="stroke: #000000; stroke-width: 0.8"/>
      </g>
     </g>
     <g id="text_31">
      <!-- 4 -->
      <g transform="translate(380.8375 98.135495) scale(0.1 -0.1)">
       <use xlink:href="#DejaVuSans-34"/>
      </g>
     </g>
    </g>
    <g id="ytick_14">
     <g id="line2d_30">
      <g>
       <use xlink:href="#m738314b1da" x="394.2" y="59.448495" style="stroke: #000000; stroke-width: 0.8"/>
      </g>
     </g>
     <g id="text_32">
      <!-- 6 -->
      <g transform="translate(380.8375 63.247713) scale(0.1 -0.1)">
       <use xlink:href="#DejaVuSans-36"/>
      </g>
     </g>
    </g>
    <g id="ytick_15">
     <g id="line2d_31">
      <g>
       <use xlink:href="#m738314b1da" x="394.2" y="24.560713" style="stroke: #000000; stroke-width: 0.8"/>
      </g>
     </g>
     <g id="text_33">
      <!-- 8 -->
      <g transform="translate(380.8375 28.359931) scale(0.1 -0.1)">
       <use xlink:href="#DejaVuSans-38"/>
      </g>
     </g>
    </g>
   </g>
   <g id="line2d_32">
    <path d="M 394.2 164.11184 
L 702.9 164.11184 
" clip-path="url(#p9dcc31d5e7)" style="fill: none; stroke-dasharray: 2.775,1.2; stroke-dashoffset: 0; stroke: #000000; stroke-width: 0.75"/>
   </g>
   <g id="line2d_33">
    <path d="M 394.2 139.442453 
L 394.292152 139.418673 
L 395.321152 139.150477 
L 396.864652 140.042924 
L 402.524152 143.729662 
L 407.154652 146.599786 
L 410.241652 148.306801 
L 413.328652 149.741623 
L 415.901152 150.692867 
L 418.473652 151.382523 
L 420.531652 151.70325 
L 422.589652 151.80126 
L 424.647652 151.678202 
L 426.705652 151.350919 
L 429.278152 150.692195 
L 432.365152 149.613265 
L 438.024652 147.538782 
L 439.053652 147.383109 
L 440.082652 147.444176 
L 441.111652 147.725012 
L 442.655152 148.464849 
L 445.227652 150.052461 
L 454.488652 156.056803 
L 456.546652 157.108312 
L 458.090152 157.72159 
L 459.633652 158.130066 
L 461.177152 158.290084 
L 462.720652 158.173026 
L 464.264152 157.768134 
L 465.807652 157.135245 
L 467.865652 156.045134 
L 470.952652 154.093723 
L 474.554152 151.515502 
L 480.213652 147.15548 
L 488.445652 140.511754 
L 502.337152 128.982411 
L 527.547652 107.925787 
L 528.576652 107.354406 
L 529.605652 106.999961 
L 530.634652 106.862206 
L 532.178152 106.944366 
L 534.236152 107.36741 
L 536.808652 108.177624 
L 540.410152 109.586135 
L 554.301652 115.211975 
L 559.446652 116.991746 
L 564.077152 118.388269 
L 568.193152 119.392688 
L 571.794652 120.060911 
L 575.396152 120.51569 
L 578.997652 120.742948 
L 582.599152 120.732346 
L 586.200652 120.481933 
L 589.802152 120.034094 
L 592.889152 119.457542 
L 596.490652 118.54526 
L 600.092152 117.407203 
L 603.693652 116.03096 
L 607.295152 114.393119 
L 610.382152 112.748212 
L 612.954652 111.17198 
L 615.527152 109.316452 
L 619.643152 106.080496 
L 621.701152 104.939762 
L 623.759152 104.06221 
L 626.331652 103.199734 
L 629.933152 102.261937 
L 645.368152 98.478563 
L 653.085652 96.129541 
L 658.230652 94.313364 
L 662.346652 92.664439 
L 665.433652 91.166669 
L 668.520652 89.408827 
L 672.122152 87.09796 
L 676.752652 83.855694 
L 683.441152 78.864096 
L 692.702152 71.634602 
L 702.9 63.447459 
L 702.9 63.447459 
" clip-path="url(#p9dcc31d5e7)" style="fill: none; stroke: #0000ff; stroke-width: 0.5; stroke-linecap: square"/>
   </g>
   <g id="line2d_34">
    <path d="M 394.2 136.724931 
L 394.292152 136.675843 
L 395.321152 136.115756 
L 396.350152 137.224589 
L 398.408152 139.475815 
L 399.437152 140.100235 
L 403.553152 141.204218 
L 405.096652 141.385522 
L 406.125652 141.531314 
L 407.154652 141.64466 
L 408.183652 141.771696 
L 409.212652 141.714207 
L 410.241652 141.684474 
L 411.270652 141.715559 
L 412.299652 141.761103 
L 413.328652 141.853922 
L 414.357652 141.951788 
L 416.415652 142.292288 
L 419.502652 142.564625 
L 423.104152 142.917589 
L 426.191152 143.45534 
L 430.821652 144.660731 
L 432.879652 145.701341 
L 433.908652 146.369416 
L 435.452152 147.913257 
L 436.995652 150.35282 
L 438.539152 155.522636 
L 441.626152 171.58828 
L 443.169652 176.031296 
L 444.713152 178.89254 
L 446.256652 180.608596 
L 449.858152 183.209859 
L 451.401652 183.958808 
L 453.459652 184.641197 
L 455.517652 185.14791 
L 461.691652 186.357085 
L 464.264152 186.048189 
L 465.807652 186.092179 
L 467.865652 186.3246 
L 471.467152 186.823743 
L 473.010652 186.619035 
L 475.068652 186.681046 
L 478.670152 186.91797 
L 480.213652 186.868755 
L 481.242652 186.879447 
L 482.271652 186.864237 
L 483.300652 186.8667 
L 484.329652 186.84405 
L 485.358652 186.839421 
L 486.387652 186.809783 
L 487.416652 186.797912 
L 488.445652 186.760774 
L 489.474652 186.740796 
L 490.503652 186.695113 
L 491.532652 186.665769 
L 492.561652 186.610212 
L 493.590652 186.570039 
L 494.619652 186.503142 
L 495.648652 186.617882 
L 496.163152 186.716229 
L 497.706652 186.709182 
L 498.735652 186.70332 
L 499.764652 186.646883 
L 500.793652 186.584291 
L 501.822652 186.480377 
L 502.851652 186.376402 
L 503.880652 186.236317 
L 507.996652 185.96582 
L 509.025652 185.785804 
L 514.685152 185.10536 
L 519.315652 183.805272 
L 520.859152 183.139796 
L 522.402652 182.176165 
L 523.431652 181.342489 
L 523.946152 180.875939 
L 525.489652 178.482227 
L 526.004152 177.573568 
L 527.033152 174.612416 
L 529.605652 160.853683 
L 530.120152 158.413896 
L 531.149152 154.898392 
L 532.178152 152.464648 
L 533.721652 149.903642 
L 534.750652 148.586255 
L 536.294152 146.984296 
L 538.352152 145.301937 
L 541.953652 143.879667 
L 543.497152 143.530105 
L 544.526152 143.165202 
L 546.584152 142.862176 
L 547.613152 142.526765 
L 549.156652 142.3635 
L 549.671152 142.256598 
L 551.214652 142.223795 
L 552.243652 142.184857 
L 553.272652 142.181916 
L 554.301652 141.988665 
L 554.816152 141.846861 
L 556.359652 141.738789 
L 556.874152 141.640023 
L 558.417652 141.620972 
L 560.990152 141.29712 
L 562.019152 141.263859 
L 563.048152 141.224436 
L 564.077152 141.217241 
L 565.106152 141.196781 
L 566.135152 141.203742 
L 567.164152 141.1938 
L 568.193152 141.208963 
L 569.222152 141.205551 
L 570.251152 141.22632 
L 571.280152 141.227975 
L 572.309152 141.253656 
L 573.338152 141.260345 
L 574.367152 141.291325 
L 575.396152 141.303825 
L 576.425152 141.341094 
L 577.454152 141.360637 
L 578.483152 141.40552 
L 579.512152 141.433582 
L 580.541152 141.487582 
L 581.570152 141.525762 
L 582.599152 141.590461 
L 583.628152 141.640406 
L 584.657152 141.717401 
L 585.686152 141.616322 
L 586.200652 141.525727 
L 587.744152 141.552132 
L 588.773152 141.571882 
L 589.802152 141.642244 
L 590.831152 141.719472 
L 591.860152 141.838152 
L 592.889152 141.957706 
L 593.918152 142.113486 
L 600.606652 142.663573 
L 602.150152 142.866513 
L 604.208152 143.310734 
L 606.266152 143.794843 
L 609.353152 144.995367 
L 610.896652 145.817196 
L 611.925652 146.527692 
L 613.469152 148.289777 
L 613.983652 148.967436 
L 615.012652 151.182243 
L 616.041652 154.693345 
L 617.070652 159.512534 
L 618.099652 165.7166 
L 619.128652 170.048746 
L 620.157652 173.32648 
L 621.186652 175.658362 
L 622.730152 178.143373 
L 623.759152 179.42965 
L 625.302652 180.999387 
L 627.360652 182.651662 
L 628.389652 183.375321 
L 631.991152 184.661779 
L 633.020152 184.855733 
L 636.107152 185.528092 
L 636.621652 185.637876 
L 638.165152 185.675553 
L 639.194152 185.889461 
L 639.708652 186.036658 
L 641.252152 186.152801 
L 641.766652 186.250331 
L 643.310152 186.2649 
L 644.339152 186.29963 
L 645.368152 186.301603 
L 646.397152 186.500276 
L 646.911652 186.646065 
L 648.455152 186.762122 
L 648.969652 186.864662 
L 650.513152 186.890874 
L 651.027652 186.970312 
L 652.571152 186.948632 
L 653.600152 186.972691 
L 654.629152 186.968585 
L 655.658152 186.980883 
L 656.687152 186.967794 
L 657.716152 186.973147 
L 658.745152 186.954282 
L 659.774152 186.954604 
L 660.803152 186.744761 
L 661.832152 186.378753 
L 663.375652 185.643664 
L 670.064152 182.040448 
L 672.636652 180.999236 
L 675.723652 180.054204 
L 679.325152 179.257721 
L 682.926652 178.673808 
L 688.071652 178.073493 
L 694.760152 177.536874 
L 702.9 177.096441 
L 702.9 177.096441 
" clip-path="url(#p9dcc31d5e7)" style="fill: none; stroke: #ff0000; stroke-width: 0.5; stroke-linecap: square"/>
   </g>
   <g id="patch_9">
    <path d="M 394.2 317.61808 
L 394.2 10.6056 
" style="fill: none; stroke: #000000; stroke-width: 0.8; stroke-linejoin: miter; stroke-linecap: square"/>
   </g>
   <g id="patch_10">
    <path d="M 702.9 317.61808 
L 702.9 10.6056 
" style="fill: none; stroke: #000000; stroke-width: 0.8; stroke-linejoin: miter; stroke-linecap: square"/>
   </g>
   <g id="patch_11">
    <path d="M 394.2 317.61808 
L 702.9 317.61808 
" style="fill: none; stroke: #000000; stroke-width: 0.8; stroke-linejoin: miter; stroke-linecap: square"/>
   </g>
   <g id="patch_12">
    <path d="M 394.2 10.6056 
L 702.9 10.6056 
" style="fill: none; stroke: #000000; stroke-width: 0.8; stroke-linejoin: miter; stroke-linecap: square"/>
   </g>
   <g id="legend_1">
    <g id="patch_13">
     <path d="M 608.4 48.383725 
L 695.9 48.383725 
Q 697.9 48.383725 697.9 46.383725 
L 697.9 17.6056 
Q 697.9 15.6056 695.9 15.6056 
L 608.4 15.6056 
Q 606.4 15.6056 606.4 17.6056 
L 606.4 46.383725 
Q 606.4 48.383725 608.4 48.383725 
z
" style="fill: #ffffff; opacity: 0.8; stroke: #cccccc; stroke-linejoin: miter"/>
    </g>
    <g id="line2d_35">
     <path d="M 610.4 23.8056 
L 620.4 23.8056 
L 630.4 23.8056 
" style="fill: none; stroke: #0000ff; stroke-width: 0.5; stroke-linecap: square"/>
    </g>
    <g id="text_34">
     <!-- $\Vert(x,y)\Vert$ [m] -->
     <g transform="translate(638.4 27.3056) scale(0.1 -0.1)">
      <defs>
       <path id="DejaVuSans-2016" d="M 1344 4891 
L 1344 -1509 
L 813 -1509 
L 813 4891 
L 1344 4891 
z
M 2376 4891 
L 2376 -1509 
L 1845 -1509 
L 1845 4891 
L 2376 4891 
z
" transform="scale(0.015625)"/>
       <path id="DejaVuSans-28" d="M 1984 4856 
Q 1566 4138 1362 3434 
Q 1159 2731 1159 2009 
Q 1159 1288 1364 580 
Q 1569 -128 1984 -844 
L 1484 -844 
Q 1016 -109 783 600 
Q 550 1309 550 2009 
Q 550 2706 781 3412 
Q 1013 4119 1484 4856 
L 1984 4856 
z
" transform="scale(0.015625)"/>
       <path id="DejaVuSans-Oblique-78" d="M 3841 3500 
L 2234 1784 
L 3219 0 
L 2559 0 
L 1819 1388 
L 531 0 
L -166 0 
L 1556 1844 
L 641 3500 
L 1300 3500 
L 1972 2234 
L 3144 3500 
L 3841 3500 
z
" transform="scale(0.015625)"/>
       <path id="DejaVuSans-Oblique-79" d="M 1588 -325 
Q 1188 -997 936 -1164 
Q 684 -1331 294 -1331 
L -159 -1331 
L -63 -850 
L 269 -850 
Q 509 -850 678 -719 
Q 847 -588 1056 -206 
L 1234 128 
L 459 3500 
L 1069 3500 
L 1650 819 
L 3256 3500 
L 3859 3500 
L 1588 -325 
z
" transform="scale(0.015625)"/>
       <path id="DejaVuSans-29" d="M 513 4856 
L 1013 4856 
Q 1481 4119 1714 3412 
Q 1947 2706 1947 2009 
Q 1947 1309 1714 600 
Q 1481 -109 1013 -844 
L 513 -844 
Q 928 -128 1133 580 
Q 1338 1288 1338 2009 
Q 1338 2731 1133 3434 
Q 928 4138 513 4856 
z
" transform="scale(0.015625)"/>
      </defs>
      <use xlink:href="#DejaVuSans-2016" transform="translate(0 0.578125)"/>
      <use xlink:href="#DejaVuSans-28" transform="translate(50 0.578125)"/>
      <use xlink:href="#DejaVuSans-Oblique-78" transform="translate(89.013672 0.578125)"/>
      <use xlink:href="#DejaVuSans-2c" transform="translate(148.193359 0.578125)"/>
      <use xlink:href="#DejaVuSans-Oblique-79" transform="translate(199.462891 0.578125)"/>
      <use xlink:href="#DejaVuSans-29" transform="translate(258.642578 0.578125)"/>
      <use xlink:href="#DejaVuSans-2016" transform="translate(297.65625 0.578125)"/>
      <use xlink:href="#DejaVuSans-20" transform="translate(347.65625 0.578125)"/>
      <use xlink:href="#DejaVuSans-5b" transform="translate(379.443359 0.578125)"/>
      <use xlink:href="#DejaVuSans-6d" transform="translate(418.457031 0.578125)"/>
      <use xlink:href="#DejaVuSans-5d" transform="translate(515.869141 0.578125)"/>
     </g>
    </g>
    <g id="line2d_36">
     <path d="M 610.4 38.804037 
L 620.4 38.804037 
L 630.4 38.804037 
" style="fill: none; stroke: #ff0000; stroke-width: 0.5; stroke-linecap: square"/>
    </g>
    <g id="text_35">
     <!-- $\alpha$ [rad] -->
     <g transform="translate(638.4 42.304037) scale(0.1 -0.1)">
      <defs>
       <path id="DejaVuSans-Oblique-3b1" d="M 2619 1628 
L 2622 2350 
Q 2625 3088 2069 3091 
Q 1653 3094 1394 2747 
Q 1069 2319 959 1747 
Q 825 1059 994 731 
Q 1169 397 1547 397 
Q 1966 397 2319 1063 
L 2619 1628 
z
M 2166 3578 
Q 3141 3594 3128 2584 
Q 3128 2584 3616 3500 
L 4128 3500 
L 3119 1603 
L 3109 919 
Q 3109 766 3194 638 
Q 3291 488 3391 488 
L 3669 488 
L 3575 0 
L 3228 0 
Q 2934 0 2722 263 
Q 2622 394 2619 669 
Q 2416 334 2066 50 
Q 1900 -81 1453 -78 
Q 722 -72 456 397 
Q 184 884 353 1747 
Q 534 2675 1009 3097 
Q 1544 3569 2166 3578 
z
" transform="scale(0.015625)"/>
      </defs>
      <use xlink:href="#DejaVuSans-Oblique-3b1" transform="translate(0 0.015625)"/>
      <use xlink:href="#DejaVuSans-20" transform="translate(65.917969 0.015625)"/>
      <use xlink:href="#DejaVuSans-5b" transform="translate(97.705078 0.015625)"/>
      <use xlink:href="#DejaVuSans-72" transform="translate(136.71875 0.015625)"/>
      <use xlink:href="#DejaVuSans-61" transform="translate(177.832031 0.015625)"/>
      <use xlink:href="#DejaVuSans-64" transform="translate(239.111328 0.015625)"/>
      <use xlink:href="#DejaVuSans-5d" transform="translate(302.587891 0.015625)"/>
     </g>
    </g>
   </g>
  </g>
  <g id="axes_3">
   <g id="patch_14">
    <path d="M 46.64 665.83528 
L 355.34 665.83528 
L 355.34 358.8228 
L 46.64 358.8228 
z
" style="fill: #ffffff"/>
   </g>
   <g id="matplotlib.axis_5">
    <g id="xtick_13">
     <g id="line2d_37">
      <g>
       <use xlink:href="#mb7dc1ca8e2" x="46.64" y="665.83528" style="stroke: #000000; stroke-width: 0.8"/>
      </g>
     </g>
     <g id="text_36">
      <!-- 0 -->
      <g transform="translate(43.45875 680.433717) scale(0.1 -0.1)">
       <use xlink:href="#DejaVuSans-30"/>
      </g>
     </g>
    </g>
    <g id="xtick_14">
     <g id="line2d_38">
      <g>
       <use xlink:href="#mb7dc1ca8e2" x="98.09" y="665.83528" style="stroke: #000000; stroke-width: 0.8"/>
      </g>
     </g>
     <g id="text_37">
      <!-- 5 -->
      <g transform="translate(94.90875 680.433717) scale(0.1 -0.1)">
       <use xlink:href="#DejaVuSans-35"/>
      </g>
     </g>
    </g>
    <g id="xtick_15">
     <g id="line2d_39">
      <g>
       <use xlink:href="#mb7dc1ca8e2" x="149.54" y="665.83528" style="stroke: #000000; stroke-width: 0.8"/>
      </g>
     </g>
     <g id="text_38">
      <!-- 10 -->
      <g transform="translate(143.1775 680.433717) scale(0.1 -0.1)">
       <use xlink:href="#DejaVuSans-31"/>
       <use xlink:href="#DejaVuSans-30" x="63.623047"/>
      </g>
     </g>
    </g>
    <g id="xtick_16">
     <g id="line2d_40">
      <g>
       <use xlink:href="#mb7dc1ca8e2" x="200.99" y="665.83528" style="stroke: #000000; stroke-width: 0.8"/>
      </g>
     </g>
     <g id="text_39">
      <!-- 15 -->
      <g transform="translate(194.6275 680.433717) scale(0.1 -0.1)">
       <use xlink:href="#DejaVuSans-31"/>
       <use xlink:href="#DejaVuSans-35" x="63.623047"/>
      </g>
     </g>
    </g>
    <g id="xtick_17">
     <g id="line2d_41">
      <g>
       <use xlink:href="#mb7dc1ca8e2" x="252.44" y="665.83528" style="stroke: #000000; stroke-width: 0.8"/>
      </g>
     </g>
     <g id="text_40">
      <!-- 20 -->
      <g transform="translate(246.0775 680.433717) scale(0.1 -0.1)">
       <use xlink:href="#DejaVuSans-32"/>
       <use xlink:href="#DejaVuSans-30" x="63.623047"/>
      </g>
     </g>
    </g>
    <g id="xtick_18">
     <g id="line2d_42">
      <g>
       <use xlink:href="#mb7dc1ca8e2" x="303.89" y="665.83528" style="stroke: #000000; stroke-width: 0.8"/>
      </g>
     </g>
     <g id="text_41">
      <!-- 25 -->
      <g transform="translate(297.5275 680.433717) scale(0.1 -0.1)">
       <use xlink:href="#DejaVuSans-32"/>
       <use xlink:href="#DejaVuSans-35" x="63.623047"/>
      </g>
     </g>
    </g>
    <g id="xtick_19">
     <g id="line2d_43">
      <g>
       <use xlink:href="#mb7dc1ca8e2" x="355.34" y="665.83528" style="stroke: #000000; stroke-width: 0.8"/>
      </g>
     </g>
     <g id="text_42">
      <!-- 30 -->
      <g transform="translate(348.9775 680.433717) scale(0.1 -0.1)">
       <use xlink:href="#DejaVuSans-33"/>
       <use xlink:href="#DejaVuSans-30" x="63.623047"/>
      </g>
     </g>
    </g>
    <g id="text_43">
     <!-- t [s] -->
     <g transform="translate(190.934531 694.111842) scale(0.1 -0.1)">
      <use xlink:href="#DejaVuSans-74"/>
      <use xlink:href="#DejaVuSans-20" x="39.208984"/>
      <use xlink:href="#DejaVuSans-5b" x="70.996094"/>
      <use xlink:href="#DejaVuSans-73" x="110.009766"/>
      <use xlink:href="#DejaVuSans-5d" x="162.109375"/>
     </g>
    </g>
   </g>
   <g id="matplotlib.axis_6">
    <g id="ytick_16">
     <g id="line2d_44">
      <g>
       <use xlink:href="#m738314b1da" x="46.64" y="665.83528" style="stroke: #000000; stroke-width: 0.8"/>
      </g>
     </g>
     <g id="text_44">
      <!-- $\mathdefault{0}$ -->
      <g transform="translate(33.24 669.634499) scale(0.1 -0.1)">
       <use xlink:href="#DejaVuSans-30" transform="translate(0 0.78125)"/>
      </g>
     </g>
    </g>
    <g id="ytick_17">
     <g id="line2d_45">
      <g>
       <use xlink:href="#m738314b1da" x="46.64" y="642.018978" style="stroke: #000000; stroke-width: 0.8"/>
      </g>
     </g>
     <g id="text_45">
      <!-- $\mathdefault{10^{0}}$ -->
      <g transform="translate(22.04 645.818196) scale(0.1 -0.1)">
       <use xlink:href="#DejaVuSans-31" transform="translate(0 0.765625)"/>
       <use xlink:href="#DejaVuSans-30" transform="translate(63.623047 0.765625)"/>
       <use xlink:href="#DejaVuSans-30" transform="translate(128.203125 39.046875) scale(0.7)"/>
      </g>
     </g>
    </g>
    <g id="ytick_18">
     <g id="line2d_46">
      <g>
       <use xlink:href="#m738314b1da" x="46.64" y="588.238289" style="stroke: #000000; stroke-width: 0.8"/>
      </g>
     </g>
     <g id="text_46">
      <!-- $\mathdefault{10^{1}}$ -->
      <g transform="translate(22.04 592.037508) scale(0.1 -0.1)">
       <use xlink:href="#DejaVuSans-31" transform="translate(0 0.684375)"/>
       <use xlink:href="#DejaVuSans-30" transform="translate(63.623047 0.684375)"/>
       <use xlink:href="#DejaVuSans-31" transform="translate(128.203125 38.965625) scale(0.7)"/>
      </g>
     </g>
    </g>
    <g id="ytick_19">
     <g id="line2d_47">
      <g>
       <use xlink:href="#m738314b1da" x="46.64" y="545.368945" style="stroke: #000000; stroke-width: 0.8"/>
      </g>
     </g>
     <g id="text_47">
      <!-- $\mathdefault{10^{2}}$ -->
      <g transform="translate(22.04 549.168164) scale(0.1 -0.1)">
       <use xlink:href="#DejaVuSans-31" transform="translate(0 0.765625)"/>
       <use xlink:href="#DejaVuSans-30" transform="translate(63.623047 0.765625)"/>
       <use xlink:href="#DejaVuSans-32" transform="translate(128.203125 39.046875) scale(0.7)"/>
      </g>
     </g>
    </g>
    <g id="ytick_20">
     <g id="line2d_48">
      <g>
       <use xlink:href="#m738314b1da" x="46.64" y="502.4996" style="stroke: #000000; stroke-width: 0.8"/>
      </g>
     </g>
     <g id="text_48">
      <!-- $\mathdefault{10^{3}}$ -->
      <g transform="translate(22.04 506.298819) scale(0.1 -0.1)">
       <use xlink:href="#DejaVuSans-31" transform="translate(0 0.765625)"/>
       <use xlink:href="#DejaVuSans-30" transform="translate(63.623047 0.765625)"/>
       <use xlink:href="#DejaVuSans-33" transform="translate(128.203125 39.046875) scale(0.7)"/>
      </g>
     </g>
    </g>
    <g id="ytick_21">
     <g id="line2d_49">
      <g>
       <use xlink:href="#m738314b1da" x="46.64" y="459.630256" style="stroke: #000000; stroke-width: 0.8"/>
      </g>
     </g>
     <g id="text_49">
      <!-- $\mathdefault{10^{4}}$ -->
      <g transform="translate(22.04 463.429475) scale(0.1 -0.1)">
       <use xlink:href="#DejaVuSans-31" transform="translate(0 0.684375)"/>
       <use xlink:href="#DejaVuSans-30" transform="translate(63.623047 0.684375)"/>
       <use xlink:href="#DejaVuSans-34" transform="translate(128.203125 38.965625) scale(0.7)"/>
      </g>
     </g>
    </g>
    <g id="ytick_22">
     <g id="line2d_50">
      <g>
       <use xlink:href="#m738314b1da" x="46.64" y="416.760911" style="stroke: #000000; stroke-width: 0.8"/>
      </g>
     </g>
     <g id="text_50">
      <!-- $\mathdefault{10^{5}}$ -->
      <g transform="translate(22.04 420.56013) scale(0.1 -0.1)">
       <use xlink:href="#DejaVuSans-31" transform="translate(0 0.684375)"/>
       <use xlink:href="#DejaVuSans-30" transform="translate(63.623047 0.684375)"/>
       <use xlink:href="#DejaVuSans-35" transform="translate(128.203125 38.965625) scale(0.7)"/>
      </g>
     </g>
    </g>
    <g id="ytick_23">
     <g id="line2d_51">
      <g>
       <use xlink:href="#m738314b1da" x="46.64" y="373.891567" style="stroke: #000000; stroke-width: 0.8"/>
      </g>
     </g>
     <g id="text_51">
      <!-- $\mathdefault{10^{6}}$ -->
      <g transform="translate(22.04 377.690786) scale(0.1 -0.1)">
       <use xlink:href="#DejaVuSans-31" transform="translate(0 0.765625)"/>
       <use xlink:href="#DejaVuSans-30" transform="translate(63.623047 0.765625)"/>
       <use xlink:href="#DejaVuSans-36" transform="translate(128.203125 39.046875) scale(0.7)"/>
      </g>
     </g>
    </g>
   </g>
   <g id="line2d_52">
    <path d="M 46.64 530.300178 
L 46.732152 530.260919 
L 47.761152 529.819866 
L 48.790152 530.758176 
L 52.906152 535.095289 
L 64.225152 547.132008 
L 66.283152 549.021272 
L 68.341152 550.746432 
L 69.884652 551.806512 
L 71.428152 552.62441 
L 72.971652 553.178469 
L 74.515152 553.457677 
L 76.058652 553.463598 
L 77.602152 553.210424 
L 79.145652 552.723188 
L 80.689152 552.015281 
L 82.747152 550.773359 
L 88.406652 547.121254 
L 89.435652 546.654112 
L 90.979152 546.566386 
L 92.522652 547.06315 
L 94.066152 547.794401 
L 95.609652 549.031707 
L 97.153152 550.654017 
L 99.211152 553.342757 
L 104.356152 560.845974 
L 107.443152 565.328879 
L 108.986652 567.199732 
L 110.015652 568.204523 
L 111.044652 568.96372 
L 112.073652 569.44002 
L 113.102652 569.606716 
L 114.646152 569.431192 
L 115.675152 569.146554 
L 116.704152 568.390491 
L 117.733152 567.3076 
L 119.276652 565.197797 
L 121.334652 561.850506 
L 127.508652 551.453206 
L 130.595652 546.45043 
L 133.168152 542.575611 
L 137.284152 536.924287 
L 141.400152 531.863042 
L 145.516152 527.314646 
L 149.632152 523.184386 
L 153.233652 519.892796 
L 157.864152 516.02114 
L 162.494652 512.494898 
L 167.125152 509.250519 
L 172.270152 505.955354 
L 176.900652 503.274012 
L 179.473152 501.988383 
L 181.016652 501.436137 
L 182.560152 501.126881 
L 184.103652 501.071409 
L 186.161652 501.246044 
L 188.734152 501.690025 
L 192.335652 502.555467 
L 199.538652 504.572468 
L 210.343152 507.559896 
L 217.031652 509.134796 
L 221.147652 509.918386 
L 224.749152 510.444359 
L 228.865152 510.833289 
L 232.981152 510.977279 
L 237.097152 510.859806 
L 241.727652 510.439787 
L 245.843652 509.826274 
L 249.959652 508.953993 
L 254.590152 507.73104 
L 258.706152 506.42784 
L 262.822152 504.914221 
L 266.938152 503.159623 
L 270.025152 501.600415 
L 272.083152 500.579803 
L 274.141152 499.80468 
L 276.713652 499.091783 
L 280.315152 498.370233 
L 285.974652 497.536599 
L 299.866152 495.476661 
L 308.612652 493.939207 
L 316.330152 492.335954 
L 320.446152 491.242448 
L 326.105652 489.484559 
L 354.403152 480.351974 
L 355.34 480.07092 
L 355.34 480.07092 
" clip-path="url(#p2922f498e2)" style="fill: none; stroke: #ff0000; stroke-width: 0.5; stroke-linecap: square"/>
   </g>
   <g id="line2d_53">
    <path d="M 46.64 665.83528 
L 46.732152 552.701194 
L 47.246652 547.283117 
L 48.275652 539.670564 
L 49.304652 534.52547 
L 50.333652 530.702261 
L 51.362652 527.701736 
L 52.391652 525.255896 
L 53.935152 522.305927 
L 55.478652 519.963941 
L 57.022152 518.055071 
L 58.565652 516.468489 
L 60.623652 514.728362 
L 62.681652 513.306021 
L 65.254152 511.850842 
L 67.826652 510.655158 
L 70.913652 509.455836 
L 75.544152 507.921878 
L 86.863152 504.287599 
L 94.580652 501.680436 
L 98.182152 500.739274 
L 101.783652 500.036125 
L 105.899652 499.461962 
L 111.559152 498.921622 
L 121.849152 497.971548 
L 125.965152 497.354749 
L 129.566652 496.620024 
L 133.168152 495.666608 
L 136.769652 494.477844 
L 140.371152 493.05103 
L 143.972652 491.398334 
L 148.088652 489.264094 
L 152.719152 486.605083 
L 158.378652 483.097339 
L 167.639652 477.053351 
L 179.987652 469.026814 
L 184.618152 466.268352 
L 188.219652 464.385276 
L 191.821152 462.73615 
L 195.937152 461.100842 
L 200.567652 459.521361 
L 205.712652 458.022953 
L 211.372152 456.614053 
L 218.060652 455.191532 
L 226.292652 453.69224 
L 237.611652 451.885431 
L 263.851152 447.774042 
L 272.597652 446.1561 
L 312.728652 438.304538 
L 330.221652 434.850658 
L 343.084152 432.064516 
L 355.34 429.209292 
L 355.34 429.209292 
" clip-path="url(#p2922f498e2)" style="fill: none; stroke: #008000; stroke-width: 0.5; stroke-linecap: square"/>
   </g>
   <g id="patch_15">
    <path d="M 46.64 665.83528 
L 46.64 358.8228 
" style="fill: none; stroke: #000000; stroke-width: 0.8; stroke-linejoin: miter; stroke-linecap: square"/>
   </g>
   <g id="patch_16">
    <path d="M 355.34 665.83528 
L 355.34 358.8228 
" style="fill: none; stroke: #000000; stroke-width: 0.8; stroke-linejoin: miter; stroke-linecap: square"/>
   </g>
   <g id="patch_17">
    <path d="M 46.64 665.83528 
L 355.34 665.83528 
" style="fill: none; stroke: #000000; stroke-width: 0.8; stroke-linejoin: miter; stroke-linecap: square"/>
   </g>
   <g id="patch_18">
    <path d="M 46.64 358.8228 
L 355.34 358.8228 
" style="fill: none; stroke: #000000; stroke-width: 0.8; stroke-linejoin: miter; stroke-linecap: square"/>
   </g>
   <g id="legend_2">
    <g id="patch_19">
     <path d="M 250.24 400.400925 
L 348.34 400.400925 
Q 350.34 400.400925 350.34 398.400925 
L 350.34 365.8228 
Q 350.34 363.8228 348.34 363.8228 
L 250.24 363.8228 
Q 248.24 363.8228 248.24 365.8228 
L 248.24 398.400925 
Q 248.24 400.400925 250.24 400.400925 
z
" style="fill: #ffffff; opacity: 0.8; stroke: #cccccc; stroke-linejoin: miter"/>
    </g>
    <g id="line2d_54">
     <path d="M 252.24 371.921237 
L 262.24 371.921237 
L 272.24 371.921237 
" style="fill: none; stroke: #ff0000; stroke-width: 0.5; stroke-linecap: square"/>
    </g>
    <g id="text_52">
     <!-- Run. obj. -->
     <g transform="translate(280.24 375.421237) scale(0.1 -0.1)">
      <defs>
       <path id="DejaVuSans-52" d="M 2841 2188 
Q 3044 2119 3236 1894 
Q 3428 1669 3622 1275 
L 4263 0 
L 3584 0 
L 2988 1197 
Q 2756 1666 2539 1819 
Q 2322 1972 1947 1972 
L 1259 1972 
L 1259 0 
L 628 0 
L 628 4666 
L 2053 4666 
Q 2853 4666 3247 4331 
Q 3641 3997 3641 3322 
Q 3641 2881 3436 2590 
Q 3231 2300 2841 2188 
z
M 1259 4147 
L 1259 2491 
L 2053 2491 
Q 2509 2491 2742 2702 
Q 2975 2913 2975 3322 
Q 2975 3731 2742 3939 
Q 2509 4147 2053 4147 
L 1259 4147 
z
" transform="scale(0.015625)"/>
       <path id="DejaVuSans-6e" d="M 3513 2113 
L 3513 0 
L 2938 0 
L 2938 2094 
Q 2938 2591 2744 2837 
Q 2550 3084 2163 3084 
Q 1697 3084 1428 2787 
Q 1159 2491 1159 1978 
L 1159 0 
L 581 0 
L 581 3500 
L 1159 3500 
L 1159 2956 
Q 1366 3272 1645 3428 
Q 1925 3584 2291 3584 
Q 2894 3584 3203 3211 
Q 3513 2838 3513 2113 
z
" transform="scale(0.015625)"/>
       <path id="DejaVuSans-62" d="M 3116 1747 
Q 3116 2381 2855 2742 
Q 2594 3103 2138 3103 
Q 1681 3103 1420 2742 
Q 1159 2381 1159 1747 
Q 1159 1113 1420 752 
Q 1681 391 2138 391 
Q 2594 391 2855 752 
Q 3116 1113 3116 1747 
z
M 1159 2969 
Q 1341 3281 1617 3432 
Q 1894 3584 2278 3584 
Q 2916 3584 3314 3078 
Q 3713 2572 3713 1747 
Q 3713 922 3314 415 
Q 2916 -91 2278 -91 
Q 1894 -91 1617 61 
Q 1341 213 1159 525 
L 1159 0 
L 581 0 
L 581 4863 
L 1159 4863 
L 1159 2969 
z
" transform="scale(0.015625)"/>
       <path id="DejaVuSans-6a" d="M 603 3500 
L 1178 3500 
L 1178 -63 
Q 1178 -731 923 -1031 
Q 669 -1331 103 -1331 
L -116 -1331 
L -116 -844 
L 38 -844 
Q 366 -844 484 -692 
Q 603 -541 603 -63 
L 603 3500 
z
M 603 4863 
L 1178 4863 
L 1178 4134 
L 603 4134 
L 603 4863 
z
" transform="scale(0.015625)"/>
      </defs>
      <use xlink:href="#DejaVuSans-52"/>
      <use xlink:href="#DejaVuSans-75" x="64.982422"/>
      <use xlink:href="#DejaVuSans-6e" x="128.361328"/>
      <use xlink:href="#DejaVuSans-2e" x="191.740234"/>
      <use xlink:href="#DejaVuSans-20" x="223.527344"/>
      <use xlink:href="#DejaVuSans-6f" x="255.314453"/>
      <use xlink:href="#DejaVuSans-62" x="316.496094"/>
      <use xlink:href="#DejaVuSans-6a" x="379.972656"/>
      <use xlink:href="#DejaVuSans-2e" x="407.755859"/>
     </g>
    </g>
    <g id="line2d_55">
     <path d="M 252.24 389.800925 
L 262.24 389.800925 
L 272.24 389.800925 
" style="fill: none; stroke: #008000; stroke-width: 0.5; stroke-linecap: square"/>
    </g>
    <g id="text_53">
     <!-- $\int \mathrm{Run.\,obj.} \,\mathrm{d}t$ -->
     <g transform="translate(280.24 393.300925) scale(0.1 -0.1)">
      <defs>
       <path id="DejaVuSansDisplay-222b" d="M 2134 5525 
Q 2172 6263 2528 6556 
Q 2884 6850 3218 6850 
Q 3553 6850 3833 6575 
Q 4113 6300 4200 5678 
L 3544 5613 
Q 3469 6188 3219 6188 
Q 2906 6188 2869 5413 
L 2581 -597 
Q 2547 -1334 2187 -1628 
Q 1828 -1922 1497 -1922 
Q 1163 -1922 883 -1647 
Q 603 -1372 516 -750 
L 1172 -684 
Q 1247 -1259 1497 -1259 
Q 1809 -1259 1847 -488 
L 2134 5525 
z
" transform="scale(0.015625)"/>
       <path id="DejaVuSans-Oblique-74" d="M 2706 3500 
L 2619 3053 
L 1472 3053 
L 1100 1153 
Q 1081 1047 1072 975 
Q 1063 903 1063 863 
Q 1063 663 1183 572 
Q 1303 481 1569 481 
L 2150 481 
L 2053 0 
L 1503 0 
Q 991 0 739 200 
Q 488 400 488 806 
Q 488 878 497 964 
Q 506 1050 525 1153 
L 897 3053 
L 409 3053 
L 500 3500 
L 978 3500 
L 1172 4494 
L 1747 4494 
L 1556 3500 
L 2706 3500 
z
" transform="scale(0.015625)"/>
      </defs>
      <use xlink:href="#DejaVuSansDisplay-222b" transform="translate(0 0.96875)"/>
      <use xlink:href="#DejaVuSans-52" transform="translate(73.632812 0.96875)"/>
      <use xlink:href="#DejaVuSans-75" transform="translate(143.115234 0.96875)"/>
      <use xlink:href="#DejaVuSans-6e" transform="translate(206.494141 0.96875)"/>
      <use xlink:href="#DejaVuSans-2e" transform="translate(269.873047 0.96875)"/>
      <use xlink:href="#DejaVuSans-6f" transform="translate(337.378254 0.96875)"/>
      <use xlink:href="#DejaVuSans-62" transform="translate(398.559895 0.96875)"/>
      <use xlink:href="#DejaVuSans-6a" transform="translate(462.036458 0.96875)"/>
      <use xlink:href="#DejaVuSans-2e" transform="translate(489.819661 0.96875)"/>
      <use xlink:href="#DejaVuSans-64" transform="translate(557.324868 0.96875)"/>
      <use xlink:href="#DejaVuSans-Oblique-74" transform="translate(620.801431 0.96875)"/>
     </g>
    </g>
   </g>
  </g>
  <g id="axes_4">
   <g id="patch_20">
    <path d="M 394.2 665.83528 
L 702.9 665.83528 
L 702.9 358.8228 
L 394.2 358.8228 
z
" style="fill: #ffffff"/>
   </g>
   <g id="matplotlib.axis_7">
    <g id="xtick_20">
     <g id="line2d_56">
      <g>
       <use xlink:href="#mb7dc1ca8e2" x="394.2" y="665.83528" style="stroke: #000000; stroke-width: 0.8"/>
      </g>
     </g>
     <g id="text_54">
      <!-- 0 -->
      <g transform="translate(391.01875 680.433717) scale(0.1 -0.1)">
       <use xlink:href="#DejaVuSans-30"/>
      </g>
     </g>
    </g>
    <g id="xtick_21">
     <g id="line2d_57">
      <g>
       <use xlink:href="#mb7dc1ca8e2" x="445.65" y="665.83528" style="stroke: #000000; stroke-width: 0.8"/>
      </g>
     </g>
     <g id="text_55">
      <!-- 5 -->
      <g transform="translate(442.46875 680.433717) scale(0.1 -0.1)">
       <use xlink:href="#DejaVuSans-35"/>
      </g>
     </g>
    </g>
    <g id="xtick_22">
     <g id="line2d_58">
      <g>
       <use xlink:href="#mb7dc1ca8e2" x="497.1" y="665.83528" style="stroke: #000000; stroke-width: 0.8"/>
      </g>
     </g>
     <g id="text_56">
      <!-- 10 -->
      <g transform="translate(490.7375 680.433717) scale(0.1 -0.1)">
       <use xlink:href="#DejaVuSans-31"/>
       <use xlink:href="#DejaVuSans-30" x="63.623047"/>
      </g>
     </g>
    </g>
    <g id="xtick_23">
     <g id="line2d_59">
      <g>
       <use xlink:href="#mb7dc1ca8e2" x="548.55" y="665.83528" style="stroke: #000000; stroke-width: 0.8"/>
      </g>
     </g>
     <g id="text_57">
      <!-- 15 -->
      <g transform="translate(542.1875 680.433717) scale(0.1 -0.1)">
       <use xlink:href="#DejaVuSans-31"/>
       <use xlink:href="#DejaVuSans-35" x="63.623047"/>
      </g>
     </g>
    </g>
    <g id="xtick_24">
     <g id="line2d_60">
      <g>
       <use xlink:href="#mb7dc1ca8e2" x="600" y="665.83528" style="stroke: #000000; stroke-width: 0.8"/>
      </g>
     </g>
     <g id="text_58">
      <!-- 20 -->
      <g transform="translate(593.6375 680.433717) scale(0.1 -0.1)">
       <use xlink:href="#DejaVuSans-32"/>
       <use xlink:href="#DejaVuSans-30" x="63.623047"/>
      </g>
     </g>
    </g>
    <g id="xtick_25">
     <g id="line2d_61">
      <g>
       <use xlink:href="#mb7dc1ca8e2" x="651.45" y="665.83528" style="stroke: #000000; stroke-width: 0.8"/>
      </g>
     </g>
     <g id="text_59">
      <!-- 25 -->
      <g transform="translate(645.0875 680.433717) scale(0.1 -0.1)">
       <use xlink:href="#DejaVuSans-32"/>
       <use xlink:href="#DejaVuSans-35" x="63.623047"/>
      </g>
     </g>
    </g>
    <g id="xtick_26">
     <g id="line2d_62">
      <g>
       <use xlink:href="#mb7dc1ca8e2" x="702.9" y="665.83528" style="stroke: #000000; stroke-width: 0.8"/>
      </g>
     </g>
     <g id="text_60">
      <!-- 30 -->
      <g transform="translate(696.5375 680.433717) scale(0.1 -0.1)">
       <use xlink:href="#DejaVuSans-33"/>
       <use xlink:href="#DejaVuSans-30" x="63.623047"/>
      </g>
     </g>
    </g>
    <g id="text_61">
     <!-- t [s] -->
     <g transform="translate(538.494531 694.111842) scale(0.1 -0.1)">
      <use xlink:href="#DejaVuSans-74"/>
      <use xlink:href="#DejaVuSans-20" x="39.208984"/>
      <use xlink:href="#DejaVuSans-5b" x="70.996094"/>
      <use xlink:href="#DejaVuSans-73" x="110.009766"/>
      <use xlink:href="#DejaVuSans-5d" x="162.109375"/>
     </g>
    </g>
   </g>
   <g id="matplotlib.axis_8">
    <g id="ytick_24">
     <g id="line2d_63">
      <g>
       <use xlink:href="#m738314b1da" x="394.2" y="659.742203" style="stroke: #000000; stroke-width: 0.8"/>
      </g>
     </g>
     <g id="text_62">
      <!-- −3 -->
      <g transform="translate(372.457812 663.541421) scale(0.1 -0.1)">
       <use xlink:href="#DejaVuSans-2212"/>
       <use xlink:href="#DejaVuSans-33" x="83.789062"/>
      </g>
     </g>
    </g>
    <g id="ytick_25">
     <g id="line2d_64">
      <g>
       <use xlink:href="#m738314b1da" x="394.2" y="610.604482" style="stroke: #000000; stroke-width: 0.8"/>
      </g>
     </g>
     <g id="text_63">
      <!-- −2 -->
      <g transform="translate(372.457812 614.4037) scale(0.1 -0.1)">
       <use xlink:href="#DejaVuSans-2212"/>
       <use xlink:href="#DejaVuSans-32" x="83.789062"/>
      </g>
     </g>
    </g>
    <g id="ytick_26">
     <g id="line2d_65">
      <g>
       <use xlink:href="#m738314b1da" x="394.2" y="561.466761" style="stroke: #000000; stroke-width: 0.8"/>
      </g>
     </g>
     <g id="text_64">
      <!-- −1 -->
      <g transform="translate(372.457812 565.26598) scale(0.1 -0.1)">
       <use xlink:href="#DejaVuSans-2212"/>
       <use xlink:href="#DejaVuSans-31" x="83.789062"/>
      </g>
     </g>
    </g>
    <g id="ytick_27">
     <g id="line2d_66">
      <g>
       <use xlink:href="#m738314b1da" x="394.2" y="512.32904" style="stroke: #000000; stroke-width: 0.8"/>
      </g>
     </g>
     <g id="text_65">
      <!-- 0 -->
      <g transform="translate(380.8375 516.128259) scale(0.1 -0.1)">
       <use xlink:href="#DejaVuSans-30"/>
      </g>
     </g>
    </g>
    <g id="ytick_28">
     <g id="line2d_67">
      <g>
       <use xlink:href="#m738314b1da" x="394.2" y="463.191319" style="stroke: #000000; stroke-width: 0.8"/>
      </g>
     </g>
     <g id="text_66">
      <!-- 1 -->
      <g transform="translate(380.8375 466.990538) scale(0.1 -0.1)">
       <use xlink:href="#DejaVuSans-31"/>
      </g>
     </g>
    </g>
    <g id="ytick_29">
     <g id="line2d_68">
      <g>
       <use xlink:href="#m738314b1da" x="394.2" y="414.053598" style="stroke: #000000; stroke-width: 0.8"/>
      </g>
     </g>
     <g id="text_67">
      <!-- 2 -->
      <g transform="translate(380.8375 417.852817) scale(0.1 -0.1)">
       <use xlink:href="#DejaVuSans-32"/>
      </g>
     </g>
    </g>
    <g id="ytick_30">
     <g id="line2d_69">
      <g>
       <use xlink:href="#m738314b1da" x="394.2" y="364.915877" style="stroke: #000000; stroke-width: 0.8"/>
      </g>
     </g>
     <g id="text_68">
      <!-- 3 -->
      <g transform="translate(380.8375 368.715096) scale(0.1 -0.1)">
       <use xlink:href="#DejaVuSans-33"/>
      </g>
     </g>
    </g>
   </g>
   <g id="line2d_70">
    <path d="M 394.2 512.32904 
L 702.9 512.32904 
" clip-path="url(#p06d2470653)" style="fill: none; stroke-dasharray: 2.775,1.2; stroke-dashoffset: 0; stroke: #000000; stroke-width: 0.75"/>
   </g>
   <g id="line2d_71">
    <path d="M 394.2 512.32904 
L 394.292152 523.139339 
L 394.806652 523.139339 
L 395.321152 487.76018 
L 702.9 487.76018 
L 702.9 487.76018 
" clip-path="url(#p06d2470653)" style="fill: none; stroke: #1f77b4; stroke-width: 0.5; stroke-linecap: square"/>
   </g>
   <g id="line2d_72">
    <path d="M 394.2 512.32904 
L 394.292152 526.284153 
L 394.806652 526.284153 
L 395.321152 525.403306 
L 396.350152 525.403306 
L 396.864652 524.491494 
L 397.893652 524.491494 
L 398.408152 519.06529 
L 398.922652 519.06529 
L 399.437152 515.220468 
L 399.951652 515.220468 
L 400.466152 516.892179 
L 400.980652 516.892179 
L 401.495152 513.725819 
L 402.009652 513.725819 
L 402.524152 515.741398 
L 403.038652 515.741398 
L 403.553152 512.940759 
L 404.067652 512.940759 
L 404.582152 515.132484 
L 405.096652 515.132484 
L 405.611152 512.574587 
L 406.125652 512.574587 
L 406.640152 514.842483 
L 407.154652 514.842483 
L 407.669152 512.458708 
L 408.183652 512.458708 
L 408.698152 510.748468 
L 409.212652 510.748468 
L 409.727152 513.489834 
L 410.241652 513.489834 
L 410.756152 511.705949 
L 411.270652 511.705949 
L 411.785152 514.205496 
L 412.299652 514.205496 
L 412.814152 512.376588 
L 413.328652 512.376588 
L 413.843152 514.696723 
L 414.872152 514.696723 
L 415.386652 513.752659 
L 416.415652 513.752659 
L 416.930152 513.297532 
L 421.046152 513.358284 
L 421.560652 513.671854 
L 422.589652 513.671854 
L 423.104152 514.102096 
L 424.133152 514.102096 
L 424.647652 514.621904 
L 425.676652 514.621904 
L 426.191152 515.216224 
L 427.220152 515.216224 
L 427.734652 514.603534 
L 428.763652 514.603534 
L 429.278152 516.258519 
L 430.307152 516.258519 
L 430.821652 517.723907 
L 431.850652 517.723907 
L 432.365152 519.798572 
L 433.394152 519.798572 
L 433.908652 523.838284 
L 434.937652 523.838284 
L 435.452152 530.050676 
L 436.481152 530.050676 
L 436.995652 545.581843 
L 438.024652 545.581843 
L 438.539152 556.868867 
L 439.568152 556.868867 
L 440.082652 555.190749 
L 441.111652 555.190749 
L 441.626152 541.103278 
L 442.655152 541.103278 
L 443.169652 532.297336 
L 444.198652 532.297336 
L 444.713152 524.693218 
L 445.742152 524.693218 
L 446.256652 520.353963 
L 447.285652 520.353963 
L 447.800152 521.411159 
L 448.829152 521.411159 
L 449.343652 518.476671 
L 450.372652 518.476671 
L 450.887152 516.668966 
L 451.916152 516.668966 
L 452.430652 515.613377 
L 453.459652 515.613377 
L 453.974152 515.018086 
L 455.003152 515.018086 
L 455.517652 514.70599 
L 456.546652 514.70599 
L 457.061152 514.568057 
L 461.177152 514.568567 
L 461.691652 510.208121 
L 462.720652 510.208121 
L 463.235152 511.910693 
L 464.264152 511.910693 
L 464.778652 513.087447 
L 465.807652 513.087447 
L 466.322152 513.844644 
L 467.351152 513.844644 
L 467.865652 514.335763 
L 468.894652 514.335763 
L 469.409152 514.659361 
L 470.438152 514.659361 
L 470.952652 510.229195 
L 471.981652 510.229195 
L 472.496152 512.087642 
L 473.525152 512.087642 
L 474.039652 513.325435 
L 475.068652 513.325435 
L 475.583152 514.083422 
L 476.097652 514.083422 
L 476.612152 511.281698 
L 477.126652 511.281698 
L 477.641152 513.814569 
L 478.155652 513.814569 
L 478.670152 511.099031 
L 479.184652 511.099031 
L 479.699152 513.666678 
L 480.213652 513.666678 
L 480.728152 510.988158 
L 481.242652 510.988158 
L 481.757152 513.561861 
L 482.271652 513.561861 
L 482.786152 510.910114 
L 483.300652 510.910114 
L 483.815152 513.471233 
L 484.329652 513.471233 
L 484.844152 510.843172 
L 485.358652 510.843172 
L 485.873152 513.378437 
L 486.387652 513.378437 
L 486.902152 510.775158 
L 487.416652 510.775158 
L 487.931152 513.274244 
L 488.445652 513.274244 
L 488.960152 510.699358 
L 489.474652 510.699358 
L 489.989152 513.153506 
L 490.503652 513.153506 
L 491.018152 510.612219 
L 491.532652 510.612219 
L 492.047152 513.013448 
L 492.561652 513.013448 
L 493.076152 510.512058 
L 493.590652 510.512058 
L 494.105152 512.852704 
L 494.619652 512.852704 
L 495.134152 514.543811 
L 495.648652 514.543811 
L 496.163152 511.633305 
L 496.677652 511.633305 
L 497.192152 513.462966 
L 497.706652 513.462966 
L 498.221152 510.822552 
L 498.735652 510.822552 
L 499.250152 512.738882 
L 499.764652 512.738882 
L 500.279152 510.286176 
L 500.793652 510.286176 
L 501.308152 512.206513 
L 501.822652 512.206513 
L 502.337152 509.900035 
L 502.851652 509.900035 
L 503.366152 511.774197 
L 503.880652 511.774197 
L 504.395152 513.047184 
L 504.909652 513.047184 
L 505.424152 510.521141 
L 505.938652 510.521141 
L 506.453152 511.885198 
L 506.967652 511.885198 
L 507.482152 509.667294 
L 507.996652 509.667294 
L 508.511152 511.064534 
L 509.025652 511.064534 
L 509.540152 511.927997 
L 510.054652 511.927997 
L 510.569152 509.70667 
L 511.083652 509.70667 
L 511.598152 510.650138 
L 512.112652 510.650138 
L 512.627152 511.131548 
L 514.170652 511.204221 
L 514.685152 509.170592 
L 515.199652 509.170592 
L 515.714152 509.419242 
L 516.228652 509.419242 
L 516.743152 509.29161 
L 517.257652 509.29161 
L 517.772152 508.813798 
L 518.286652 508.813798 
L 518.801152 508.029032 
L 519.315652 508.029032 
L 519.830152 506.958447 
L 520.344652 506.958447 
L 520.859152 505.603911 
L 521.373652 505.603911 
L 521.888152 503.950778 
L 522.402652 503.950778 
L 522.917152 501.971404 
L 523.431652 501.971404 
L 523.946152 495.795554 
L 524.460652 495.795554 
L 524.975152 492.927546 
L 525.489652 492.927546 
L 526.004152 482.599606 
L 526.518652 482.599606 
L 527.033152 465.924556 
L 527.547652 465.924556 
L 528.062152 468.625756 
L 528.576652 468.625756 
L 529.091152 470.981527 
L 529.605652 470.981527 
L 530.120152 479.438821 
L 530.634652 479.438821 
L 531.149152 487.73597 
L 531.663652 487.73597 
L 532.178152 493.077881 
L 532.692652 493.077881 
L 533.207152 496.741425 
L 533.721652 496.741425 
L 534.236152 499.343305 
L 534.750652 499.343305 
L 535.265152 501.211323 
L 535.779652 501.211323 
L 536.294152 502.548135 
L 536.808652 502.548135 
L 537.323152 503.489905 
L 537.837652 503.489905 
L 538.352152 507.890513 
L 538.866652 507.890513 
L 539.381152 507.404569 
L 539.895652 507.404569 
L 540.410152 506.944852 
L 540.924652 506.944852 
L 541.439152 510.523506 
L 541.953652 510.523506 
L 542.468152 509.238878 
L 542.982652 509.238878 
L 543.497152 508.178771 
L 544.011652 508.178771 
L 544.526152 511.487236 
L 545.040652 511.487236 
L 545.555152 509.834512 
L 546.069652 509.834512 
L 546.584152 508.496311 
L 547.098652 508.496311 
L 547.613152 511.759218 
L 548.127652 511.759218 
L 548.642152 509.921915 
L 549.156652 509.921915 
L 549.671152 512.830779 
L 550.185652 512.830779 
L 550.700152 510.653765 
L 551.214652 510.653765 
L 551.729152 513.375482 
L 552.243652 513.375482 
L 552.758152 510.999909 
L 553.272652 510.999909 
L 553.787152 509.137951 
L 554.301652 509.137951 
L 554.816152 512.268391 
L 555.330652 512.268391 
L 555.845152 510.104841 
L 556.359652 510.104841 
L 556.874152 512.997343 
L 557.388652 512.997343 
L 557.903152 510.609835 
L 558.932152 510.609835 
L 559.446652 510.145268 
L 559.961152 510.145268 
L 560.475652 513.064999 
L 560.990152 513.064999 
L 561.504652 510.621375 
L 562.019152 510.621375 
L 562.533652 513.402375 
L 563.048152 513.402375 
L 563.562652 510.862264 
L 564.077152 510.862264 
L 564.591652 513.58294 
L 565.106152 513.58294 
L 565.620652 510.996249 
L 566.135152 510.996249 
L 566.649652 513.682683 
L 567.164152 513.682683 
L 567.678652 511.079724 
L 568.193152 511.079724 
L 568.707652 513.744266 
L 569.222152 513.744266 
L 569.736652 511.144685 
L 570.251152 511.144685 
L 570.765652 513.791814 
L 571.280152 513.791814 
L 571.794652 511.209329 
L 572.309152 511.209329 
L 572.823652 513.838948 
L 573.338152 513.838948 
L 573.852652 511.284009 
L 574.367152 511.284009 
L 574.881652 513.893296 
L 575.396152 513.893296 
L 575.910652 511.374593 
L 576.425152 511.374593 
L 576.939652 513.959041 
L 577.454152 513.959041 
L 577.968652 511.484358 
L 578.483152 511.484358 
L 578.997652 514.038349 
L 579.512152 514.038349 
L 580.026652 511.615063 
L 580.541152 511.615063 
L 581.055652 514.132164 
L 581.570152 514.132164 
L 582.084652 511.767533 
L 582.599152 511.767533 
L 583.113652 514.240631 
L 583.628152 514.240631 
L 584.142652 511.94198 
L 584.657152 511.94198 
L 585.171652 510.288645 
L 585.686152 510.288645 
L 586.200652 513.154346 
L 586.715152 513.154346 
L 587.229652 511.372296 
L 587.744152 511.372296 
L 588.258652 513.966925 
L 588.773152 513.966925 
L 589.287652 512.106542 
L 589.802152 512.106542 
L 590.316652 514.509614 
L 590.831152 514.509614 
L 591.345652 512.652075 
L 591.860152 512.652075 
L 592.374652 514.903212 
L 592.889152 514.903212 
L 593.403652 513.098256 
L 593.918152 513.098256 
L 594.432652 511.887279 
L 594.947152 511.887279 
L 595.461652 514.335427 
L 595.976152 514.335427 
L 596.490652 513.045547 
L 597.005152 513.045547 
L 597.519652 512.251772 
L 598.034152 512.251772 
L 598.548652 514.610108 
L 599.063152 514.610108 
L 599.577652 513.681069 
L 600.092152 513.681069 
L 600.606652 513.198702 
L 601.121152 513.198702 
L 601.635652 515.307741 
L 602.150152 515.307741 
L 602.664652 514.70692 
L 603.179152 514.70692 
L 603.693652 514.52482 
L 604.208152 514.52482 
L 604.722652 514.721427 
L 605.237152 514.721427 
L 605.751652 516.416412 
L 607.295152 516.500592 
L 607.809652 516.951214 
L 608.324152 516.951214 
L 608.838652 517.752145 
L 609.353152 517.752145 
L 609.867652 518.879534 
L 610.382152 518.879534 
L 610.896652 520.330756 
L 611.411152 520.330756 
L 611.925652 524.613465 
L 612.440152 524.613465 
L 612.954652 527.135237 
L 613.469152 527.135237 
L 613.983652 535.786217 
L 614.498152 535.786217 
L 615.012652 546.044275 
L 615.527152 546.044275 
L 616.041652 553.672607 
L 616.556152 553.672607 
L 617.070652 559.642688 
L 617.585152 559.642688 
L 618.099652 550.229144 
L 618.614152 550.229144 
L 619.128652 543.66727 
L 619.643152 543.66727 
L 620.157652 536.07924 
L 620.672152 536.07924 
L 621.186652 531.045721 
L 621.701152 531.045721 
L 622.215652 527.550434 
L 622.730152 527.550434 
L 623.244652 525.048366 
L 623.759152 525.048366 
L 624.273652 523.240289 
L 624.788152 523.240289 
L 625.302652 521.938402 
L 625.817152 521.938402 
L 626.331652 521.015268 
L 626.846152 521.015268 
L 627.360652 520.380325 
L 627.875152 520.380325 
L 628.389652 516.134884 
L 628.904152 516.134884 
L 629.418652 516.813392 
L 629.933152 516.813392 
L 630.447652 517.419362 
L 630.962152 517.419362 
L 631.476652 513.882411 
L 631.991152 513.882411 
L 632.505652 515.269098 
L 633.020152 515.269098 
L 633.534652 516.405415 
L 634.049152 516.405415 
L 634.563652 513.088913 
L 635.078152 513.088913 
L 635.592652 514.800971 
L 636.107152 514.800971 
L 636.621652 511.888808 
L 637.136152 511.888808 
L 637.650652 513.983291 
L 638.165152 513.983291 
L 638.679652 515.641112 
L 639.194152 515.641112 
L 639.708652 512.487761 
L 640.223152 512.487761 
L 640.737652 514.525441 
L 641.252152 514.525441 
L 641.766652 511.651694 
L 642.281152 511.651694 
L 642.795652 513.959907 
L 643.310152 513.959907 
L 643.824652 511.231652 
L 644.339152 511.231652 
L 644.853652 513.695326 
L 645.368152 513.695326 
L 645.882652 515.609538 
L 646.397152 515.609538 
L 646.911652 512.43694 
L 647.426152 512.43694 
L 647.940652 514.638091 
L 648.455152 514.638091 
L 648.969652 511.705612 
L 649.484152 511.705612 
L 649.998652 514.118406 
L 650.513152 514.118406 
L 651.027652 511.315586 
L 651.542152 511.315586 
L 652.056652 513.841972 
L 652.571152 513.841972 
L 653.085652 511.108888 
L 653.600152 511.108888 
L 654.114652 513.69205 
L 654.629152 513.69205 
L 655.143652 510.997487 
L 655.658152 510.997487 
L 656.172652 513.603227 
L 656.687152 513.603227 
L 657.201652 510.932054 
L 657.716152 510.932054 
L 658.230652 513.538677 
L 658.745152 513.538677 
L 659.259652 510.884895 
L 659.774152 510.884895 
L 660.288652 508.86599 
L 660.803152 508.86599 
L 661.317652 507.434577 
L 661.832152 507.434577 
L 662.346652 506.485643 
L 662.861152 506.485643 
L 663.375652 505.933324 
L 663.890152 505.933324 
L 664.404652 505.702135 
L 665.948152 505.722249 
L 666.462652 505.928784 
L 666.977152 505.928784 
L 667.491652 506.263262 
L 668.006152 506.263262 
L 668.520652 506.675549 
L 669.035152 506.675549 
L 669.549652 507.125172 
L 670.064152 507.125172 
L 670.578652 507.58158 
L 671.093152 507.58158 
L 671.607652 508.023439 
L 672.122152 508.023439 
L 672.636652 508.437272 
L 673.151152 508.437272 
L 673.665652 508.815802 
L 674.180152 508.815802 
L 674.694652 509.156302 
L 675.209152 509.156302 
L 675.723652 509.459128 
L 676.238152 509.459128 
L 676.752652 509.726534 
L 677.267152 509.726534 
L 677.781652 509.961777 
L 678.296152 509.961777 
L 678.810652 510.168498 
L 679.325152 510.168498 
L 679.839652 510.350325 
L 680.354152 510.350325 
L 680.868652 510.510638 
L 681.383152 510.510638 
L 681.897652 510.652461 
L 682.412152 510.652461 
L 682.926652 510.778421 
L 683.441152 510.778421 
L 684.470152 510.890768 
L 686.013652 511.081912 
L 687.557152 511.163646 
L 689.100652 511.305102 
L 690.644152 511.366573 
L 692.187652 511.474436 
L 694.760152 511.565689 
L 697.332652 511.678347 
L 700.934152 511.768754 
L 702.9 511.819438 
L 702.9 511.819438 
" clip-path="url(#p06d2470653)" style="fill: none; stroke: #ff7f0e; stroke-width: 0.5; stroke-linecap: square"/>
   </g>
   <g id="patch_21">
    <path d="M 394.2 665.83528 
L 394.2 358.8228 
" style="fill: none; stroke: #000000; stroke-width: 0.8; stroke-linejoin: miter; stroke-linecap: square"/>
   </g>
   <g id="patch_22">
    <path d="M 702.9 665.83528 
L 702.9 358.8228 
" style="fill: none; stroke: #000000; stroke-width: 0.8; stroke-linejoin: miter; stroke-linecap: square"/>
   </g>
   <g id="patch_23">
    <path d="M 394.2 665.83528 
L 702.9 665.83528 
" style="fill: none; stroke: #000000; stroke-width: 0.8; stroke-linejoin: miter; stroke-linecap: square"/>
   </g>
   <g id="patch_24">
    <path d="M 394.2 358.8228 
L 702.9 358.8228 
" style="fill: none; stroke: #000000; stroke-width: 0.8; stroke-linejoin: miter; stroke-linecap: square"/>
   </g>
   <g id="legend_3">
    <g id="patch_25">
     <path d="M 619.3 396.17905 
L 695.9 396.17905 
Q 697.9 396.17905 697.9 394.17905 
L 697.9 365.8228 
Q 697.9 363.8228 695.9 363.8228 
L 619.3 363.8228 
Q 617.3 363.8228 617.3 365.8228 
L 617.3 394.17905 
Q 617.3 396.17905 619.3 396.17905 
z
" style="fill: #ffffff; opacity: 0.8; stroke: #cccccc; stroke-linejoin: miter"/>
    </g>
    <g id="line2d_73">
     <path d="M 621.3 371.921237 
L 631.3 371.921237 
L 641.3 371.921237 
" style="fill: none; stroke: #1f77b4; stroke-width: 0.5; stroke-linecap: square"/>
    </g>
    <g id="text_69">
     <!-- v [m/s] -->
     <g transform="translate(649.3 375.421237) scale(0.1 -0.1)">
      <defs>
       <path id="DejaVuSans-76" d="M 191 3500 
L 800 3500 
L 1894 563 
L 2988 3500 
L 3597 3500 
L 2284 0 
L 1503 0 
L 191 3500 
z
" transform="scale(0.015625)"/>
       <path id="DejaVuSans-2f" d="M 1625 4666 
L 2156 4666 
L 531 -594 
L 0 -594 
L 1625 4666 
z
" transform="scale(0.015625)"/>
      </defs>
      <use xlink:href="#DejaVuSans-76"/>
      <use xlink:href="#DejaVuSans-20" x="59.179688"/>
      <use xlink:href="#DejaVuSans-5b" x="90.966797"/>
      <use xlink:href="#DejaVuSans-6d" x="129.980469"/>
      <use xlink:href="#DejaVuSans-2f" x="227.392578"/>
      <use xlink:href="#DejaVuSans-73" x="261.083984"/>
      <use xlink:href="#DejaVuSans-5d" x="313.183594"/>
     </g>
    </g>
    <g id="line2d_74">
     <path d="M 621.3 386.599362 
L 631.3 386.599362 
L 641.3 386.599362 
" style="fill: none; stroke: #ff7f0e; stroke-width: 0.5; stroke-linecap: square"/>
    </g>
    <g id="text_70">
     <!-- $\omega$ [rad/s] -->
     <g transform="translate(649.3 390.099362) scale(0.1 -0.1)">
      <defs>
       <path id="DejaVuSans-Oblique-3c9" d="M 1369 -91 
Q 72 -91 434 1766 
Q 575 2500 1256 3500 
L 1875 3500 
Q 1231 2500 1088 1750 
Q 819 397 1519 397 
Q 2166 397 2478 2078 
L 3009 2078 
Q 2669 388 3316 397 
Q 4013 403 4275 1750 
Q 4419 2500 4169 3500 
L 4788 3500 
Q 5075 2500 4934 1766 
Q 4578 -94 3278 -91 
Q 2428 -88 2503 844 
Q 2194 -91 1369 -91 
z
" transform="scale(0.015625)"/>
      </defs>
      <use xlink:href="#DejaVuSans-Oblique-3c9" transform="translate(0 0.015625)"/>
      <use xlink:href="#DejaVuSans-20" transform="translate(83.740234 0.015625)"/>
      <use xlink:href="#DejaVuSans-5b" transform="translate(115.527344 0.015625)"/>
      <use xlink:href="#DejaVuSans-72" transform="translate(154.541016 0.015625)"/>
      <use xlink:href="#DejaVuSans-61" transform="translate(195.654297 0.015625)"/>
      <use xlink:href="#DejaVuSans-64" transform="translate(256.933594 0.015625)"/>
      <use xlink:href="#DejaVuSans-2f" transform="translate(320.410156 0.015625)"/>
      <use xlink:href="#DejaVuSans-73" transform="translate(354.101562 0.015625)"/>
      <use xlink:href="#DejaVuSans-5d" transform="translate(406.201172 0.015625)"/>
     </g>
    </g>
   </g>
  </g>
  <g id="text_71">
   <!-- $\int \mathrm{Run.\,obj.} \,\mathrm{d}t$ = 51241.3 -->
   <g transform="translate(36 357.37) scale(0.1 -0.1)">
    <use xlink:href="#DejaVuSansDisplay-222b" transform="translate(0 0.96875)"/>
    <use xlink:href="#DejaVuSans-52" transform="translate(73.632812 0.96875)"/>
    <use xlink:href="#DejaVuSans-75" transform="translate(143.115234 0.96875)"/>
    <use xlink:href="#DejaVuSans-6e" transform="translate(206.494141 0.96875)"/>
    <use xlink:href="#DejaVuSans-2e" transform="translate(269.873047 0.96875)"/>
    <use xlink:href="#DejaVuSans-6f" transform="translate(337.378254 0.96875)"/>
    <use xlink:href="#DejaVuSans-62" transform="translate(398.559895 0.96875)"/>
    <use xlink:href="#DejaVuSans-6a" transform="translate(462.036458 0.96875)"/>
    <use xlink:href="#DejaVuSans-2e" transform="translate(489.819661 0.96875)"/>
    <use xlink:href="#DejaVuSans-64" transform="translate(557.324868 0.96875)"/>
    <use xlink:href="#DejaVuSans-Oblique-74" transform="translate(620.801431 0.96875)"/>
    <use xlink:href="#DejaVuSans-20" transform="translate(660.010415 0.96875)"/>
    <use xlink:href="#DejaVuSans-3d" transform="translate(691.797524 0.96875)"/>
    <use xlink:href="#DejaVuSans-20" transform="translate(775.586587 0.96875)"/>
    <use xlink:href="#DejaVuSans-35" transform="translate(807.373696 0.96875)"/>
    <use xlink:href="#DejaVuSans-31" transform="translate(870.996743 0.96875)"/>
    <use xlink:href="#DejaVuSans-32" transform="translate(934.61979 0.96875)"/>
    <use xlink:href="#DejaVuSans-34" transform="translate(998.242837 0.96875)"/>
    <use xlink:href="#DejaVuSans-31" transform="translate(1061.865884 0.96875)"/>
    <use xlink:href="#DejaVuSans-2e" transform="translate(1125.488931 0.96875)"/>
    <use xlink:href="#DejaVuSans-33" transform="translate(1157.27604 0.96875)"/>
   </g>
  </g>
 </g>
 <defs>
  <clipPath id="pa0c656da72">
   <rect x="46.64" y="80.253354" width="308.7" height="167.716971"/>
  </clipPath>
  <clipPath id="p9dcc31d5e7">
   <rect x="394.2" y="10.6056" width="308.7" height="307.01248"/>
  </clipPath>
  <clipPath id="p2922f498e2">
   <rect x="46.64" y="358.8228" width="308.7" height="307.01248"/>
  </clipPath>
  <clipPath id="p06d2470653">
   <rect x="394.2" y="358.8228" width="308.7" height="307.01248"/>
  </clipPath>
 </defs>
</svg>
